<svg width="2880" height="1728" fill="none" xmlns="http://www.w3.org/2000/svg"><g clip-path="url(#clip0_265_2448)"><path fill="url(#paint0_linear_265_2448)" d="M0 0h2880v1728H0z"/><path d="M-55 588.954v-69.176c0-108.381 606.231-143.461 909.347-147.453C938.809 308.853 2288.44 453.643 2935 602.843v134.135c0 6.841-6.24 11.869-12.85 10.109-200.52-53.39-1328.82-129.857-1928.318-227.309-332.781-54.095-770.203-6.854-1035.745 78.767-6.5 2.096-13.087-2.761-13.087-9.591z" fill="#EBF4FF"/><path d="M645.766 464.479L2880 621V0H0v508.599c250.33-76.194 507.346-62.328 645.766-44.12z" fill="url(#paint1_diamond_265_2448)"/><g clip-path="url(#clip1_265_2448)"><g clip-path="url(#clip2_265_2448)"><path opacity=".4" d="M1122.43 831.1V709.6a48.674 48.674 0 0 0-14.24-34.351A48.605 48.605 0 0 0 1073.86 661H1001v48.6h72.86v121.5a96.567 96.567 0 0 0 8.85 40.102A96.732 96.732 0 0 0 1107.42 904a96.732 96.732 0 0 0-24.71 32.798 96.567 96.567 0 0 0-8.85 40.102v121.5H1001v48.6h72.86a48.602 48.602 0 0 0 34.33-14.25 48.663 48.663 0 0 0 14.24-34.35V976.9a48.632 48.632 0 0 1 14.24-34.351A48.605 48.605 0 0 1 1171 928.3v-48.6a48.605 48.605 0 0 1-34.33-14.249 48.632 48.632 0 0 1-14.24-34.351z" fill="url(#paint2_linear_265_2448)"/><path opacity=".4" fill-rule="evenodd" clip-rule="evenodd" d="M854.75 734l-20.782 72.857h48.5L903.25 734h48.5l-20.782 72.857H976v48.572h-58.879l-27.718 97.142h62.347v48.569h-76.218L854.75 1074h-48.5l20.782-72.86h-48.5L757.75 1074h-48.5l20.782-72.86H685v-48.569h58.903l27.718-97.142H709.25v-48.572h76.218L806.25 734h48.5zm13.871 121.429h-48.5l-27.718 97.142h48.5l27.718-97.142z" fill="url(#paint3_linear_265_2448)"/><path opacity=".4" d="M587.143 831.1V709.6H660V661h-72.857a48.604 48.604 0 0 0-34.331 14.249 48.663 48.663 0 0 0-14.241 34.351v121.5a48.658 48.658 0 0 1-14.24 34.351A48.604 48.604 0 0 1 490 879.7v48.6a48.604 48.604 0 0 1 34.331 14.249 48.658 48.658 0 0 1 14.24 34.351v121.5a48.652 48.652 0 0 0 14.241 34.35 48.6 48.6 0 0 0 34.331 14.25H660v-48.6h-72.857V976.9A96.654 96.654 0 0 0 553.58 904a96.654 96.654 0 0 0 33.563-72.9z" fill="url(#paint4_linear_265_2448)"/></g><ellipse opacity=".6" cx="2488" cy="1174" rx="199" ry="210" fill="#AE9FE8"/><ellipse cx="2667.5" cy="1075.5" rx="105.5" ry="111.5" fill="#AE9CEC" fill-opacity=".8"/><ellipse cx="142" cy="305.5" rx="92" ry="97.5" fill="#E4B9C4"/><ellipse cx="292" cy="253" rx="112" ry="119" fill="#F2CCD2" fill-opacity=".32"/></g></g><defs><linearGradient id="paint0_linear_265_2448" x1="322.5" y1="142" x2="1281" y2="1198" gradientUnits="userSpaceOnUse"><stop stop-color="#E8B2B5"/><stop offset="1" stop-color="#AFA5F2"/></linearGradient><radialGradient id="paint1_diamond_265_2448" cx="0" cy="0" r="1" gradientUnits="userSpaceOnUse" gradientTransform="rotate(11.301 278.462 -355.492) scale(3152.61 5780.12)"><stop stop-color="#F3B2AB"/><stop offset="0" stop-color="#EBB3B0"/><stop offset="1" stop-color="#AAA4F6"/></radialGradient><linearGradient id="paint2_linear_265_2448" x1="1001" y1="1147" x2="1251.38" y2="1066.91" gradientUnits="userSpaceOnUse"><stop stop-color="#2D39D7"/><stop offset=".661" stop-color="#6648E2"/><stop offset="1" stop-color="#AD5BF0"/></linearGradient><linearGradient id="paint3_linear_265_2448" x1="685" y1="1074" x2="977.97" y2="844.699" gradientUnits="userSpaceOnUse"><stop stop-color="#2D39D7"/><stop offset=".661" stop-color="#6648E2"/><stop offset="1" stop-color="#AD5BF0"/></linearGradient><linearGradient id="paint4_linear_265_2448" x1="490" y1="1147" x2="740.376" y2="1066.91" gradientUnits="userSpaceOnUse"><stop stop-color="#2D39D7"/><stop offset=".661" stop-color="#6648E2"/><stop offset="1" stop-color="#AD5BF0"/></linearGradient><clipPath id="clip0_265_2448"><path fill="#fff" d="M0 0h2880v1728H0z"/></clipPath><clipPath id="clip1_265_2448"><path fill="#fff" d="M0 0h2880v1728H0z"/></clipPath><clipPath id="clip2_265_2448"><path fill="#fff" transform="translate(363 597)" d="M0 0h934v934H0z"/></clipPath></defs></svg>