<svg width="2880" height="1728" fill="none" xmlns="http://www.w3.org/2000/svg"><g clip-path="url(#clip0_265_2446)"><path fill="url(#paint0_linear_265_2446)" d="M0 0h2880v1728H0z"/><path d="M-55 588.954v-69.176c0-108.381 606.231-143.461 909.347-147.453C938.809 308.853 2288.44 453.643 2935 602.843v134.135c0 6.841-6.24 11.869-12.85 10.109-200.52-53.39-1328.82-129.857-1928.318-227.309-332.781-54.095-770.203-6.854-1035.745 78.767-6.5 2.096-13.087-2.761-13.087-9.591z" fill="#EBF4FF"/><path d="M645.766 464.479L2880 621V0H0v508.599c250.33-76.194 507.346-62.328 645.766-44.12z" fill="url(#paint1_diamond_265_2446)"/><g clip-path="url(#clip1_265_2446)"><g clip-path="url(#clip2_265_2446)"><path opacity=".4" d="M966.714 930.75V779.5a60.665 60.665 0 0 0-17.675-42.762A60.235 60.235 0 0 0 906.429 719H816v60.5h90.429v151.25a120.62 120.62 0 0 0 10.994 49.922 120.258 120.258 0 0 0 30.663 40.828 120.237 120.237 0 0 0-30.663 40.83 120.615 120.615 0 0 0-10.994 49.92v151.25H816v60.5h90.429a60.266 60.266 0 0 0 42.61-17.74 60.658 60.658 0 0 0 17.675-42.76v-151.25a60.663 60.663 0 0 1 17.675-42.76 60.274 60.274 0 0 1 42.611-17.74v-60.5a60.243 60.243 0 0 1-42.611-17.738 60.67 60.67 0 0 1-17.675-42.762z" fill="url(#paint2_linear_265_2446)"/><path opacity=".4" fill-rule="evenodd" clip-rule="evenodd" d="M633.75 810l-25.924 90.643h60.5L694.25 810h60.5l-25.924 90.643H785v60.428h-73.447l-34.576 120.859h77.773v60.43h-95.076L633.75 1233h-60.5l25.924-90.64h-60.5L512.75 1233h-60.5l25.924-90.64H422v-60.43h73.477l34.576-120.859H452.25v-60.428h95.076L573.25 810h60.5zm17.303 151.071h-60.5l-34.576 120.859h60.5l34.576-120.859z" fill="url(#paint3_linear_265_2446)"/><path opacity=".4" d="M301.143 930.75V779.5H392V719h-90.857a60.666 60.666 0 0 0-42.813 17.738 60.522 60.522 0 0 0-17.759 42.762v151.25a60.521 60.521 0 0 1-17.758 42.762A60.666 60.666 0 0 1 180 991.25v60.5c16.06.02 31.457 6.4 42.813 17.74a60.515 60.515 0 0 1 17.758 42.76v151.25a60.516 60.516 0 0 0 17.759 42.76 60.698 60.698 0 0 0 42.813 17.74H392v-60.5h-90.857v-151.25a120.164 120.164 0 0 0-11.046-49.92 120.312 120.312 0 0 0-30.809-40.83 120.333 120.333 0 0 0 30.809-40.828 120.17 120.17 0 0 0 11.046-49.922z" fill="url(#paint4_linear_265_2446)"/></g><ellipse opacity=".6" cx="2579" cy="1422" rx="199" ry="210" fill="#AE9FE8"/><ellipse cx="2758.5" cy="1323.5" rx="105.5" ry="111.5" fill="#AE9CEC" fill-opacity=".8"/><ellipse cx="2773.5" cy="430" rx="72.5" ry="73" fill="#AE9CEC"/><ellipse cx="2683" cy="484" rx="79" ry="84" fill="#9F80BF" fill-opacity=".16"/><ellipse cx="2773.5" cy="515" rx="39.5" ry="42" fill="#AE9CEC" fill-opacity=".6"/><ellipse cx="142" cy="305.5" rx="92" ry="97.5" fill="#E4B9C4"/><ellipse cx="292" cy="253" rx="112" ry="119" fill="#F2CCD2" fill-opacity=".32"/></g></g><defs><linearGradient id="paint0_linear_265_2446" x1="322.5" y1="142" x2="1281" y2="1198" gradientUnits="userSpaceOnUse"><stop stop-color="#E8B2B5"/><stop offset="1" stop-color="#AFA5F2"/></linearGradient><radialGradient id="paint1_diamond_265_2446" cx="0" cy="0" r="1" gradientUnits="userSpaceOnUse" gradientTransform="rotate(11.301 278.462 -355.492) scale(3152.61 5780.12)"><stop stop-color="#F3B2AB"/><stop offset="0" stop-color="#EBB3B0"/><stop offset="1" stop-color="#AAA4F6"/></radialGradient><linearGradient id="paint2_linear_265_2446" x1="816" y1="1324" x2="1126.93" y2="1224.83" gradientUnits="userSpaceOnUse"><stop stop-color="#2D39D7"/><stop offset=".661" stop-color="#6648E2"/><stop offset="1" stop-color="#AD5BF0"/></linearGradient><linearGradient id="paint3_linear_265_2446" x1="422" y1="1233" x2="786.721" y2="946.784" gradientUnits="userSpaceOnUse"><stop stop-color="#2D39D7"/><stop offset=".661" stop-color="#6648E2"/><stop offset="1" stop-color="#AD5BF0"/></linearGradient><linearGradient id="paint4_linear_265_2446" x1="180" y1="1324" x2="492.131" y2="1223.98" gradientUnits="userSpaceOnUse"><stop stop-color="#2D39D7"/><stop offset=".661" stop-color="#6648E2"/><stop offset="1" stop-color="#AD5BF0"/></linearGradient><clipPath id="clip0_265_2446"><path fill="#fff" d="M0 0h2880v1728H0z"/></clipPath><clipPath id="clip1_265_2446"><path fill="#fff" d="M0 0h2880v1728H0z"/></clipPath><clipPath id="clip2_265_2446"><path fill="#fff" transform="translate(180 587)" d="M0 0h934v934H0z"/></clipPath></defs></svg>