<svg width="2880" height="1728" fill="none" xmlns="http://www.w3.org/2000/svg"><g clip-path="url(#clip0_407_90)"><path fill="url(#paint0_linear_407_90)" d="M0 0h2880v1728H0z"/><path d="M-55 588.954v-69.176c0-108.381 606.231-143.461 909.347-147.453C938.809 308.853 2288.44 453.643 2935 602.843v134.135c0 6.841-6.24 11.869-12.85 10.109-200.52-53.39-1328.82-129.857-1928.318-227.309-332.781-54.095-770.203-6.854-1035.745 78.767-6.5 2.096-13.087-2.761-13.087-9.591z" fill="#EBF4FF"/><path d="M645.766 464.479L2880 621V0H0v508.599c250.33-76.194 507.346-62.328 645.766-44.12z" fill="url(#paint1_diamond_407_90)"/><g clip-path="url(#clip1_407_90)"><ellipse opacity=".6" cx="2579" cy="1422" rx="199" ry="210" fill="#AE9FE8"/><ellipse cx="2758.5" cy="1323.5" rx="105.5" ry="111.5" fill="#AE9CEC" fill-opacity=".8"/><ellipse cx="2773.5" cy="430" rx="72.5" ry="73" fill="#AE9CEC"/><ellipse cx="2683" cy="484" rx="79" ry="84" fill="#9F80BF" fill-opacity=".16"/><ellipse cx="2773.5" cy="515" rx="39.5" ry="42" fill="#AE9CEC" fill-opacity=".6"/><ellipse cx="142" cy="305.5" rx="92" ry="97.5" fill="#E4B9C4"/><ellipse cx="292" cy="253" rx="112" ry="119" fill="#F2CCD2" fill-opacity=".32"/><path opacity=".4" d="M903.976 822.85A52 52 0 0 1 920 860.396V1311c0 28.72-23.281 52-52 52H364c-28.719 0-52-23.28-52-52V698c0-28.719 23.281-52 52-52h334.513a52 52 0 0 1 35.975 14.453L903.976 822.85zm-171.053-28.284c0 16.946 13.738 30.684 30.684 30.684 27.653 0 41.195-33.707 21.228-52.839-19.511-18.694-51.912-4.866-51.912 22.155zm140.308 127.496c0-28.718-23.281-52-52-52h-83.077c-28.719 0-52-23.281-52-52v-75.249c0-28.719-23.281-52.001-52-52.001H410.769c-28.719 0-52 23.282-52 52v523.378c0 28.72 23.281 52 52 52h410.462c28.719 0 52-23.28 52-52V922.062zm-233.846-74.406c0 12.375-10.032 22.406-22.407 22.406H427.945c-12.375 0-22.407-10.031-22.407-22.406 0-12.374 10.032-22.406 22.407-22.406h189.033c12.375 0 22.407 10.032 22.407 22.406zm-233.847 89.625c0-12.374 10.032-22.406 22.407-22.406h376.11c12.375 0 22.406 10.032 22.406 22.406 0 12.375-10.031 22.407-22.406 22.407h-376.11c-12.375 0-22.407-10.032-22.407-22.407zm0 89.629c0-12.38 10.032-22.41 22.407-22.41h376.11c12.375 0 22.406 10.03 22.406 22.41 0 12.37-10.031 22.4-22.406 22.4h-376.11c-12.375 0-22.407-10.03-22.407-22.4zm0 89.62c0-12.37 10.032-22.41 22.407-22.41h376.11c12.375 0 22.406 10.04 22.406 22.41 0 12.38-10.031 22.41-22.406 22.41h-376.11c-12.375 0-22.407-10.03-22.407-22.41zm0 89.63c0-12.38 10.032-22.41 22.407-22.41h376.11c12.375 0 22.406 10.03 22.406 22.41 0 12.37-10.031 22.4-22.406 22.4h-376.11c-12.375 0-22.407-10.03-22.407-22.4z" fill="url(#paint2_linear_407_90)"/></g></g><defs><linearGradient id="paint0_linear_407_90" x1="322.5" y1="142" x2="1281" y2="1198" gradientUnits="userSpaceOnUse"><stop stop-color="#E8B2B5"/><stop offset="1" stop-color="#AFA5F2"/></linearGradient><radialGradient id="paint1_diamond_407_90" cx="0" cy="0" r="1" gradientUnits="userSpaceOnUse" gradientTransform="rotate(11.301 278.462 -355.492) scale(3152.61 5780.12)"><stop stop-color="#F3B2AB"/><stop offset="0" stop-color="#EBB3B0"/><stop offset="1" stop-color="#AAA4F6"/></radialGradient><linearGradient id="paint2_linear_407_90" x1="312" y1="1363" x2="928.422" y2="884.997" gradientUnits="userSpaceOnUse"><stop stop-color="#2D39D7"/><stop offset=".661" stop-color="#6648E2"/><stop offset="1" stop-color="#AD5BF0"/></linearGradient><clipPath id="clip0_407_90"><path fill="#fff" d="M0 0h2880v1728H0z"/></clipPath><clipPath id="clip1_407_90"><path fill="#fff" d="M0 0h2880v1728H0z"/></clipPath></defs></svg>