<svg width="2880" height="1728" fill="none" xmlns="http://www.w3.org/2000/svg"><g clip-path="url(#clip0_404_65)"><path fill="url(#paint0_linear_404_65)" d="M0 0h2880v1728H0z"/><path d="M-55 588.954v-69.176c0-108.381 606.231-143.461 909.347-147.453C938.809 308.853 2288.44 453.643 2935 602.843v134.135c0 6.841-6.24 11.869-12.85 10.109-200.52-53.39-1328.82-129.857-1928.318-227.309-332.781-54.095-770.203-6.854-1035.745 78.767-6.5 2.096-13.087-2.761-13.087-9.591z" fill="#EBF4FF"/><path d="M645.766 464.479L2880 621V0H0v508.599c250.33-76.194 507.346-62.328 645.766-44.12z" fill="url(#paint1_diamond_404_65)"/><g clip-path="url(#clip1_404_65)"><ellipse opacity=".6" cx="2488" cy="1174" rx="199" ry="210" fill="#AE9FE8"/><ellipse cx="2667.5" cy="1075.5" rx="105.5" ry="111.5" fill="#AE9CEC" fill-opacity=".8"/><ellipse cx="142" cy="305.5" rx="92" ry="97.5" fill="#E4B9C4"/><ellipse cx="292" cy="253" rx="112" ry="119" fill="#F2CCD2" fill-opacity=".32"/></g><g clip-path="url(#clip2_404_65)"><ellipse opacity=".6" cx="2488" cy="1174" rx="199" ry="210" fill="#AE9FE8"/><ellipse cx="2667.5" cy="1075.5" rx="105.5" ry="111.5" fill="#AE9CEC" fill-opacity=".8"/><ellipse cx="142" cy="305.5" rx="92" ry="97.5" fill="#E4B9C4"/><ellipse cx="292" cy="253" rx="112" ry="119" fill="#F2CCD2" fill-opacity=".32"/></g><path opacity=".4" d="M1048.97 753.886a51.998 51.998 0 0 1 16.03 37.55V1122c0 28.72-23.28 52-52 52H648c-28.719 0-52-23.28-52-52V673c0-28.719 23.281-52 52-52h241.375a52 52 0 0 1 35.973 14.451l123.622 118.435zm-128.278-18.303c0 13.071 10.596 23.667 23.667 23.667 21.331 0 31.776-26.001 16.373-40.757-15.05-14.418-40.04-3.751-40.04 17.09zm108.228 110.229c0-28.718-23.28-52-51.997-52h-40.308c-28.718 0-52-23.281-52-52v-34.25c0-28.718-23.281-52-52-52H684.077c-28.719 0-52 23.282-52 52v379.878c0 28.72 23.281 52 52 52h292.846c28.717 0 51.997-23.28 51.997-52V845.812zm-180.382-69.281c0 9.544-7.737 17.281-17.281 17.281H685.435c-9.544 0-17.281-7.737-17.281-17.281 0-9.544 7.737-17.281 17.281-17.281h145.822c9.544 0 17.281 7.737 17.281 17.281zm-180.384 69.125c0-9.544 7.737-17.281 17.281-17.281h290.13c9.544 0 17.281 7.737 17.281 17.281 0 9.544-7.737 17.282-17.281 17.282h-290.13c-9.544 0-17.281-7.738-17.281-17.282zm0 69.125c0-9.544 7.737-17.281 17.281-17.281h290.13c9.544 0 17.281 7.737 17.281 17.281 0 9.544-7.737 17.281-17.281 17.281h-290.13c-9.544 0-17.281-7.737-17.281-17.281zm0 69.125c0-9.544 7.737-17.281 17.281-17.281h290.13c9.544 0 17.281 7.737 17.281 17.281 0 9.544-7.737 17.284-17.281 17.284h-290.13c-9.544 0-17.281-7.74-17.281-17.284zm0 69.124c0-9.54 7.737-17.28 17.281-17.28h290.13c9.544 0 17.281 7.74 17.281 17.28 0 9.55-7.737 17.28-17.281 17.28h-290.13c-9.544 0-17.281-7.73-17.281-17.28z" fill="url(#paint2_linear_404_65)"/></g><defs><linearGradient id="paint0_linear_404_65" x1="322.5" y1="142" x2="1281" y2="1198" gradientUnits="userSpaceOnUse"><stop stop-color="#E8B2B5"/><stop offset="1" stop-color="#AFA5F2"/></linearGradient><radialGradient id="paint1_diamond_404_65" cx="0" cy="0" r="1" gradientUnits="userSpaceOnUse" gradientTransform="rotate(11.301 278.462 -355.492) scale(3152.61 5780.12)"><stop stop-color="#F3B2AB"/><stop offset="0" stop-color="#EBB3B0"/><stop offset="1" stop-color="#AAA4F6"/></radialGradient><linearGradient id="paint2_linear_404_65" x1="596" y1="1174" x2="1071.44" y2="805.264" gradientUnits="userSpaceOnUse"><stop stop-color="#2D39D7"/><stop offset=".661" stop-color="#6648E2"/><stop offset="1" stop-color="#AD5BF0"/></linearGradient><clipPath id="clip0_404_65"><path fill="#fff" d="M0 0h2880v1728H0z"/></clipPath><clipPath id="clip1_404_65"><path fill="#fff" d="M0 0h2880v1728H0z"/></clipPath><clipPath id="clip2_404_65"><path fill="#fff" d="M0 0h2880v1728H0z"/></clipPath></defs></svg>