<svg width="1932" height="1192" fill="none" xmlns="http://www.w3.org/2000/svg"><rect width="1931.21" height="1191.72" rx="10" fill="url(#paint0_linear_549_57)"/><ellipse cx="801.422" cy="664.871" rx="390.257" ry="414.649" fill="#E1DBF3" fill-opacity=".33"/><ellipse cx="1188.19" cy="734.558" rx="324.053" ry="303.146" fill="#C5B9E9" fill-opacity=".4"/><path d="M510.684 250.05c-9.8 0-16.975-2.31-21.525-6.93-4.55-4.62-6.825-10.99-6.825-19.11v-32.34c0-.77.245-1.4.735-1.89a2.43 2.43 0 0 1 1.785-.735h8.82c.77 0 1.4.245 1.89.735s.735 1.12.735 1.89v31.815c0 4.55 1.225 7.98 3.675 10.29 2.52 2.24 6.055 3.36 10.605 3.36 4.48 0 7.84-1.085 10.08-3.255s3.395-5.46 3.465-9.87c.07-.7.07-1.575 0-2.625v-3.36-2.73c-.07-4.55-.91-7.98-2.52-10.29-1.61-2.31-3.85-3.465-6.72-3.465-.98 0-2.1.175-3.36.525-1.26.28-2.31.665-3.15 1.155-.7.28-1.4.245-2.1-.105-.7-.35-1.05-.98-1.05-1.89v-6.72c0-.7.105-1.365.315-1.995.28-.7.77-1.26 1.47-1.68 1.12-.63 2.45-1.155 3.99-1.575 1.61-.42 3.745-.63 6.405-.63 5.04 0 9.1.91 12.18 2.73 3.15 1.75 5.46 4.445 6.93 8.085 1.54 3.64 2.345 8.19 2.415 13.65V221.175c.07 1.54.07 2.66 0 3.36-.21 5.32-1.295 9.905-3.255 13.755-1.96 3.78-5.005 6.685-9.135 8.715-4.06 2.03-9.345 3.045-15.855 3.045zm38.823-1.05a2.43 2.43 0 0 1-1.785-.735c-.49-.49-.735-1.12-.735-1.89v-7.14c0-.77.245-1.4.735-1.89a2.43 2.43 0 0 1 1.785-.735h32.655v10.08c0 .7-.245 1.26-.735 1.68-.49.42-1.085.63-1.785.63h-30.135zm21.525 0c-.77 0-1.4-.245-1.89-.735-.42-.49-.665-1.12-.735-1.89l-1.575-32.34c-.14-2.8-.455-5.18-.945-7.14-.42-1.96-1.26-3.465-2.52-4.515-1.19-1.05-3.045-1.575-5.565-1.575h-5.04a2.43 2.43 0 0 1-1.785-.735c-.49-.49-.735-1.12-.735-1.89v-7.14c0-.7.245-1.295.735-1.785a2.43 2.43 0 0 1 1.785-.735h5.355c4.41 0 8.12.525 11.13 1.575 3.08 1.05 5.53 2.66 7.35 4.83 1.89 2.17 3.29 4.865 4.2 8.085.91 3.15 1.47 6.86 1.68 11.13l1.575 32.235c.07.77-.175 1.4-.735 1.89a2.43 2.43 0 0 1-1.785.735h-10.5zm54.082 0c-.77 0-1.4-.245-1.89-.735a2.43 2.43 0 0 1-.735-1.785v-31.185c0-4.48-1.12-7.91-3.36-10.29-2.17-2.38-5.635-3.57-10.395-3.57h-15.225a2.43 2.43 0 0 1-1.785-.735c-.49-.49-.735-1.12-.735-1.89v-7.14c0-.77.245-1.4.735-1.89a2.43 2.43 0 0 1 1.785-.735h15.855c6.23 0 11.445.875 15.645 2.625 4.2 1.75 7.35 4.515 9.45 8.295 2.1 3.71 3.15 8.61 3.15 14.7v31.71c0 .77-.245 1.4-.735 1.89a2.43 2.43 0 0 1-1.785.735h-9.975zm53.324 1.05c-9.8 0-16.975-2.31-21.525-6.93-4.55-4.62-6.825-10.99-6.825-19.11v-32.34c0-.77.245-1.4.735-1.89a2.43 2.43 0 0 1 1.785-.735h8.82c.77 0 1.4.245 1.89.735s.735 1.12.735 1.89v31.815c0 4.55 1.225 7.98 3.675 10.29 2.52 2.24 6.055 3.36 10.605 3.36 4.48 0 7.84-1.085 10.08-3.255s3.395-5.46 3.465-9.87c.07-.7.07-1.575 0-2.625v-3.36-2.73c-.07-4.55-.91-7.98-2.52-10.29-1.61-2.31-3.85-3.465-6.72-3.465-.98 0-2.1.175-3.36.525-1.26.28-2.31.665-3.15 1.155-.7.28-1.4.245-2.1-.105-.7-.35-1.05-.98-1.05-1.89v-6.72c0-.7.105-1.365.315-1.995.28-.7.77-1.26 1.47-1.68 1.12-.63 2.45-1.155 3.99-1.575 1.61-.42 3.745-.63 6.405-.63 5.04 0 9.1.91 12.18 2.73 3.15 1.75 5.46 4.445 6.93 8.085 1.54 3.64 2.345 8.19 2.415 13.65V221.175c.07 1.54.07 2.66 0 3.36-.21 5.32-1.295 9.905-3.255 13.755-1.96 3.78-5.005 6.685-9.135 8.715-4.06 2.03-9.345 3.045-15.855 3.045zm38.823-1.05a2.43 2.43 0 0 1-1.785-.735c-.49-.49-.735-1.12-.735-1.89v-7.14c0-.77.245-1.4.735-1.89a2.43 2.43 0 0 1 1.785-.735h32.655v10.08c0 .7-.245 1.26-.735 1.68-.49.42-1.085.63-1.785.63h-30.135zm21.525 0c-.77 0-1.4-.245-1.89-.735-.42-.49-.665-1.12-.735-1.89l-1.575-32.34c-.14-2.8-.455-5.18-.945-7.14-.42-1.96-1.26-3.465-2.52-4.515-1.19-1.05-3.045-1.575-5.565-1.575h-5.04a2.43 2.43 0 0 1-1.785-.735c-.49-.49-.735-1.12-.735-1.89v-7.14c0-.7.245-1.295.735-1.785a2.43 2.43 0 0 1 1.785-.735h5.355c4.41 0 8.12.525 11.13 1.575 3.08 1.05 5.53 2.66 7.35 4.83 1.89 2.17 3.29 4.865 4.2 8.085.91 3.15 1.47 6.86 1.68 11.13l1.575 32.235c.07.77-.175 1.4-.735 1.89a2.43 2.43 0 0 1-1.785.735h-10.5zm26.002-24.675c-.77 0-1.4-.245-1.89-.735s-.735-1.12-.735-1.89v-30.03c0-.77.245-1.4.735-1.89s1.12-.735 1.89-.735h10.5c.7 0 1.295.245 1.785.735s.735 1.12.735 1.89v30.03c0 .77-.245 1.4-.735 1.89a2.43 2.43 0 0 1-1.785.735h-10.5zM831.837 249c-1.05 0-1.855-.245-2.415-.735-.49-.56-.875-.98-1.155-1.26l-37.905-54.18c-.35-.49-.525-1.015-.525-1.575s.21-1.05.63-1.47c.42-.49.945-.735 1.575-.735h9.975c1.05 0 1.82.28 2.31.84.49.49.875.91 1.155 1.26l38.325 54.075c.28.35.455.665.525.945.07.21.105.42.105.63 0 .56-.245 1.085-.735 1.575-.42.42-.91.63-1.47.63h-10.395zm-40.11 0a2.43 2.43 0 0 1-1.785-.735c-.49-.56-.735-1.225-.735-1.995v-13.86c0-3.71.315-7.035.945-9.975.7-3.01 1.96-5.775 3.78-8.295 1.82-2.52 4.48-4.935 7.98-7.245l7.35 10.605c-1.96 1.33-3.43 2.87-4.41 4.62-.91 1.75-1.505 3.535-1.785 5.355-.28 1.75-.42 3.395-.42 4.935v13.86c0 .84-.245 1.505-.735 1.995a2.43 2.43 0 0 1-1.785.735h-8.4zm37.275-20.055l-7.14-10.5c2.59-1.26 4.41-2.625 5.46-4.095 1.05-1.47 1.68-2.975 1.89-4.515.28-1.61.42-3.185.42-4.725v-13.335c0-.84.245-1.505.735-1.995a2.43 2.43 0 0 1 1.785-.735h8.925c.7 0 1.295.28 1.785.84.49.49.735 1.12.735 1.89v13.755c0 2.87-.385 5.67-1.155 8.4-.7 2.73-2.1 5.355-4.2 7.875-2.03 2.52-5.11 4.9-9.24 7.14zM856.624 249c-.77 0-1.4-.245-1.89-.735s-.735-1.12-.735-1.89v-7.14c0-.77.245-1.4.735-1.89s1.12-.735 1.89-.735h27.51v-21.315c0-4.41-1.12-7.805-3.36-10.185-2.17-2.45-5.635-3.675-10.395-3.675h-12.705c-.77 0-1.4-.245-1.89-.735a2.43 2.43 0 0 1-.735-1.785v-7.245c0-.77.245-1.4.735-1.89s1.12-.735 1.89-.735h13.23c6.23 0 11.48.91 15.75 2.73 4.27 1.82 7.525 4.655 9.765 8.505 2.24 3.78 3.36 8.75 3.36 14.91v21.42h3.675c.77 0 1.4.245 1.89.735s.735 1.12.735 1.89v7.14c0 .77-.245 1.4-.735 1.89s-1.12.735-1.89.735h-46.83zm114.061-11.55c3.92 0 7.35-.77 10.29-2.31 2.94-1.61 5.18-3.815 6.72-6.615 1.61-2.8 2.415-5.95 2.415-9.45v-27.51c0-.7.245-1.295.735-1.785.56-.49 1.19-.735 1.89-.735h8.925c.7 0 1.3.245 1.79.735s.73 1.12.73 1.89v28.035c0 4.62-.77 8.82-2.31 12.6-1.54 3.71-3.745 6.895-6.615 9.555-2.8 2.59-6.055 4.585-9.765 5.985-3.71 1.4-7.77 2.065-12.18 1.995h-9.345c-5.39 0-10.08-1.085-14.07-3.255-3.92-2.24-6.965-5.215-9.135-8.925-2.17-3.71-3.255-7.875-3.255-12.495V191.67c0-.77.245-1.4.735-1.89s1.12-.735 1.89-.735h8.82c.77 0 1.4.245 1.89.735s.735 1.085.735 1.785l.21 27.405c0 5.95 1.54 10.535 4.62 13.755 3.08 3.15 6.93 4.725 11.55 4.725h2.73zm-20.79-8.505l-.105-10.605c3.78-.07 6.685-.735 8.715-1.995 2.1-1.33 3.57-3.185 4.41-5.565.84-2.38 1.26-5.145 1.26-8.295v-10.71c0-.84.245-1.505.735-1.995a2.43 2.43 0 0 1 1.785-.735h8.82c.77 0 1.4.28 1.89.84.49.49.735 1.12.735 1.89V202.8c0 5.39-1.085 10.045-3.255 13.965s-5.355 6.965-9.555 9.135c-4.2 2.1-9.345 3.115-15.435 3.045zM1019.3 249c-.77 0-1.4-.245-1.89-.735s-.73-1.12-.73-1.89V191.67c0-.77.24-1.4.73-1.89s1.12-.735 1.89-.735h10.5c.7 0 1.3.245 1.79.735s.73 1.12.73 1.89v54.705c0 .77-.24 1.4-.73 1.89s-1.09.735-1.79.735h-10.5zm38.78-47.04v5.145c.07 1.75.31 3.185.73 4.305.49 1.12 1.26 1.855 2.31 2.205l3.26.945c.56.21.98.63 1.26 1.26.35.56.52 1.225.52 1.995v4.515c0 .98-.45 1.715-1.36 2.205-.84.49-1.86.665-3.05.525l-4.3-.735a13.588 13.588 0 0 1-6.2-2.835c-1.75-1.54-3.15-3.605-4.2-6.195-1.05-2.59-1.57-5.635-1.57-9.135v-14.49c.07-.77.31-1.4.73-1.89.49-.49 1.12-.735 1.89-.735h20.58c6.09 0 11.06 1.085 14.91 3.255 3.85 2.17 6.72 5.25 8.61 9.24 1.96 3.99 3.05 8.715 3.26 14.175.07 1.05.1 2.17.1 3.36 0 1.12-.03 2.205-.1 3.255-.21 5.39-1.3 10.115-3.26 14.175-1.89 3.99-4.76 7.07-8.61 9.24-3.85 2.17-8.82 3.255-14.91 3.255h-19.32c-.77 0-1.4-.245-1.89-.735s-.73-1.12-.73-1.89v-7.77c0-.7.24-1.295.73-1.785s1.12-.735 1.89-.735h18.8c3.99 0 7.17-1.19 9.55-3.57 2.45-2.45 3.78-5.88 3.99-10.29.07-1.05.11-2.1.11-3.15 0-1.12-.04-2.205-.11-3.255-.14-4.48-1.43-7.91-3.88-10.29-2.45-2.38-5.67-3.57-9.66-3.57h-10.08zm50.93 22.365c-.77 0-1.4-.245-1.89-.735s-.73-1.12-.73-1.89v-30.03c0-.77.24-1.4.73-1.89s1.12-.735 1.89-.735h10.5c.7 0 1.3.245 1.79.735s.73 1.12.73 1.89v30.03c0 .77-.24 1.4-.73 1.89s-1.09.735-1.79.735h-10.5zM1137.74 249c-.77 0-1.4-.245-1.89-.735s-.74-1.12-.74-1.89V191.67c0-.77.25-1.4.74-1.89s1.12-.735 1.89-.735h23.41c6.3 0 11.55.91 15.75 2.73 4.2 1.75 7.35 4.55 9.45 8.4 2.1 3.85 3.15 8.855 3.15 15.015v31.185c0 .77-.24 1.4-.73 1.89s-1.12.735-1.89.735h-9.98c-.7 0-1.29-.245-1.78-.735a2.435 2.435 0 0 1-.74-1.785v-31.185c0-4.48-1.12-7.91-3.36-10.29-2.17-2.38-5.63-3.57-10.39-3.57h-10.4v44.94c0 .77-.24 1.4-.73 1.89s-1.09.735-1.79.735h-9.97zm90.01-24.675c-.77 0-1.4-.245-1.89-.735s-.73-1.12-.73-1.89v-30.03c0-.77.24-1.4.73-1.89s1.12-.735 1.89-.735h10.5c.7 0 1.3.245 1.79.735s.73 1.12.73 1.89v30.03c0 .77-.24 1.4-.73 1.89s-1.09.735-1.79.735h-10.5zm26.21 30.555c-.77.14-1.47-.035-2.1-.525-.56-.42-.84-.98-.84-1.68v-7.35c0-.7.17-1.295.52-1.785.42-.56.98-.945 1.68-1.155l22.79-6.09c3.92-1.05 6.93-2.415 9.03-4.095 2.1-1.75 3.53-3.85 4.3-6.3.77-2.45 1.16-5.25 1.16-8.4v-25.935c0-.7.24-1.295.73-1.785s1.09-.735 1.79-.735h9.97c.77 0 1.4.245 1.89.735s.74 1.12.74 1.89v30.45c0 4.41-1.05 8.435-3.15 12.075-2.03 3.57-5.01 6.615-8.93 9.135-3.85 2.45-8.5 4.235-13.96 5.355l-25.62 6.195zm13.54-8.4l-14.8-53.235c-.14-.56-.28-.98-.42-1.26a3.46 3.46 0 0 1-.11-.84c0-.56.21-1.05.63-1.47.42-.42.91-.63 1.47-.63h11.03c1.33 0 2.13.525 2.41 1.575l13.44 53.445-13.65 2.415zm53.78 2.52c-.77 0-1.4-.245-1.89-.735s-.73-1.12-.73-1.89V191.67c0-.77.24-1.4.73-1.89s1.12-.735 1.89-.735h10.5c.7 0 1.3.245 1.79.735s.73 1.12.73 1.89v54.705c0 .77-.24 1.4-.73 1.89s-1.09.735-1.79.735h-10.5zm26.6 0c-.7 0-1.3-.245-1.79-.735s-.73-1.12-.73-1.89v-7.14c0-.77.24-1.4.73-1.89s1.09-.735 1.79-.735h32.65v10.08c0 .7-.24 1.26-.73 1.68-.49.42-1.09.63-1.79.63h-30.13zm21.52 0c-.77 0-1.4-.245-1.89-.735-.42-.49-.66-1.12-.73-1.89l-1.58-32.34c-.14-2.8-.45-5.18-.94-7.14-.42-1.96-1.26-3.465-2.52-4.515-1.19-1.05-3.05-1.575-5.57-1.575h-5.04c-.7 0-1.29-.245-1.78-.735s-.74-1.12-.74-1.89v-7.14c0-.7.25-1.295.74-1.785s1.08-.735 1.78-.735h5.36c4.41 0 8.12.525 11.13 1.575 3.08 1.05 5.53 2.66 7.35 4.83 1.89 2.17 3.29 4.865 4.2 8.085.91 3.15 1.47 6.86 1.68 11.13l1.57 32.235c.07.77-.17 1.4-.73 1.89-.49.49-1.09.735-1.79.735h-10.5zm54.35-47.04h-29.29c-.77 0-1.4-.245-1.89-.735a2.435 2.435 0 0 1-.74-1.785v-7.77c0-.77.25-1.4.74-1.89s1.12-.735 1.89-.735h31.39c4.62 0 8.72.945 12.29 2.835 3.64 1.82 6.47 4.655 8.5 8.505 2.1 3.78 3.15 8.54 3.15 14.28v31.71c0 .77-.24 1.4-.73 1.89s-1.12.735-1.89.735h-28.04c-.77 0-1.4-.245-1.89-.735s-.73-1.12-.73-1.89v-7.14c0-.77.24-1.4.73-1.89s1.12-.735 1.89-.735h15.54v-21.105c0-2.87-.49-5.32-1.47-7.35-.91-2.03-2.2-3.57-3.88-4.62-1.61-1.05-3.47-1.575-5.57-1.575zM1393.51 249c-.7 0-1.29-.245-1.78-.735-.49-.56-.67-1.19-.53-1.89l10.5-47.985c.14-.7.46-1.26.95-1.68.49-.49 1.08-.7 1.78-.63l8.4.105c.77.07 1.4.42 1.89 1.05.49.56.67 1.19.53 1.89l-9.24 47.25c-.07.7-.39 1.33-.95 1.89-.49.49-1.08.735-1.78.735h-9.77z" fill="#000"/><path d="M1239 693.5c0-161.548-130.95-292.5-292.5-292.5C784.952 401 654 531.952 654 693.5S784.952 986 946.5 986" stroke="#000" stroke-width="46" stroke-linecap="round" stroke-linejoin="round"/><path d="M975.781 402.484s87.749 115.538 87.749 291.038M917.281 984.559s-87.75-115.537-87.75-291.037c0-175.5 87.75-291.038 87.75-291.038M672.459 795.897h274.072m-274.072-204.75H1220.6" stroke="#000" stroke-width="50" stroke-linecap="round" stroke-linejoin="round"/><path d="M1235.47 866.589c14.45 8.892 13.54 30.508-1.32 32.204l-75.08 8.512-33.67 67.626c-6.67 13.426-27.29 6.845-30.71-9.769l-36.71-178.893c-2.9-14.04 9.74-22.874 21.94-15.357l155.55 95.677z" stroke="#000" stroke-width="46"/><defs><linearGradient id="paint0_linear_549_57" x1="181.828" x2="1460.45" y2="1644.15" gradientUnits="userSpaceOnUse"><stop stop-color="#D6C8FF"/><stop offset=".99" stop-color="#EFAE9F"/></linearGradient></defs></svg>