<svg width="2880" height="1728" fill="none" xmlns="http://www.w3.org/2000/svg"><g clip-path="url(#clip0_265_2447)"><path fill="url(#paint0_linear_265_2447)" d="M0 0h2880v1728H0z"/><path d="M-55 588.954v-69.176c0-108.381 606.231-143.461 909.347-147.453C938.809 308.853 2288.44 453.643 2935 602.843v134.135c0 6.841-6.24 11.869-12.85 10.109-200.52-53.39-1328.82-129.857-1928.318-227.309-332.781-54.095-770.203-6.854-1035.745 78.767-6.5 2.096-13.087-2.761-13.087-9.591z" fill="#EBF4FF"/><path d="M645.766 464.479L2880 621V0H0v508.599c250.33-76.194 507.346-62.328 645.766-44.12z" fill="url(#paint1_diamond_265_2447)"/><g clip-path="url(#clip1_265_2447)"><g clip-path="url(#clip2_265_2447)"><path opacity=".3" d="M520 1135.81h64.088l16.022-42.61h82.78l16.022 42.61H763l-90.791-237.003h-64.088L520 1135.81zm120.165-170.43l26.703 82.55h-53.406l26.703-82.55z" fill="url(#paint2_linear_265_2447)"/><g opacity=".5"><path opacity=".6" d="M1182.42 613H731.323v133.136h56.387v-79.882h394.71c16.92 0 28.19 10.651 28.19 26.628v292.899c0 15.979-11.27 26.629-28.19 26.629H815.903v186.39H666.478l-104.317 77.22v-77.22h-84.58c-16.916 0-28.194-10.65-28.194-26.63V879.272c0-15.976 11.278-26.627 28.194-26.627h366.516V799.39H477.581c-47.929 0-84.581 34.616-84.581 79.882v292.898c0 45.27 36.652 79.88 84.581 79.88h28.193v135.8l177.62-135.8h188.897v-186.39h310.129c47.93 0 84.58-34.61 84.58-79.879V692.882c0-45.267-36.65-79.882-84.58-79.882z" fill="url(#paint3_linear_265_2447)"/><path opacity=".5" d="M926.89 965.266V710.72h101.92c18.72 0 34.34 2.776 46.85 8.327 12.52 5.552 21.92 13.258 28.22 23.118 6.3 9.778 9.44 21.047 9.44 33.807 0 9.943-1.98 18.685-5.96 26.225-3.98 7.458-9.45 13.589-16.41 18.395-6.87 4.723-14.75 8.079-23.61 10.068v2.485c9.69.415 18.77 3.149 27.22 8.204 8.53 5.054 15.45 12.139 20.75 21.253 5.31 9.032 7.96 19.804 7.96 32.315 0 13.507-3.36 25.563-10.07 36.169-6.63 10.523-16.45 18.85-29.46 24.982-13.01 6.132-29.04 9.198-48.1 9.198H926.89zm53.818-43.999h43.872c15 0 25.94-2.859 32.81-8.576 6.88-5.8 10.32-13.506 10.32-23.118 0-7.043-1.7-13.258-5.1-18.643-3.39-5.386-8.24-9.612-14.54-12.678-6.21-3.066-13.63-4.599-22.25-4.599h-45.112v67.614zm0-104.031h39.892c7.38 0 13.93-1.284 19.64-3.853 5.8-2.651 10.36-6.38 13.67-11.186 3.4-4.806 5.1-10.564 5.1-17.276 0-9.197-3.27-16.613-9.82-22.248-6.46-5.634-15.66-8.452-27.59-8.452h-40.892v63.015z" fill="url(#paint4_linear_265_2447)"/></g></g><ellipse opacity=".6" cx="2488" cy="1174" rx="199" ry="210" fill="#AE9FE8"/><ellipse cx="2667.5" cy="1075.5" rx="105.5" ry="111.5" fill="#AE9CEC" fill-opacity=".8"/><ellipse cx="142" cy="305.5" rx="92" ry="97.5" fill="#E4B9C4"/><ellipse cx="292" cy="253" rx="112" ry="119" fill="#F2CCD2" fill-opacity=".32"/></g></g><defs><linearGradient id="paint0_linear_265_2447" x1="322.5" y1="142" x2="1281" y2="1198" gradientUnits="userSpaceOnUse"><stop stop-color="#E8B2B5"/><stop offset="1" stop-color="#AFA5F2"/></linearGradient><radialGradient id="paint1_diamond_265_2447" cx="0" cy="0" r="1" gradientUnits="userSpaceOnUse" gradientTransform="rotate(11.301 278.462 -355.492) scale(3152.61 5780.12)"><stop stop-color="#F3B2AB"/><stop offset="0" stop-color="#EBB3B0"/><stop offset="1" stop-color="#AAA4F6"/></radialGradient><linearGradient id="paint2_linear_265_2447" x1="520" y1="1135.81" x2="729.944" y2="938.96" gradientUnits="userSpaceOnUse"><stop stop-color="#2D39D7"/><stop offset=".661" stop-color="#6648E2"/><stop offset="1" stop-color="#AD5BF0"/></linearGradient><linearGradient id="paint3_linear_265_2447" x1="393" y1="1387.85" x2="1080.49" y2="678.723" gradientUnits="userSpaceOnUse"><stop stop-color="#2D39D7"/><stop offset=".661" stop-color="#6648E2"/><stop offset="1" stop-color="#AD5BF0"/></linearGradient><linearGradient id="paint4_linear_265_2447" x1="894.504" y1="1037.09" x2="1198.79" y2="873.403" gradientUnits="userSpaceOnUse"><stop stop-color="#2D39D7"/><stop offset=".661" stop-color="#6648E2"/><stop offset="1" stop-color="#AD5BF0"/></linearGradient><clipPath id="clip0_265_2447"><path fill="#fff" d="M0 0h2880v1728H0z"/></clipPath><clipPath id="clip1_265_2447"><path fill="#fff" d="M0 0h2880v1728H0z"/></clipPath><clipPath id="clip2_265_2447"><path fill="#fff" transform="translate(363 597)" d="M0 0h934v934H0z"/></clipPath></defs></svg>