<svg width="2880" height="1728" fill="none" xmlns="http://www.w3.org/2000/svg"><g clip-path="url(#clip0_265_2445)"><path fill="url(#paint0_linear_265_2445)" d="M0 0h2880v1728H0z"/><path d="M-55 588.954v-69.176c0-108.381 606.231-143.461 909.347-147.453C938.809 308.853 2288.44 453.643 2935 602.843v134.135c0 6.841-6.24 11.869-12.85 10.109-200.52-53.39-1328.82-129.857-1928.318-227.309-332.781-54.095-770.203-6.854-1035.745 78.767-6.5 2.096-13.087-2.761-13.087-9.591z" fill="#EBF4FF"/><path d="M645.766 464.479L2880 621V0H0v508.599c250.33-76.194 507.346-62.328 645.766-44.12z" fill="url(#paint1_diamond_265_2445)"/><g clip-path="url(#clip1_265_2445)"><g clip-path="url(#clip2_265_2445)"><path opacity=".3" d="M316 1260.23h68.308l17.077-45.48h88.23l17.077 45.48H575l-96.769-253h-68.308l-93.923 253zm128.077-181.93l28.461 88.12h-56.923l28.462-88.12z" fill="url(#paint2_linear_265_2445)"/><g opacity=".5"><path opacity=".6" d="M1023.61 693H541.549v142.276h60.258V749.91h421.803c18.08 0 30.13 11.382 30.13 28.455v313.005c0 17.08-12.05 28.46-30.13 28.46H631.936v199.18H472.252l-111.478 82.52v-82.52h-90.387c-18.077 0-30.129-11.38-30.129-28.45V977.552c0-17.074 12.052-28.456 30.129-28.456h391.678v-56.91H270.387c-51.219 0-90.387 36.992-90.387 85.366v313.008c0 48.37 39.168 85.36 90.387 85.36h30.129v145.13l189.813-145.13h201.865v-199.18h331.416c51.22 0 90.39-36.99 90.39-85.37V778.365c0-48.373-39.17-85.365-90.39-85.365z" fill="url(#paint3_linear_265_2445)"/><path opacity=".5" d="M765.976 1059V804.455h101.918c18.726 0 34.345 2.775 46.857 8.327s21.916 13.258 28.214 23.118c6.297 9.777 9.446 21.046 9.446 33.807 0 9.943-1.989 18.685-5.966 26.225-3.977 7.457-9.446 13.589-16.406 18.395-6.878 4.723-14.749 8.079-23.615 10.067v2.486c9.694.414 18.767 3.149 27.219 8.203 8.535 5.055 15.453 12.139 20.756 21.254 5.303 9.031 7.955 19.803 7.955 32.315 0 13.508-3.356 25.558-10.068 36.168-6.628 10.52-16.447 18.85-29.456 24.98-13.009 6.13-29.043 9.2-48.1 9.2H765.976zm53.818-44h43.874c14.997 0 25.935-2.86 32.812-8.57 6.878-5.8 10.316-13.511 10.316-23.122 0-7.044-1.698-13.258-5.096-18.644-3.397-5.386-8.244-9.612-14.541-12.677-6.215-3.066-13.631-4.599-22.248-4.599h-45.117V1015zm0-104.029h39.897c7.374 0 13.92-1.284 19.637-3.853 5.801-2.652 10.358-6.38 13.672-11.186 3.397-4.806 5.096-10.565 5.096-17.276 0-9.198-3.273-16.614-9.819-22.248-6.463-5.635-15.66-8.452-27.592-8.452h-40.891v63.015z" fill="url(#paint4_linear_265_2445)"/></g></g><ellipse opacity=".6" cx="2579" cy="1422" rx="199" ry="210" fill="#AE9FE8"/><ellipse cx="2758.5" cy="1323.5" rx="105.5" ry="111.5" fill="#AE9CEC" fill-opacity=".8"/><ellipse cx="2773.5" cy="430" rx="72.5" ry="73" fill="#AE9CEC"/><ellipse cx="2683" cy="484" rx="79" ry="84" fill="#9F80BF" fill-opacity=".16"/><ellipse cx="2773.5" cy="515" rx="39.5" ry="42" fill="#AE9CEC" fill-opacity=".6"/><ellipse cx="142" cy="305.5" rx="92" ry="97.5" fill="#E4B9C4"/><ellipse cx="292" cy="253" rx="112" ry="119" fill="#F2CCD2" fill-opacity=".32"/></g></g><defs><linearGradient id="paint0_linear_265_2445" x1="322.5" y1="142" x2="1281" y2="1198" gradientUnits="userSpaceOnUse"><stop stop-color="#E8B2B5"/><stop offset="1" stop-color="#AFA5F2"/></linearGradient><radialGradient id="paint1_diamond_265_2445" cx="0" cy="0" r="1" gradientUnits="userSpaceOnUse" gradientTransform="rotate(11.301 278.462 -355.492) scale(3152.61 5780.12)"><stop stop-color="#F3B2AB"/><stop offset="0" stop-color="#EBB3B0"/><stop offset="1" stop-color="#AAA4F6"/></radialGradient><linearGradient id="paint2_linear_265_2445" x1="316" y1="1260.23" x2="540.094" y2="1050.44" gradientUnits="userSpaceOnUse"><stop stop-color="#2D39D7"/><stop offset=".661" stop-color="#6648E2"/><stop offset="1" stop-color="#AD5BF0"/></linearGradient><linearGradient id="paint3_linear_265_2445" x1="180" y1="1521.05" x2="914.683" y2="763.234" gradientUnits="userSpaceOnUse"><stop stop-color="#2D39D7"/><stop offset=".661" stop-color="#6648E2"/><stop offset="1" stop-color="#AD5BF0"/></linearGradient><linearGradient id="paint4_linear_265_2445" x1="717" y1="1159.02" x2="1042.17" y2="984.104" gradientUnits="userSpaceOnUse"><stop stop-color="#2D39D7"/><stop offset=".661" stop-color="#6648E2"/><stop offset="1" stop-color="#AD5BF0"/></linearGradient><clipPath id="clip0_265_2445"><path fill="#fff" d="M0 0h2880v1728H0z"/></clipPath><clipPath id="clip1_265_2445"><path fill="#fff" d="M0 0h2880v1728H0z"/></clipPath><clipPath id="clip2_265_2445"><path fill="#fff" transform="translate(180 587)" d="M0 0h934v934H0z"/></clipPath></defs></svg>