<svg width="1932" height="1192" fill="none" xmlns="http://www.w3.org/2000/svg"><rect width="1931.21" height="1191.72" rx="10" fill="url(#paint0_linear_549_58)"/><ellipse cx="801.422" cy="664.871" rx="390.257" ry="414.649" fill="#E1DBF3" fill-opacity=".33"/><ellipse cx="1188.19" cy="734.558" rx="324.053" ry="303.146" fill="#C5B9E9" fill-opacity=".4"/><path d="M476.757 237.45c3.92 0 7.35-.77 10.29-2.31 2.94-1.61 5.18-3.815 6.72-6.615 1.61-2.8 2.415-5.95 2.415-9.45v-27.51c0-.7.245-1.295.735-1.785.56-.49 1.19-.735 1.89-.735h8.925c.7 0 1.295.245 1.785.735s.735 1.12.735 1.89v28.035c0 4.62-.77 8.82-2.31 12.6-1.54 3.71-3.745 6.895-6.615 9.555-2.8 2.59-6.055 4.585-9.765 5.985-3.71 1.4-7.77 2.065-12.18 1.995h-9.345c-5.39 0-10.08-1.085-14.07-3.255-3.92-2.24-6.965-5.215-9.135-8.925-2.17-3.71-3.255-7.875-3.255-12.495V191.67c0-.77.245-1.4.735-1.89s1.12-.735 1.89-.735h8.82c.77 0 1.4.245 1.89.735s.735 1.085.735 1.785l.21 27.405c0 5.95 1.54 10.535 4.62 13.755 3.08 3.15 6.93 4.725 11.55 4.725h2.73zm-20.79-8.505l-.105-10.605c3.78-.07 6.685-.735 8.715-1.995 2.1-1.33 3.57-3.185 4.41-5.565.84-2.38 1.26-5.145 1.26-8.295v-10.71c0-.84.245-1.505.735-1.995a2.43 2.43 0 0 1 1.785-.735h8.82c.77 0 1.4.28 1.89.84.49.49.735 1.12.735 1.89V202.8c0 5.39-1.085 10.045-3.255 13.965s-5.355 6.965-9.555 9.135c-4.2 2.1-9.345 3.115-15.435 3.045zM525.375 249c-.77 0-1.4-.245-1.89-.735s-.735-1.12-.735-1.89V191.67c0-.77.245-1.4.735-1.89s1.12-.735 1.89-.735h10.5c.7 0 1.295.245 1.785.735s.735 1.12.735 1.89v54.705c0 .77-.245 1.4-.735 1.89a2.43 2.43 0 0 1-1.785.735h-10.5zm38.776-47.04v5.145c.07 1.75.315 3.185.735 4.305.49 1.12 1.26 1.855 2.31 2.205l3.255.945c.56.21.98.63 1.26 1.26.35.56.525 1.225.525 1.995v4.515c0 .98-.455 1.715-1.365 2.205-.84.49-1.855.665-3.045.525l-4.305-.735a13.57 13.57 0 0 1-6.195-2.835c-1.75-1.54-3.15-3.605-4.2-6.195-1.05-2.59-1.575-5.635-1.575-9.135v-14.49c.07-.77.315-1.4.735-1.89.49-.49 1.12-.735 1.89-.735h20.58c6.09 0 11.06 1.085 14.91 3.255 3.85 2.17 6.72 5.25 8.61 9.24 1.96 3.99 3.045 8.715 3.255 14.175.07 1.05.105 2.17.105 3.36 0 1.12-.035 2.205-.105 3.255-.21 5.39-1.295 10.115-3.255 14.175-1.89 3.99-4.76 7.07-8.61 9.24-3.85 2.17-8.82 3.255-14.91 3.255h-19.32c-.77 0-1.4-.245-1.89-.735s-.735-1.12-.735-1.89v-7.77c0-.7.245-1.295.735-1.785s1.12-.735 1.89-.735h18.795c3.99 0 7.175-1.19 9.555-3.57 2.45-2.45 3.78-5.88 3.99-10.29a48.954 48.954 0 0 0 0-6.405c-.14-4.48-1.435-7.91-3.885-10.29-2.45-2.38-5.67-3.57-9.66-3.57h-10.08zm50.933 22.365c-.77 0-1.4-.245-1.89-.735s-.735-1.12-.735-1.89v-30.03c0-.77.245-1.4.735-1.89s1.12-.735 1.89-.735h10.5c.7 0 1.295.245 1.785.735s.735 1.12.735 1.89v30.03c0 .77-.245 1.4-.735 1.89a2.43 2.43 0 0 1-1.785.735h-10.5zM643.807 249c-.77 0-1.4-.245-1.89-.735s-.735-1.12-.735-1.89V191.67c0-.77.245-1.4.735-1.89s1.12-.735 1.89-.735h23.415c6.3 0 11.55.91 15.75 2.73 4.2 1.75 7.35 4.55 9.45 8.4 2.1 3.85 3.15 8.855 3.15 15.015v31.185c0 .77-.245 1.4-.735 1.89s-1.12.735-1.89.735h-9.975a2.43 2.43 0 0 1-1.785-.735 2.43 2.43 0 0 1-.735-1.785v-31.185c0-4.48-1.12-7.91-3.36-10.29-2.17-2.38-5.635-3.57-10.395-3.57h-10.395v44.94c0 .77-.245 1.4-.735 1.89a2.43 2.43 0 0 1-1.785.735h-9.975zm106.219 0a2.43 2.43 0 0 1-1.785-.735 2.43 2.43 0 0 1-.735-1.785v-31.185c0-4.48-1.12-7.91-3.36-10.29-2.17-2.38-5.635-3.57-10.395-3.57h-22.575c-.77 0-1.4-.245-1.89-.735s-.735-1.12-.735-1.89v-7.14c0-.77.245-1.4.735-1.89s1.12-.735 1.89-.735h23.1c9.31 0 16.345 2.135 21.105 6.405 4.83 4.27 7.245 10.85 7.245 19.74v31.185c0 .77-.245 1.4-.735 1.89s-1.12.735-1.89.735h-9.975zm-38.85 0c-.77 0-1.4-.245-1.89-.735s-.735-1.12-.735-1.89V214.35c0-.7.245-1.295.735-1.785.49-.56 1.12-.84 1.89-.84h9.975c.7 0 1.295.28 1.785.84.49.49.735 1.085.735 1.785v32.025c0 .77-.245 1.4-.735 1.89a2.43 2.43 0 0 1-1.785.735h-9.975zm92.229-47.565c-.77 0-1.4-.245-1.89-.735s-.735-1.12-.735-1.89v-7.14c0-.77.245-1.4.735-1.89s1.12-.735 1.89-.735H830.6c6.23 0 11.445.91 15.645 2.73 4.2 1.82 7.35 4.62 9.45 8.4 2.1 3.78 3.15 8.645 3.15 14.595v31.605c0 .77-.245 1.4-.735 1.89a2.43 2.43 0 0 1-1.785.735h-9.975c-.77 0-1.4-.245-1.89-.735a2.43 2.43 0 0 1-.735-1.785v-31.185c0-4.48-1.085-7.91-3.255-10.29-2.17-2.38-5.67-3.57-10.5-3.57h-26.565zm12.075-6.72h4.2c1.68 0 2.835.35 3.465 1.05.7.7.945 1.47.735 2.31-.63 2.38-1.155 4.655-1.575 6.825-.42 2.1-.7 4.235-.84 6.405-.14 2.1-.21 4.515-.21 7.245l.63 27.825c0 .77-.245 1.4-.735 1.89s-1.12.735-1.89.735l-19.95-.105a2.43 2.43 0 0 1-1.785-.735c-.49-.49-.735-1.12-.735-1.89v-6.615c0-.77.245-1.4.735-1.89a2.43 2.43 0 0 1 1.785-.735l8.4.105V218.76c0-2.45.035-4.76.105-6.93.14-2.17.385-4.375.735-6.615.42-2.24 1.015-4.62 1.785-7.14.35-.91.875-1.68 1.575-2.31.7-.7 1.89-1.05 3.57-1.05zM874.52 249c-.77 0-1.4-.245-1.89-.735s-.735-1.12-.735-1.89V191.67c0-.77.245-1.4.735-1.89s1.12-.735 1.89-.735h10.5c.7 0 1.295.245 1.785.735s.735 1.12.735 1.89v54.705c0 .77-.245 1.4-.735 1.89a2.43 2.43 0 0 1-1.785.735h-10.5zm67.651 0c-1.05 0-1.855-.245-2.415-.735-.49-.56-.875-.98-1.155-1.26l-37.905-54.18c-.35-.49-.525-1.015-.525-1.575s.21-1.05.63-1.47c.42-.49.945-.735 1.575-.735h9.975c1.05 0 1.82.28 2.31.84.49.49.875.91 1.155 1.26l38.325 54.075c.28.35.455.665.525.945.07.21.105.42.105.63 0 .56-.245 1.085-.735 1.575-.42.42-.91.63-1.47.63h-10.395zm-40.11 0a2.43 2.43 0 0 1-1.785-.735c-.49-.56-.735-1.225-.735-1.995v-13.86c0-3.71.315-7.035.945-9.975.7-3.01 1.96-5.775 3.78-8.295 1.82-2.52 4.48-4.935 7.98-7.245l7.35 10.605c-1.96 1.33-3.43 2.87-4.41 4.62-.91 1.75-1.505 3.535-1.785 5.355-.28 1.75-.42 3.395-.42 4.935v13.86c0 .84-.245 1.505-.735 1.995a2.43 2.43 0 0 1-1.785.735h-8.4zm37.275-20.055l-7.14-10.5c2.59-1.26 4.41-2.625 5.46-4.095 1.05-1.47 1.68-2.975 1.89-4.515.28-1.61.42-3.185.42-4.725v-13.335c0-.84.245-1.505.735-1.995a2.43 2.43 0 0 1 1.785-.735h8.925c.7 0 1.295.28 1.785.84.49.49.735 1.12.735 1.89v13.755c0 2.87-.385 5.67-1.155 8.4-.7 2.73-2.1 5.355-4.2 7.875-2.03 2.52-5.11 4.9-9.24 7.14zM968.429 249c-.77 0-1.4-.245-1.89-.735s-.735-1.12-.735-1.89v-7.455c0-.7.245-1.295.735-1.785.49-.56 1.12-.84 1.89-.84h25.83l-31.29-43.365c-.14-.35-.28-.665-.42-.945-.14-.28-.21-.56-.21-.84 0-.63.21-1.12.63-1.47.49-.42 1.015-.63 1.575-.63h10.5c.91 0 1.61.245 2.1.735.49.42.84.805 1.05 1.155l32.546 45.255c.35.42.67.91.95 1.47.28.49.42 1.12.42 1.89v6.825c0 .77-.25 1.4-.74 1.89s-1.12.735-1.89.735h-41.051zm31.711-24.57l-7.561-10.29c2.87-1.47 4.865-3.535 5.985-6.195s1.676-5.775 1.676-9.345v-6.825c0-.84.25-1.505.74-1.995.56-.49 1.19-.735 1.89-.735h8.92c.7 0 1.3.28 1.79.84.49.49.73 1.12.73 1.89v9.45c0 5.11-1.22 9.695-3.67 13.755-2.38 3.99-5.88 7.14-10.5 9.45zm29.01 24.57c-.77 0-1.4-.245-1.89-.735s-.74-1.12-.74-1.89V191.67c0-.77.25-1.4.74-1.89s1.12-.735 1.89-.735h10.5c.7 0 1.29.245 1.78.735s.74 1.12.74 1.89v54.705c0 .77-.25 1.4-.74 1.89s-1.08.735-1.78.735h-10.5zm31.32-47.565c-.77 0-1.4-.245-1.89-.735s-.73-1.12-.73-1.89v-7.14c0-.77.24-1.4.73-1.89s1.12-.735 1.89-.735h27.2c6.23 0 11.44.91 15.64 2.73 4.2 1.82 7.35 4.62 9.45 8.4 2.1 3.78 3.15 8.645 3.15 14.595v31.605c0 .77-.24 1.4-.73 1.89s-1.09.735-1.79.735h-9.97c-.77 0-1.4-.245-1.89-.735a2.435 2.435 0 0 1-.74-1.785v-31.185c0-4.48-1.08-7.91-3.25-10.29-2.17-2.38-5.67-3.57-10.5-3.57h-26.57zm12.08-6.72h4.2c1.68 0 2.83.35 3.46 1.05.7.7.95 1.47.74 2.31-.63 2.38-1.16 4.655-1.58 6.825-.42 2.1-.7 4.235-.84 6.405-.14 2.1-.21 4.515-.21 7.245l.63 27.825c0 .77-.24 1.4-.73 1.89s-1.12.735-1.89.735l-19.95-.105c-.7 0-1.3-.245-1.79-.735s-.73-1.12-.73-1.89v-6.615c0-.77.24-1.4.73-1.89s1.09-.735 1.79-.735l8.4.105V218.76c0-2.45.03-4.76.1-6.93.14-2.17.39-4.375.74-6.615.42-2.24 1.01-4.62 1.78-7.14.35-.91.88-1.68 1.58-2.31.7-.7 1.89-1.05 3.57-1.05zm84.2 6.72c-.77 0-1.4-.245-1.89-.735s-.73-1.12-.73-1.89v-7.14c0-.77.24-1.4.73-1.89s1.12-.735 1.89-.735h27.2c6.23 0 11.44.91 15.64 2.73 4.2 1.82 7.35 4.62 9.45 8.4 2.1 3.78 3.15 8.645 3.15 14.595v31.605c0 .77-.24 1.4-.73 1.89s-1.09.735-1.79.735h-9.97c-.77 0-1.4-.245-1.89-.735a2.435 2.435 0 0 1-.74-1.785v-31.185c0-4.48-1.08-7.91-3.25-10.29-2.17-2.38-5.67-3.57-10.5-3.57h-26.57zm12.08-6.72h4.2c1.68 0 2.83.35 3.46 1.05.7.7.95 1.47.74 2.31-.63 2.38-1.16 4.655-1.58 6.825-.42 2.1-.7 4.235-.84 6.405-.14 2.1-.21 4.515-.21 7.245l.63 27.825c0 .77-.24 1.4-.73 1.89s-1.12.735-1.89.735l-19.95-.105c-.7 0-1.3-.245-1.79-.735s-.73-1.12-.73-1.89v-6.615c0-.77.24-1.4.73-1.89s1.09-.735 1.79-.735l8.4.105V218.76c0-2.45.03-4.76.1-6.93.14-2.17.39-4.375.74-6.615.42-2.24 1.01-4.62 1.78-7.14.35-.91.88-1.68 1.58-2.31.7-.7 1.89-1.05 3.57-1.05zM1225.66 249c-.77 0-1.4-.245-1.89-.735s-.73-1.12-.73-1.89v-7.14c0-.77.24-1.4.73-1.89s1.12-.735 1.89-.735h27.51v-21.315c0-4.41-1.12-7.805-3.36-10.185-2.17-2.45-5.63-3.675-10.39-3.675h-12.71c-.77 0-1.4-.245-1.89-.735s-.73-1.085-.73-1.785v-7.245c0-.77.24-1.4.73-1.89s1.12-.735 1.89-.735h13.23c6.23 0 11.48.91 15.75 2.73 4.27 1.82 7.53 4.655 9.77 8.505 2.24 3.78 3.36 8.75 3.36 14.91v21.42h3.67c.77 0 1.4.245 1.89.735s.74 1.12.74 1.89v7.14c0 .77-.25 1.4-.74 1.89s-1.12.735-1.89.735h-46.83zm61.68 0c-.77 0-1.4-.245-1.89-.735s-.73-1.12-.73-1.89V191.67c0-.77.24-1.4.73-1.89s1.12-.735 1.89-.735h23.42c6.3 0 11.55.91 15.75 2.73 4.2 1.75 7.35 4.55 9.45 8.4 2.1 3.85 3.15 8.855 3.15 15.015v31.185c0 .77-.25 1.4-.74 1.89s-1.12.735-1.89.735h-9.97c-.7 0-1.3-.245-1.79-.735s-.73-1.085-.73-1.785v-31.185c0-4.48-1.12-7.91-3.36-10.29-2.17-2.38-5.64-3.57-10.4-3.57h-10.39v44.94c0 .77-.25 1.4-.74 1.89s-1.08.735-1.78.735h-9.98zm94.93 0c-.77 0-1.4-.245-1.89-.735a2.435 2.435 0 0 1-.74-1.785v-31.185c0-4.48-1.12-7.91-3.36-10.29-2.17-2.38-5.63-3.57-10.39-3.57h-15.23c-.7 0-1.29-.245-1.78-.735s-.74-1.12-.74-1.89v-7.14c0-.77.25-1.4.74-1.89s1.08-.735 1.78-.735h15.86c6.23 0 11.44.875 15.64 2.625 4.2 1.75 7.35 4.515 9.45 8.295 2.1 3.71 3.15 8.61 3.15 14.7v31.71c0 .77-.24 1.4-.73 1.89s-1.09.735-1.79.735h-9.97zm66.97 0c-.7 0-1.3-.245-1.79-.735s-.73-1.085-.73-1.785v-31.185c0-4.48-1.12-7.91-3.36-10.29-2.17-2.38-5.64-3.57-10.4-3.57h-22.57c-.77 0-1.4-.245-1.89-.735s-.74-1.12-.74-1.89v-7.14c0-.77.25-1.4.74-1.89s1.12-.735 1.89-.735h23.1c9.31 0 16.34 2.135 21.1 6.405 4.83 4.27 7.25 10.85 7.25 19.74v31.185c0 .77-.25 1.4-.74 1.89s-1.12.735-1.89.735h-9.97zm-38.85 0c-.77 0-1.4-.245-1.89-.735s-.74-1.12-.74-1.89V214.35c0-.7.25-1.295.74-1.785.49-.56 1.12-.84 1.89-.84h9.97c.7 0 1.3.28 1.79.84.49.49.73 1.085.73 1.785v32.025c0 .77-.24 1.4-.73 1.89s-1.09.735-1.79.735h-9.97zM1247.33 919.625c41.44 0 74.96-33.919 74.96-75.375l.38-376.875a75.39 75.39 0 0 0-22.07-53.298A75.317 75.317 0 0 0 1247.33 392H644.667c-41.81 0-75.334 33.542-75.334 75.375V844.25a75.394 75.394 0 0 0 22.065 53.298 75.311 75.311 0 0 0 53.269 22.077H494V995h904v-75.375h-150.67zM644.667 844.25V467.375h602.663v377.252l-602.663-.377zm191.987-227.896c0-38.705 31.489-70.25 70.21-70.25 38.684 0 70.211 31.545 70.211 70.25a70.386 70.386 0 0 1-20.597 49.641 70.31 70.31 0 0 1-49.614 20.608 70.309 70.309 0 0 1-49.613-20.608 70.382 70.382 0 0 1-20.597-49.641zm264.876 159.644l-93.49-93.54a120.317 120.317 0 0 0 19.85-66.104 121.247 121.247 0 0 0-35.496-85.604 121.104 121.104 0 0 0-85.567-35.486 121.142 121.142 0 0 0-85.557 35.497 121.273 121.273 0 0 0-35.504 85.593 121.312 121.312 0 0 0 35.502 85.606 121.18 121.18 0 0 0 85.559 35.521 120.11 120.11 0 0 0 64.937-19.22l93.756 93.729 36.01-35.992z" fill="#000"/><defs><linearGradient id="paint0_linear_549_58" x1="181.828" x2="1460.45" y2="1644.15" gradientUnits="userSpaceOnUse"><stop stop-color="#D6C8FF"/><stop offset=".99" stop-color="#EFAE9F"/></linearGradient></defs></svg>