<svg width="2880" height="1728" fill="none" xmlns="http://www.w3.org/2000/svg"><g clip-path="url(#clip0_283_63)"><path fill="url(#paint0_linear_283_63)" d="M0 0h2880v1728H0z"/><path d="M-55 588.954v-69.176c0-108.381 606.231-143.461 909.347-147.453C938.809 308.853 2288.44 453.643 2935 602.843v134.135c0 6.841-6.24 11.869-12.85 10.109-200.52-53.39-1328.82-129.857-1928.318-227.309-332.781-54.095-770.203-6.854-1035.745 78.767-6.5 2.096-13.087-2.761-13.087-9.591z" fill="#EBF4FF"/><path d="M645.766 464.479L2880 621V0H0v508.599c250.33-76.194 507.346-62.328 645.766-44.12z" fill="url(#paint1_diamond_283_63)"/><g clip-path="url(#clip1_283_63)"><ellipse opacity=".6" cx="2579" cy="1422" rx="199" ry="210" fill="#AE9FE8"/><ellipse cx="2758.5" cy="1323.5" rx="105.5" ry="111.5" fill="#AE9CEC" fill-opacity=".8"/><ellipse cx="2773.5" cy="430" rx="72.5" ry="73" fill="#AE9CEC"/><ellipse cx="2683" cy="484" rx="79" ry="84" fill="#9F80BF" fill-opacity=".16"/><ellipse cx="2773.5" cy="515" rx="39.5" ry="42" fill="#AE9CEC" fill-opacity=".6"/><ellipse cx="142" cy="305.5" rx="92" ry="97.5" fill="#E4B9C4"/><ellipse cx="292" cy="253" rx="112" ry="119" fill="#F2CCD2" fill-opacity=".32"/><g opacity=".4" stroke-width="50"><path d="M319.417 1061.88V717.4a67.4 67.4 0 0 1 67.4-67.4h458.32a67.4 67.4 0 0 1 67.4 67.4v344.48m-593.12 0h593.12m-593.12 0l-49.876 176.39a67.4 67.4 0 0 0 11.102 58.99 67.45 67.45 0 0 0 23.727 19.68 67.36 67.36 0 0 0 30.01 7.06h563.194a67.357 67.357 0 0 0 30.01-7.06 67.454 67.454 0 0 0 23.728-19.68 67.4 67.4 0 0 0 11.101-58.99l-49.876-176.39" stroke="url(#paint2_linear_283_63)"/><path d="M582.28 1222.9h67.4m33.7-438.099l67.4 67.4-67.4 67.4m-134.8-134.8l-67.4 67.4 67.4 67.4" stroke="url(#paint3_linear_283_63)" stroke-linecap="round" stroke-linejoin="round"/></g></g></g><defs><linearGradient id="paint0_linear_283_63" x1="322.5" y1="142" x2="1281" y2="1198" gradientUnits="userSpaceOnUse"><stop stop-color="#E8B2B5"/><stop offset="1" stop-color="#AFA5F2"/></linearGradient><radialGradient id="paint1_diamond_283_63" cx="0" cy="0" r="1" gradientUnits="userSpaceOnUse" gradientTransform="rotate(11.301 278.462 -355.492) scale(3152.61 5780.12)"><stop stop-color="#F3B2AB"/><stop offset="0" stop-color="#EBB3B0"/><stop offset="1" stop-color="#AAA4F6"/></radialGradient><linearGradient id="paint2_linear_283_63" x1="267" y1="756.646" x2="1118.52" y2="1281.5" gradientUnits="userSpaceOnUse"><stop stop-color="#A642CA"/><stop offset="1" stop-color="#244BD7"/></linearGradient><linearGradient id="paint3_linear_283_63" x1="481.18" y1="854.12" x2="881.366" y2="1000.7" gradientUnits="userSpaceOnUse"><stop stop-color="#A642CA"/><stop offset="1" stop-color="#244BD7"/></linearGradient><clipPath id="clip0_283_63"><path fill="#fff" d="M0 0h2880v1728H0z"/></clipPath><clipPath id="clip1_283_63"><path fill="#fff" d="M0 0h2880v1728H0z"/></clipPath></defs></svg>