<svg width="2880" height="1728" fill="none" xmlns="http://www.w3.org/2000/svg"><g clip-path="url(#clip0_512_198)"><path fill="url(#paint0_linear_512_198)" d="M0 0h2880v1728H0z"/><path d="M-55 588.954v-69.176c0-108.381 606.231-143.461 909.347-147.453C938.809 308.853 2288.44 453.643 2935 602.843v134.135c0 6.841-6.24 11.869-12.85 10.109-200.52-53.39-1328.82-129.857-1928.318-227.309-332.781-54.095-770.203-6.854-1035.745 78.767-6.5 2.096-13.087-2.761-13.087-9.591z" fill="#EBF4FF"/><path d="M645.766 464.479L2880 621V0H0v508.599c250.33-76.194 507.346-62.328 645.766-44.12z" fill="url(#paint1_diamond_512_198)"/><g clip-path="url(#clip1_512_198)"><g opacity=".4" stroke-width="40" clip-path="url(#clip2_512_198)"><path d="M541.78 999.439V731.436A52.435 52.435 0 0 1 594.216 679h356.568a52.44 52.44 0 0 1 52.436 52.436v268.003m-461.44 0h461.44m-461.44 0l-38.803 137.221c-2.204 7.8-2.571 16-1.072 23.97a52.428 52.428 0 0 0 51.516 42.73h438.158a52.434 52.434 0 0 0 41.811-20.8 52.544 52.544 0 0 0 9.71-21.93 52.507 52.507 0 0 0-1.08-23.97l-38.8-137.221" stroke="url(#paint2_linear_512_198)"/><path d="M746.283 1124.71h52.437m26.218-340.837l52.436 52.436-52.436 52.437M720.065 783.873l-52.436 52.436 52.436 52.437" stroke="url(#paint3_linear_512_198)" stroke-linecap="round" stroke-linejoin="round"/></g><ellipse opacity=".6" cx="2488" cy="1174" rx="199" ry="210" fill="#AE9FE8"/><ellipse cx="2667.5" cy="1075.5" rx="105.5" ry="111.5" fill="#AE9CEC" fill-opacity=".8"/><ellipse cx="142" cy="305.5" rx="92" ry="97.5" fill="#E4B9C4"/><ellipse cx="292" cy="253" rx="112" ry="119" fill="#F2CCD2" fill-opacity=".32"/></g></g><defs><linearGradient id="paint0_linear_512_198" x1="322.5" y1="142" x2="1281" y2="1198" gradientUnits="userSpaceOnUse"><stop stop-color="#E8B2B5"/><stop offset="1" stop-color="#AFA5F2"/></linearGradient><radialGradient id="paint1_diamond_512_198" cx="0" cy="0" r="1" gradientUnits="userSpaceOnUse" gradientTransform="rotate(11.301 278.462 -355.492) scale(3152.61 5780.12)"><stop stop-color="#F3B2AB"/><stop offset="0" stop-color="#EBB3B0"/><stop offset="1" stop-color="#AAA4F6"/></radialGradient><linearGradient id="paint2_linear_512_198" x1="501" y1="761.969" x2="1163.47" y2="1170.3" gradientUnits="userSpaceOnUse"><stop stop-color="#A642CA"/><stop offset="1" stop-color="#244BD7"/></linearGradient><linearGradient id="paint3_linear_512_198" x1="667.629" y1="837.803" x2="978.969" y2="951.843" gradientUnits="userSpaceOnUse"><stop stop-color="#A642CA"/><stop offset="1" stop-color="#244BD7"/></linearGradient><clipPath id="clip0_512_198"><path fill="#fff" d="M0 0h2880v1728H0z"/></clipPath><clipPath id="clip1_512_198"><path fill="#fff" d="M0 0h2880v1728H0z"/></clipPath><clipPath id="clip2_512_198"><path fill="#fff" transform="translate(363 597)" d="M0 0h934v934H0z"/></clipPath></defs></svg>