<svg width="2880" height="1728" fill="none" xmlns="http://www.w3.org/2000/svg"><g clip-path="url(#clip0_434_52)"><path fill="url(#paint0_linear_434_52)" d="M0 0h2880v1728H0z"/><path d="M-55 588.954v-69.176c0-108.381 606.231-143.461 909.347-147.453C938.809 308.853 2288.44 453.643 2935 602.843v134.135c0 6.841-6.24 11.869-12.85 10.109-200.52-53.39-1328.82-129.857-1928.318-227.309-332.781-54.095-770.203-6.854-1035.745 78.767-6.5 2.096-13.087-2.761-13.087-9.591z" fill="#EBF4FF"/><path d="M645.766 464.479L2880 621V0H0v508.599c250.33-76.194 507.346-62.328 645.766-44.12z" fill="url(#paint1_diamond_434_52)"/><g clip-path="url(#clip1_434_52)"><ellipse opacity=".6" cx="2488" cy="1174" rx="199" ry="210" fill="#AE9FE8"/><ellipse cx="2667.5" cy="1075.5" rx="105.5" ry="111.5" fill="#AE9CEC" fill-opacity=".8"/><ellipse cx="142" cy="305.5" rx="92" ry="97.5" fill="#E4B9C4"/><ellipse cx="292" cy="253" rx="112" ry="119" fill="#F2CCD2" fill-opacity=".32"/></g><g clip-path="url(#clip2_434_52)"><ellipse opacity=".6" cx="2488" cy="1174" rx="199" ry="210" fill="#AE9FE8"/><ellipse cx="2667.5" cy="1075.5" rx="105.5" ry="111.5" fill="#AE9CEC" fill-opacity=".8"/><ellipse cx="142" cy="305.5" rx="92" ry="97.5" fill="#E4B9C4"/><ellipse cx="292" cy="253" rx="112" ry="119" fill="#F2CCD2" fill-opacity=".32"/></g><path opacity=".4" d="M1127.7 1098.96l-23.16-89.53-92.37-358.391c-2.74-10.383-9.33-19.222-18.315-24.593-8.989-5.371-19.656-6.841-29.683-4.09l-86.229 24.048a23.246 23.246 0 0 0-6.14 2.607c-3.469-6.006-8.376-10.977-14.244-14.429-5.869-3.453-12.498-5.269-19.243-5.272h-89.299c-7.985-.047-15.786 2.484-22.325 7.243-6.538-4.759-14.34-7.29-22.325-7.243h-89.299c-10.361 0-20.298 4.273-27.625 11.88-7.327 7.607-11.443 17.924-11.443 28.682v463.568c0 10.76 4.116 21.07 11.443 28.68 7.327 7.61 17.264 11.88 27.625 11.88h89.299c7.985.05 15.787-2.48 22.325-7.24 6.539 4.76 14.34 7.29 22.325 7.24h89.299c10.362 0 20.299-4.27 27.626-11.88 7.326-7.61 11.442-17.92 11.442-28.68V800.829l88.462 343.041c2.266 8.65 7.209 16.28 14.067 21.73 6.859 5.44 15.252 8.4 23.887 8.4 3.39-.06 6.77-.54 10.04-1.45l86.23-24.05c9.98-2.78 18.49-9.56 23.67-18.85 5.18-9.28 6.6-20.32 3.96-30.69zM910.034 793.586l97.116-26.945 60.83 234.969-97.111 26.95-60.835-234.974zm-26.789-110.677a5.924 5.924 0 0 1 3.348-2.897l86.23-24.047h1.395a5.983 5.983 0 0 1 3.382 1.15 6.334 6.334 0 0 1 2.199 2.906l18.697 73.012-97.112 26.944-18.697-72.722a6.288 6.288 0 0 1 .558-4.346zm-134.228-18.832h89.299c1.48 0 2.9.611 3.947 1.697a5.913 5.913 0 0 1 1.634 4.098v353.468H743.436V669.872c0-1.537.588-3.011 1.634-4.098a5.484 5.484 0 0 1 3.947-1.697zm-133.949 0h89.299c1.481 0 2.9.611 3.947 1.697a5.91 5.91 0 0 1 1.635 4.098v75.329H609.487v-75.329a5.91 5.91 0 0 1 1.635-4.098 5.481 5.481 0 0 1 3.946-1.697zm89.299 475.153h-89.299c-1.48 0-2.899-.61-3.946-1.7a5.89 5.89 0 0 1-1.635-4.09V779.969h100.462v353.471a5.89 5.89 0 0 1-1.635 4.09 5.47 5.47 0 0 1-3.947 1.7zm133.949 0h-89.299c-1.48 0-2.9-.61-3.947-1.7a5.894 5.894 0 0 1-1.634-4.09v-75.33h100.461v75.33c0 1.53-.588 3.01-1.634 4.09a5.47 5.47 0 0 1-3.947 1.7zm253.104-24.34l-86.23 24.05c-.71.22-1.46.29-2.2.21a5.5 5.5 0 0 1-2.11-.71 5.68 5.68 0 0 1-1.677-1.5 5.9 5.9 0 0 1-.986-2.05l-18.697-72.73 97.11-26.94 18.7 72.72c.21.72.27 1.48.19 2.23-.09.75-.32 1.48-.69 2.13-.36.65-.86 1.22-1.44 1.67-.59.44-1.26.76-1.97.92z" fill="url(#paint2_linear_434_52)"/></g><defs><linearGradient id="paint0_linear_434_52" x1="322.5" y1="142" x2="1281" y2="1198" gradientUnits="userSpaceOnUse"><stop stop-color="#E8B2B5"/><stop offset="1" stop-color="#AFA5F2"/></linearGradient><radialGradient id="paint1_diamond_434_52" cx="0" cy="0" r="1" gradientUnits="userSpaceOnUse" gradientTransform="rotate(11.301 278.462 -355.492) scale(3152.61 5780.12)"><stop stop-color="#F3B2AB"/><stop offset="0" stop-color="#EBB3B0"/><stop offset="1" stop-color="#AAA4F6"/></radialGradient><linearGradient id="paint2_linear_434_52" x1="576" y1="1174" x2="1064.93" y2="726.891" gradientUnits="userSpaceOnUse"><stop stop-color="#2D39D7"/><stop offset=".661" stop-color="#6648E2"/><stop offset="1" stop-color="#AD5BF0"/></linearGradient><clipPath id="clip0_434_52"><path fill="#fff" d="M0 0h2880v1728H0z"/></clipPath><clipPath id="clip1_434_52"><path fill="#fff" d="M0 0h2880v1728H0z"/></clipPath><clipPath id="clip2_434_52"><path fill="#fff" d="M0 0h2880v1728H0z"/></clipPath></defs></svg>