<svg width="278" height="172" fill="none" xmlns="http://www.w3.org/2000/svg"><rect width="277.119" height="171.006" rx="10" fill="url(#paint0_linear_506_230)"/><ellipse cx="115" cy="84.5" rx="56" ry="59.5" fill="#E1DBF3" fill-opacity=".33"/><ellipse cx="170.5" cy="94.5" rx="46.5" ry="43.5" fill="#C5B9E9" fill-opacity=".4"/><path d="M143.812 70.45V41.025l29.219 29.425M106.625 33C100.728 33 96 37.761 96 43.7v85.6c0 2.838 1.12 5.559 3.112 7.566a10.587 10.587 0 0 0 7.513 3.134h63.75c2.818 0 5.52-1.127 7.513-3.134A10.737 10.737 0 0 0 181 129.3V65.1L149.125 33h-42.5z" fill="#000"/><path d="M136.014 101a.386.386 0 0 1-.288-.112.369.369 0 0 1-.112-.272v-4.752c0-.683-.171-1.205-.512-1.568-.331-.363-.859-.544-1.584-.544h-2.32a.369.369 0 0 1-.272-.112.389.389 0 0 1-.112-.288v-1.088c0-.117.037-.213.112-.288a.369.369 0 0 1 .272-.112h2.416c.949 0 1.744.133 2.384.4.64.267 1.12.688 1.44 1.264.32.565.48 1.312.48 2.24v4.832a.394.394 0 0 1-.112.288.37.37 0 0 1-.272.112h-1.52zm8.525-7.168h-4.464a.39.39 0 0 1-.288-.112.373.373 0 0 1-.112-.272v-1.184c0-.117.038-.213.112-.288a.39.39 0 0 1 .288-.112h4.784c.704 0 1.328.144 1.872.432.555.277.987.71 1.296 1.296.32.576.48 1.301.48 2.176v4.832a.39.39 0 0 1-.112.288.386.386 0 0 1-.288.112h-4.272a.39.39 0 0 1-.288-.112.394.394 0 0 1-.112-.288v-1.088c0-.117.038-.213.112-.288a.39.39 0 0 1 .288-.112h2.368v-3.216c0-.437-.074-.81-.224-1.12a1.547 1.547 0 0 0-.592-.704 1.517 1.517 0 0 0-.848-.24zM139.931 101a.37.37 0 0 1-.272-.112.324.324 0 0 1-.08-.288l1.6-7.312a.446.446 0 0 1 .144-.256.322.322 0 0 1 .272-.096l1.28.016c.118.01.214.064.288.16a.319.319 0 0 1 .08.288l-1.408 7.2a.458.458 0 0 1-.144.288.367.367 0 0 1-.272.112h-1.488zm16.802 0c-.16 0-.283-.037-.368-.112a4.612 4.612 0 0 0-.176-.192l-5.776-8.256a.408.408 0 0 1-.08-.24c0-.085.032-.16.096-.224a.303.303 0 0 1 .24-.112h1.52c.16 0 .277.043.352.128.075.075.133.139.176.192l5.84 8.24a.39.39 0 0 1 .096.24.336.336 0 0 1-.112.24.308.308 0 0 1-.224.096h-1.584zm-6.112 0a.369.369 0 0 1-.272-.112.445.445 0 0 1-.112-.304v-2.112c0-.565.048-1.072.144-1.52.107-.459.299-.88.576-1.264.277-.384.683-.752 1.216-1.104l1.12 1.616a2.092 2.092 0 0 0-.672.704 2.629 2.629 0 0 0-.272.816 4.733 4.733 0 0 0-.064.752v2.112a.41.41 0 0 1-.112.304.369.369 0 0 1-.272.112h-1.28zm5.68-3.056l-1.088-1.6c.395-.192.672-.4.832-.624.16-.224.256-.453.288-.688.043-.245.064-.485.064-.72V92.28a.41.41 0 0 1 .112-.304.37.37 0 0 1 .272-.112h1.36c.107 0 .197.043.272.128.075.075.112.17.112.288v2.096c0 .437-.059.864-.176 1.28a3.07 3.07 0 0 1-.64 1.2c-.309.384-.779.747-1.408 1.088zm8.785-4.112h-4.464a.39.39 0 0 1-.288-.112.373.373 0 0 1-.112-.272v-1.184c0-.117.038-.213.112-.288a.39.39 0 0 1 .288-.112h4.784c.704 0 1.328.144 1.872.432.555.277.987.71 1.296 1.296.32.576.48 1.301.48 2.176v4.832a.39.39 0 0 1-.112.288.386.386 0 0 1-.288.112h-4.272a.39.39 0 0 1-.288-.112.394.394 0 0 1-.112-.288v-1.088c0-.117.038-.213.112-.288a.39.39 0 0 1 .288-.112h2.368v-3.216c0-.437-.074-.81-.224-1.12a1.547 1.547 0 0 0-.592-.704 1.517 1.517 0 0 0-.848-.24zM160.478 101a.37.37 0 0 1-.272-.112.324.324 0 0 1-.08-.288l1.6-7.312a.446.446 0 0 1 .144-.256.322.322 0 0 1 .272-.096l1.28.016c.118.01.214.064.288.16a.319.319 0 0 1 .08.288l-1.408 7.2a.458.458 0 0 1-.144.288.367.367 0 0 1-.272.112h-1.488zm-33.071 15.24a.39.39 0 0 1-.288-.112.39.39 0 0 1-.112-.288v-4.576a.39.39 0 0 1 .112-.288.39.39 0 0 1 .288-.112h1.6c.107 0 .197.037.272.112a.39.39 0 0 1 .112.288v4.576a.39.39 0 0 1-.112.288.369.369 0 0 1-.272.112h-1.6zm8.617-3.408h-4.464a.386.386 0 0 1-.288-.112.369.369 0 0 1-.112-.272v-1.184a.39.39 0 0 1 .112-.288.386.386 0 0 1 .288-.112h4.784c.704 0 1.328.144 1.872.432.554.277.986.709 1.296 1.296.32.576.48 1.301.48 2.176v4.832a.394.394 0 0 1-.112.288.39.39 0 0 1-.288.112h-4.272a.386.386 0 0 1-.288-.112.39.39 0 0 1-.112-.288v-1.088a.39.39 0 0 1 .112-.288.386.386 0 0 1 .288-.112h2.368v-3.216c0-.437-.075-.811-.224-1.12a1.554 1.554 0 0 0-.592-.704 1.519 1.519 0 0 0-.848-.24zM131.416 120a.367.367 0 0 1-.272-.112.318.318 0 0 1-.08-.288l1.6-7.312a.434.434 0 0 1 .144-.256.318.318 0 0 1 .272-.096l1.28.016a.4.4 0 0 1 .288.16.324.324 0 0 1 .08.288l-1.408 7.2a.468.468 0 0 1-.144.288.37.37 0 0 1-.272.112h-1.488zm14.024 0c-.234 0-.352-.117-.352-.352v-5.12c0-.661.07-1.173.208-1.536.15-.363.374-.544.672-.544h2.304c-.266 0-.485.219-.656.656-.16.427-.24.955-.24 1.584v4.96a.294.294 0 0 1-.144.256.467.467 0 0 1-.288.096h-1.504zm-3.888-7.248a.39.39 0 0 1-.288-.112.394.394 0 0 1-.112-.288v-1.088c0-.117.038-.213.112-.288a.39.39 0 0 1 .288-.112h7.056c.107 0 .198.037.272.112a.39.39 0 0 1 .112.288v1.088a.423.423 0 0 1-.112.288.337.337 0 0 1-.272.112h-7.056zm9.466 10.304a.39.39 0 0 1-.288-.112.39.39 0 0 1-.112-.288v-7.936c0-.107.037-.197.112-.272a.367.367 0 0 1 .288-.128h1.456c.117 0 .213.043.288.128a.369.369 0 0 1 .112.272v7.936a.39.39 0 0 1-.112.288.39.39 0 0 1-.288.112h-1.456zm3.6-2.864c-.096.021-.192-.011-.288-.096a.398.398 0 0 1-.128-.288v-1.344c0-.096.037-.187.112-.272a.646.646 0 0 1 .272-.208l.544-.224a4.08 4.08 0 0 0 .912-.528c.277-.213.496-.501.656-.864.16-.363.24-.832.24-1.408 0-.512-.064-.923-.192-1.232a1.18 1.18 0 0 0-.608-.688c-.288-.139-.683-.208-1.184-.208h-3.936a.423.423 0 0 1-.288-.112.369.369 0 0 1-.112-.272v-1.2c0-.107.037-.197.112-.272a.423.423 0 0 1 .288-.112h4.384c.96 0 1.723.149 2.288.448.576.299.987.752 1.232 1.36.256.597.384 1.349.384 2.256 0 .725-.112 1.371-.336 1.936a4.469 4.469 0 0 1-.896 1.472 5.716 5.716 0 0 1-1.296 1.024c-.48.267-.981.475-1.504.624l-.656.208zm12.709-.192c-.16 0-.283-.037-.368-.112a4.612 4.612 0 0 0-.176-.192l-5.776-8.256a.409.409 0 0 1-.08-.24c0-.085.032-.16.096-.224a.302.302 0 0 1 .24-.112h1.52c.16 0 .277.043.352.128.075.075.133.139.176.192l5.84 8.24a.39.39 0 0 1 .096.24.336.336 0 0 1-.112.24.308.308 0 0 1-.224.096h-1.584zm-6.112 0a.369.369 0 0 1-.272-.112.445.445 0 0 1-.112-.304v-2.112c0-.565.048-1.072.144-1.52.107-.459.299-.88.576-1.264.277-.384.683-.752 1.216-1.104l1.12 1.616a2.092 2.092 0 0 0-.672.704 2.634 2.634 0 0 0-.272.816 4.733 4.733 0 0 0-.064.752v2.112a.41.41 0 0 1-.112.304.369.369 0 0 1-.272.112h-1.28zm5.68-3.056l-1.088-1.6c.395-.192.672-.4.832-.624.16-.224.256-.453.288-.688a4.16 4.16 0 0 0 .064-.72v-2.032a.41.41 0 0 1 .112-.304.369.369 0 0 1 .272-.112h1.36a.35.35 0 0 1 .272.128.39.39 0 0 1 .112.288v2.096c0 .437-.059.864-.176 1.28a3.07 3.07 0 0 1-.64 1.2c-.309.384-.779.747-1.408 1.088z" fill="#D9B9D4"/><defs><linearGradient id="paint0_linear_506_230" x1="26.091" x2="209.568" y2="235.927" gradientUnits="userSpaceOnUse"><stop stop-color="#D6C8FF"/><stop offset=".99" stop-color="#EFAE9F"/></linearGradient></defs></svg>