<svg width="278" height="172" fill="none" xmlns="http://www.w3.org/2000/svg"><rect width="277.119" height="171.006" rx="10" fill="url(#paint0_linear_506_233)"/><ellipse cx="119.113" cy="84.656" rx="56" ry="59.5" fill="#E1DBF3" fill-opacity=".33"/><ellipse cx="174.613" cy="94.656" rx="46.5" ry="43.5" fill="#C5B9E9" fill-opacity=".4"/><path d="M143.125 32h-42.5c-2.818 0-5.52 1.127-7.513 3.134A10.738 10.738 0 0 0 90 42.7v85.6c0 2.838 1.12 5.559 3.112 7.566a10.586 10.586 0 0 0 7.513 3.134h63.75c2.818 0 5.52-1.127 7.513-3.134A10.737 10.737 0 0 0 175 128.3V64.1L143.125 32zm21.25 96.3h-63.75V42.7h37.187v26.75h26.563v58.85z" fill="#000"/><path d="M129.014 100a.388.388 0 0 1-.288-.112.369.369 0 0 1-.112-.272v-4.752c0-.683-.171-1.205-.512-1.568-.331-.363-.859-.544-1.584-.544h-2.32a.369.369 0 0 1-.272-.112.389.389 0 0 1-.112-.288v-1.088c0-.117.037-.213.112-.288a.369.369 0 0 1 .272-.112h2.416c.949 0 1.744.133 2.384.4.64.267 1.12.688 1.44 1.264.32.565.48 1.312.48 2.24V99.6a.393.393 0 0 1-.112.288.372.372 0 0 1-.272.112h-1.52zm8.525-7.168h-4.464a.39.39 0 0 1-.288-.112.373.373 0 0 1-.112-.272v-1.184c0-.117.038-.213.112-.288a.39.39 0 0 1 .288-.112h4.784c.704 0 1.328.144 1.872.432.555.277.987.71 1.296 1.296.32.576.48 1.301.48 2.176V99.6a.389.389 0 0 1-.112.288.388.388 0 0 1-.288.112h-4.272a.39.39 0 0 1-.288-.112.393.393 0 0 1-.112-.288v-1.088c0-.117.038-.213.112-.288a.39.39 0 0 1 .288-.112h2.368v-3.216c0-.437-.074-.81-.224-1.12a1.547 1.547 0 0 0-.592-.704 1.517 1.517 0 0 0-.848-.24zM132.931 100a.372.372 0 0 1-.272-.112.324.324 0 0 1-.08-.288l1.6-7.312a.446.446 0 0 1 .144-.256.322.322 0 0 1 .272-.096l1.28.016c.118.01.214.064.288.16a.319.319 0 0 1 .08.288l-1.408 7.2a.46.46 0 0 1-.144.288.369.369 0 0 1-.272.112h-1.488zm16.802 0c-.16 0-.283-.037-.368-.112a4.25 4.25 0 0 0-.176-.192l-5.776-8.256a.408.408 0 0 1-.08-.24c0-.085.032-.16.096-.224a.303.303 0 0 1 .24-.112h1.52c.16 0 .277.043.352.128.075.075.133.139.176.192l5.84 8.24a.396.396 0 0 1 .096.24.335.335 0 0 1-.112.24.308.308 0 0 1-.224.096h-1.584zm-6.112 0a.37.37 0 0 1-.272-.112.445.445 0 0 1-.112-.304v-2.112c0-.565.048-1.072.144-1.52.107-.459.299-.88.576-1.264.277-.384.683-.752 1.216-1.104l1.12 1.616a2.092 2.092 0 0 0-.672.704 2.629 2.629 0 0 0-.272.816 4.733 4.733 0 0 0-.064.752v2.112a.41.41 0 0 1-.112.304.37.37 0 0 1-.272.112h-1.28zm5.68-3.056l-1.088-1.6c.395-.192.672-.4.832-.624.16-.224.256-.453.288-.688.043-.245.064-.485.064-.72V91.28a.41.41 0 0 1 .112-.304.37.37 0 0 1 .272-.112h1.36c.107 0 .197.043.272.128.075.075.112.17.112.288v2.096c0 .437-.059.864-.176 1.28a3.07 3.07 0 0 1-.64 1.2c-.309.384-.779.747-1.408 1.088zm8.785-4.112h-4.464a.39.39 0 0 1-.288-.112.373.373 0 0 1-.112-.272v-1.184c0-.117.038-.213.112-.288a.39.39 0 0 1 .288-.112h4.784c.704 0 1.328.144 1.872.432.555.277.987.71 1.296 1.296.32.576.48 1.301.48 2.176V99.6a.389.389 0 0 1-.112.288.388.388 0 0 1-.288.112h-4.272a.39.39 0 0 1-.288-.112.393.393 0 0 1-.112-.288v-1.088c0-.117.038-.213.112-.288a.39.39 0 0 1 .288-.112h2.368v-3.216c0-.437-.074-.81-.224-1.12a1.547 1.547 0 0 0-.592-.704 1.517 1.517 0 0 0-.848-.24zM153.478 100a.372.372 0 0 1-.272-.112.324.324 0 0 1-.08-.288l1.6-7.312a.446.446 0 0 1 .144-.256.322.322 0 0 1 .272-.096l1.28.016c.118.01.214.064.288.16a.319.319 0 0 1 .08.288l-1.408 7.2a.46.46 0 0 1-.144.288.369.369 0 0 1-.272.112h-1.488zm-41.493 15.24a.39.39 0 0 1-.288-.112.39.39 0 0 1-.112-.288v-4.576a.39.39 0 0 1 .112-.288.39.39 0 0 1 .288-.112h1.6c.107 0 .197.037.272.112a.39.39 0 0 1 .112.288v4.576a.39.39 0 0 1-.112.288.369.369 0 0 1-.272.112h-1.6zm8.857 3.76a.39.39 0 0 1-.288-.112.369.369 0 0 1-.112-.272v-4.752c0-.683-.171-1.205-.512-1.568-.331-.363-.859-.544-1.584-.544h-2.32a.369.369 0 0 1-.272-.112.39.39 0 0 1-.112-.288v-1.088a.39.39 0 0 1 .112-.288.369.369 0 0 1 .272-.112h2.416c.949 0 1.744.133 2.384.4.64.267 1.12.688 1.44 1.264.32.565.48 1.312.48 2.24v4.832a.39.39 0 0 1-.112.288.369.369 0 0 1-.272.112h-1.52zm5.747.192a.306.306 0 0 1-.288-.096.398.398 0 0 1-.128-.288v-1.344c0-.096.032-.187.096-.272a.635.635 0 0 1 .288-.208l.544-.224c.331-.139.629-.315.896-.528.277-.213.496-.501.656-.864.171-.363.256-.832.256-1.408 0-.512-.064-.923-.192-1.232a1.18 1.18 0 0 0-.608-.688c-.288-.139-.688-.208-1.2-.208h-.4a.423.423 0 0 1-.288-.112.369.369 0 0 1-.112-.272v-1.2c0-.107.037-.197.112-.272a.423.423 0 0 1 .288-.112h.848c.96 0 1.723.149 2.288.448.576.299.992.752 1.248 1.36.256.597.384 1.349.384 2.256 0 .725-.112 1.371-.336 1.936a4.699 4.699 0 0 1-.912 1.472 5.716 5.716 0 0 1-1.296 1.024 6.715 6.715 0 0 1-1.488.624l-.656.208zm.432-7.36h-2.496a.39.39 0 0 1-.288-.112.369.369 0 0 1-.112-.272v-3.408a.39.39 0 0 1 .112-.288.39.39 0 0 1 .288-.112h1.392c.107 0 .197.037.272.112a.39.39 0 0 1 .112.288v1.824h.736l-.016 1.968zm6.388 7.168a.386.386 0 0 1-.288-.112.39.39 0 0 1-.112-.288v-8.336a.39.39 0 0 1 .112-.288.386.386 0 0 1 .288-.112h1.6a.37.37 0 0 1 .272.112.394.394 0 0 1 .112.288v8.336a.394.394 0 0 1-.112.288.37.37 0 0 1-.272.112h-1.6zm5.909-7.168v.784c.01.267.048.485.112.656a.572.572 0 0 0 .352.336l.496.144a.341.341 0 0 1 .192.192.564.564 0 0 1 .079.304v.688a.361.361 0 0 1-.207.336.73.73 0 0 1-.464.08l-.656-.112a2.066 2.066 0 0 1-.944-.432c-.267-.235-.48-.549-.64-.944-.16-.395-.24-.859-.24-1.392v-2.208a.497.497 0 0 1 .112-.288.386.386 0 0 1 .288-.112h3.136c.928 0 1.685.165 2.272.496.586.331 1.024.8 1.311 1.408.299.608.465 1.328.497 2.16a8.206 8.206 0 0 1 0 1.008c-.032.821-.198 1.541-.497 2.16a3.103 3.103 0 0 1-1.311 1.408c-.587.331-1.344.496-2.272.496h-2.944a.386.386 0 0 1-.288-.112.39.39 0 0 1-.112-.288v-1.184c0-.107.037-.197.112-.272a.386.386 0 0 1 .288-.112h2.864c.608 0 1.093-.181 1.456-.544.373-.373.576-.896.608-1.568a7.695 7.695 0 0 0 0-.976c-.022-.683-.219-1.205-.592-1.568-.374-.363-.864-.544-1.472-.544h-1.536zm7.841 7.168a.386.386 0 0 1-.288-.112.39.39 0 0 1-.112-.288v-8.336a.39.39 0 0 1 .112-.288.386.386 0 0 1 .288-.112h1.6a.37.37 0 0 1 .272.112.394.394 0 0 1 .112.288v8.336a.394.394 0 0 1-.112.288.37.37 0 0 1-.272.112h-1.6zm5.909-7.168v.784c.01.267.048.485.112.656a.572.572 0 0 0 .352.336l.496.144a.341.341 0 0 1 .192.192.564.564 0 0 1 .079.304v.688a.361.361 0 0 1-.207.336.73.73 0 0 1-.464.08l-.656-.112a2.066 2.066 0 0 1-.944-.432c-.267-.235-.48-.549-.64-.944-.16-.395-.24-.859-.24-1.392v-2.208a.497.497 0 0 1 .112-.288.386.386 0 0 1 .288-.112h3.136c.928 0 1.685.165 2.272.496.586.331 1.024.8 1.311 1.408.299.608.465 1.328.497 2.16a8.206 8.206 0 0 1 0 1.008c-.032.821-.198 1.541-.497 2.16a3.103 3.103 0 0 1-1.311 1.408c-.587.331-1.344.496-2.272.496h-2.944a.386.386 0 0 1-.288-.112.39.39 0 0 1-.112-.288v-1.184c0-.107.037-.197.112-.272a.386.386 0 0 1 .288-.112h2.864c.608 0 1.093-.181 1.456-.544.373-.373.576-.896.608-1.568a7.695 7.695 0 0 0 0-.976c-.022-.683-.219-1.205-.592-1.568-.374-.363-.864-.544-1.472-.544h-1.536z" fill="#000"/><defs><linearGradient id="paint0_linear_506_233" x1="26.091" x2="209.568" y2="235.927" gradientUnits="userSpaceOnUse"><stop stop-color="#D6C8FF"/><stop offset=".99" stop-color="#EFAE9F"/></linearGradient></defs></svg>