<svg width="2880" height="1728" fill="none" xmlns="http://www.w3.org/2000/svg"><g clip-path="url(#clip0_434_53)"><path fill="url(#paint0_linear_434_53)" d="M0 0h2880v1728H0z"/><path d="M-55 588.954v-69.176c0-108.381 606.231-143.461 909.347-147.453C938.809 308.853 2288.44 453.643 2935 602.843v134.135c0 6.841-6.24 11.869-12.85 10.109-200.52-53.39-1328.82-129.857-1928.318-227.309-332.781-54.095-770.203-6.854-1035.745 78.767-6.5 2.096-13.087-2.761-13.087-9.591z" fill="#EBF4FF"/><path d="M645.766 464.479L2880 621V0H0v508.599c250.33-76.194 507.346-62.328 645.766-44.12z" fill="url(#paint1_diamond_434_53)"/><g clip-path="url(#clip1_434_53)"><ellipse opacity=".6" cx="2579" cy="1422" rx="199" ry="210" fill="#AE9FE8"/><ellipse cx="2758.5" cy="1323.5" rx="105.5" ry="111.5" fill="#AE9CEC" fill-opacity=".8"/><ellipse cx="2773.5" cy="430" rx="72.5" ry="73" fill="#AE9CEC"/><ellipse cx="2683" cy="484" rx="79" ry="84" fill="#9F80BF" fill-opacity=".16"/><ellipse cx="2773.5" cy="515" rx="39.5" ry="42" fill="#AE9CEC" fill-opacity=".6"/><ellipse cx="142" cy="305.5" rx="92" ry="97.5" fill="#E4B9C4"/><ellipse cx="292" cy="253" rx="112" ry="119" fill="#F2CCD2" fill-opacity=".32"/><path opacity=".4" d="M1008.28 1263.53l-30.703-118.66-122.434-475.053c-3.639-13.763-12.364-25.478-24.278-32.598-11.914-7.12-26.054-9.068-39.344-5.421l-114.297 31.875a30.795 30.795 0 0 0-8.138 3.456c-4.598-7.961-11.102-14.55-18.881-19.126-7.778-4.577-16.565-6.984-25.506-6.988H506.334c-10.584-.063-20.925 3.292-29.592 9.6-8.666-6.308-19.007-9.663-29.591-9.6H328.785c-13.734 0-26.906 5.664-36.618 15.747C282.456 666.845 277 680.52 277 694.779v614.451c0 14.26 5.456 27.94 15.167 38.02 9.712 10.08 22.884 15.75 36.618 15.75h118.366c10.584.06 20.925-3.29 29.591-9.6 8.667 6.31 19.008 9.66 29.592 9.6h118.365c13.735 0 26.906-5.67 36.618-15.75 9.711-10.08 15.167-23.76 15.167-38.02V868.363L793.74 1323.06c3.003 11.46 9.555 21.59 18.646 28.8 9.091 7.22 20.216 11.13 31.66 11.14 4.497-.07 8.969-.72 13.316-1.92l114.297-31.88c13.228-3.69 24.509-12.67 31.371-24.98 6.86-12.31 8.75-26.94 5.25-40.69zM719.762 858.762l128.722-35.715 80.637 311.453-128.723 35.71-80.636-311.448zm-35.51-146.701c.949-1.825 2.539-3.201 4.439-3.84l114.297-31.875h1.849a7.929 7.929 0 0 1 4.483 1.525 8.407 8.407 0 0 1 2.915 3.851l24.783 96.777-128.723 35.715-24.783-96.393a8.342 8.342 0 0 1 .74-5.76zm-177.918-24.962h118.365c1.962 0 3.844.809 5.231 2.249a7.83 7.83 0 0 1 2.167 5.431V1163.3H498.936V694.779c0-2.037.779-3.99 2.166-5.431 1.388-1.44 3.27-2.249 5.232-2.249zm-177.549 0h118.366c1.962 0 3.843.809 5.231 2.249a7.835 7.835 0 0 1 2.167 5.431v99.849H321.387v-99.849c0-2.037.78-3.99 2.167-5.431a7.263 7.263 0 0 1 5.231-2.249zm118.366 629.811H328.785c-1.962 0-3.844-.8-5.231-2.24a7.868 7.868 0 0 1-2.167-5.44V840.712h133.162v468.518c0 2.04-.78 3.99-2.167 5.44a7.255 7.255 0 0 1-5.231 2.24zm177.548 0H506.334c-1.962 0-3.844-.8-5.232-2.24a7.867 7.867 0 0 1-2.166-5.44v-99.84h133.161v99.84c0 2.04-.779 3.99-2.167 5.44a7.254 7.254 0 0 1-5.231 2.24zm335.493-32.25l-114.297 31.87a7.162 7.162 0 0 1-5.716-.66 7.481 7.481 0 0 1-2.225-1.99 7.75 7.75 0 0 1-1.306-2.73l-24.783-96.39 128.723-35.71 24.783 96.39a7.573 7.573 0 0 1-.66 5.78 7.221 7.221 0 0 1-1.915 2.2 6.788 6.788 0 0 1-2.604 1.24z" fill="url(#paint2_linear_434_53)"/></g></g><defs><linearGradient id="paint0_linear_434_53" x1="322.5" y1="142" x2="1281" y2="1198" gradientUnits="userSpaceOnUse"><stop stop-color="#E8B2B5"/><stop offset="1" stop-color="#AFA5F2"/></linearGradient><radialGradient id="paint1_diamond_434_53" cx="0" cy="0" r="1" gradientUnits="userSpaceOnUse" gradientTransform="rotate(11.301 278.462 -355.492) scale(3152.61 5780.12)"><stop stop-color="#F3B2AB"/><stop offset="0" stop-color="#EBB3B0"/><stop offset="1" stop-color="#AAA4F6"/></radialGradient><linearGradient id="paint2_linear_434_53" x1="277" y1="1363" x2="925.074" y2="770.358" gradientUnits="userSpaceOnUse"><stop stop-color="#2D39D7"/><stop offset=".661" stop-color="#6648E2"/><stop offset="1" stop-color="#AD5BF0"/></linearGradient><clipPath id="clip0_434_53"><path fill="#fff" d="M0 0h2880v1728H0z"/></clipPath><clipPath id="clip1_434_53"><path fill="#fff" d="M0 0h2880v1728H0z"/></clipPath></defs></svg>