<svg width="2880" height="1728" fill="none" xmlns="http://www.w3.org/2000/svg"><g clip-path="url(#clip0_504_202)"><path fill="url(#paint0_linear_504_202)" d="M0 0h2880v1728H0z"/><path d="M-55 588.954v-69.176c0-108.381 606.231-143.461 909.347-147.453C938.809 308.853 2288.44 453.643 2935 602.843v134.135c0 6.841-6.24 11.869-12.85 10.109-200.52-53.39-1328.82-129.857-1928.318-227.309-332.781-54.095-770.203-6.854-1035.745 78.767-6.5 2.096-13.087-2.761-13.087-9.591z" fill="#EBF4FF"/><path d="M645.766 464.479L2880 621V0H0v508.599c250.33-76.194 507.346-62.328 645.766-44.12z" fill="url(#paint1_diamond_504_202)"/><g clip-path="url(#clip1_504_202)"><path opacity=".4" d="M907.417 726h91.25a60.83 60.83 0 0 1 43.013 17.818 60.827 60.827 0 0 1 17.82 43.015v91.25M664.083 1273.5h-91.25a60.827 60.827 0 0 1-43.015-17.82A60.828 60.828 0 0 1 512 1212.67v-91.25m441.042 91.25v91.25m91.248 0H861.792m-45.625-131.25v-102.5c0-22.09 17.908-40 40-40h193.753c22.09 0 40 17.91 40 40v102.5c0 22.09-17.91 40-40 40H856.167c-22.092 0-40-17.91-40-40z" stroke="url(#paint2_linear_504_202)" stroke-width="43" stroke-linecap="round" stroke-linejoin="round"/><ellipse opacity=".6" cx="2488" cy="1174" rx="199" ry="210" fill="#AE9FE8"/><ellipse cx="2667.5" cy="1075.5" rx="105.5" ry="111.5" fill="#AE9CEC" fill-opacity=".8"/><ellipse cx="142" cy="305.5" rx="92" ry="97.5" fill="#E4B9C4"/><ellipse cx="292" cy="253" rx="112" ry="119" fill="#F2CCD2" fill-opacity=".32"/><path opacity=".4" d="M652.5 726c-66.446 0-118.5 30.395-118.5 69.192v118.616C534 952.605 586.054 983 652.5 983S771 952.605 771 913.808V795.192C771 756.395 718.946 726 652.5 726zm98.75 128.5c0 11.886-9.727 24.007-26.675 33.262-19.083 10.416-44.684 16.161-72.075 16.161-27.391 0-52.992-5.745-72.075-16.161-16.948-9.255-26.675-21.376-26.675-33.262v-20.56c21.058 18.534 57.065 30.445 98.75 30.445s77.692-11.961 98.75-30.445v20.56zm-170.825-92.569c19.083-10.416 44.684-16.162 72.075-16.162 27.391 0 52.992 5.746 72.075 16.162 16.948 9.254 26.675 21.375 26.675 33.261 0 11.887-9.727 24.008-26.675 33.262-19.083 10.416-44.684 16.161-72.075 16.161-27.391 0-52.992-5.745-72.075-16.161-16.948-9.254-26.675-21.375-26.675-33.262 0-11.886 9.727-24.007 26.675-33.261zm144.15 185.138c-19.083 10.416-44.684 16.162-72.075 16.162-27.391 0-52.992-5.746-72.075-16.162-16.948-9.254-26.675-21.375-26.675-33.261v-20.56c21.058 18.533 57.065 30.444 98.75 30.444s77.692-11.96 98.75-30.444v20.56c0 11.886-9.727 24.007-26.675 33.261z" fill="url(#paint3_linear_504_202)" stroke="url(#paint4_linear_504_202)" stroke-width="10"/></g></g><defs><linearGradient id="paint0_linear_504_202" x1="322.5" y1="142" x2="1281" y2="1198" gradientUnits="userSpaceOnUse"><stop stop-color="#E8B2B5"/><stop offset="1" stop-color="#AFA5F2"/></linearGradient><radialGradient id="paint1_diamond_504_202" cx="0" cy="0" r="1" gradientUnits="userSpaceOnUse" gradientTransform="rotate(11.301 278.462 -355.492) scale(3152.61 5780.12)"><stop stop-color="#F3B2AB"/><stop offset="0" stop-color="#EBB3B0"/><stop offset="1" stop-color="#AAA4F6"/></radialGradient><linearGradient id="paint2_linear_504_202" x1="512" y1="1303.92" x2="1022.96" y2="836.662" gradientUnits="userSpaceOnUse"><stop stop-color="#2D39D7"/><stop offset=".661" stop-color="#6648E2"/><stop offset="1" stop-color="#AD5BF0"/></linearGradient><linearGradient id="paint3_linear_504_202" x1="534" y1="983" x2="758.859" y2="793.376" gradientUnits="userSpaceOnUse"><stop stop-color="#2D39D7"/><stop offset=".661" stop-color="#6648E2"/><stop offset="1" stop-color="#AD5BF0"/></linearGradient><linearGradient id="paint4_linear_504_202" x1="534" y1="983" x2="758.859" y2="793.376" gradientUnits="userSpaceOnUse"><stop stop-color="#2D39D7"/><stop offset=".661" stop-color="#6648E2"/><stop offset="1" stop-color="#AD5BF0"/></linearGradient><clipPath id="clip0_504_202"><path fill="#fff" d="M0 0h2880v1728H0z"/></clipPath><clipPath id="clip1_504_202"><path fill="#fff" d="M0 0h2880v1728H0z"/></clipPath></defs></svg>