<svg width="2880" height="1728" fill="none" xmlns="http://www.w3.org/2000/svg"><g clip-path="url(#clip0_504_207)"><path fill="url(#paint0_linear_504_207)" d="M0 0h2880v1728H0z"/><path d="M-55 588.954v-69.176c0-108.381 606.231-143.461 909.347-147.453C938.809 308.853 2288.44 453.643 2935 602.843v134.135c0 6.841-6.24 11.869-12.85 10.109-200.52-53.39-1328.82-129.857-1928.318-227.309-332.781-54.095-770.203-6.854-1035.745 78.767-6.5 2.096-13.087-2.761-13.087-9.591z" fill="#EBF4FF"/><path d="M645.766 464.479L2880 621V0H0v508.599c250.33-76.194 507.346-62.328 645.766-44.12z" fill="url(#paint1_diamond_504_207)"/><g clip-path="url(#clip1_504_207)"><ellipse opacity=".6" cx="2579" cy="1422" rx="199" ry="210" fill="#AE9FE8"/><ellipse cx="2758.5" cy="1323.5" rx="105.5" ry="111.5" fill="#AE9CEC" fill-opacity=".8"/><ellipse cx="2773.5" cy="430" rx="72.5" ry="73" fill="#AE9CEC"/><ellipse cx="2683" cy="484" rx="79" ry="84" fill="#9F80BF" fill-opacity=".16"/><ellipse cx="2773.5" cy="515" rx="39.5" ry="42" fill="#AE9CEC" fill-opacity=".6"/><ellipse cx="142" cy="305.5" rx="92" ry="97.5" fill="#E4B9C4"/><ellipse cx="292" cy="253" rx="112" ry="119" fill="#F2CCD2" fill-opacity=".32"/></g></g><path opacity=".4" d="M770 639h105a69.997 69.997 0 0 1 49.497 20.503A69.997 69.997 0 0 1 945 709v105m-455 455H385a70 70 0 0 1-70-70v-105m507.5 105v105m105 0h-210M665 1159v-130c0-22.09 17.909-40 40-40h235c22.091 0 40 17.91 40 40v130c0 22.09-17.909 40-40 40H705c-22.091 0-40-17.91-40-40z" stroke="url(#paint2_linear_504_207)" stroke-width="43" stroke-linecap="round" stroke-linejoin="round"/><path opacity=".4" d="M476.673 639c-76.459 0-136.357 34.975-136.357 79.619v136.488c0 44.644 59.898 79.619 136.357 79.619 76.458 0 136.356-34.975 136.356-79.619V718.619c0-44.644-59.898-79.619-136.356-79.619zm113.63 147.863c0 13.677-11.193 27.625-30.695 38.274-21.959 11.985-51.417 18.596-82.935 18.596-31.519 0-60.977-6.611-82.936-18.596-19.502-10.649-30.695-24.597-30.695-38.274v-23.658c24.232 21.326 65.664 35.032 113.631 35.032 47.966 0 89.398-13.763 113.63-35.032v23.658zM393.737 680.345c21.959-11.986 51.417-18.597 82.936-18.597 31.518 0 60.976 6.611 82.935 18.597 19.502 10.649 30.695 24.596 30.695 38.274 0 13.677-11.193 27.624-30.695 38.273-21.959 11.986-51.417 18.597-82.935 18.597-31.519 0-60.977-6.611-82.936-18.597-19.502-10.649-30.695-24.596-30.695-38.273 0-13.678 11.193-27.625 30.695-38.274zm165.871 213.036c-21.959 11.986-51.417 18.597-82.935 18.597-31.519 0-60.977-6.611-82.936-18.597-19.502-10.649-30.695-24.596-30.695-38.274v-23.658c24.232 21.327 65.664 35.033 113.631 35.033 47.966 0 89.398-13.763 113.63-35.033v23.658c0 13.678-11.193 27.625-30.695 38.274z" fill="url(#paint3_linear_504_207)" stroke="url(#paint4_linear_504_207)" stroke-width="10"/><defs><linearGradient id="paint0_linear_504_207" x1="322.5" y1="142" x2="1281" y2="1198" gradientUnits="userSpaceOnUse"><stop stop-color="#E8B2B5"/><stop offset="1" stop-color="#AFA5F2"/></linearGradient><radialGradient id="paint1_diamond_504_207" cx="0" cy="0" r="1" gradientUnits="userSpaceOnUse" gradientTransform="rotate(11.301 278.462 -355.492) scale(3152.61 5780.12)"><stop stop-color="#F3B2AB"/><stop offset="0" stop-color="#EBB3B0"/><stop offset="1" stop-color="#AAA4F6"/></radialGradient><linearGradient id="paint2_linear_504_207" x1="315" y1="1304" x2="902.953" y2="766.337" gradientUnits="userSpaceOnUse"><stop stop-color="#2D39D7"/><stop offset=".661" stop-color="#6648E2"/><stop offset="1" stop-color="#AD5BF0"/></linearGradient><linearGradient id="paint3_linear_504_207" x1="340.316" y1="934.726" x2="599.059" y2="716.529" gradientUnits="userSpaceOnUse"><stop stop-color="#2D39D7"/><stop offset=".661" stop-color="#6648E2"/><stop offset="1" stop-color="#AD5BF0"/></linearGradient><linearGradient id="paint4_linear_504_207" x1="340.316" y1="934.726" x2="599.059" y2="716.529" gradientUnits="userSpaceOnUse"><stop stop-color="#2D39D7"/><stop offset=".661" stop-color="#6648E2"/><stop offset="1" stop-color="#AD5BF0"/></linearGradient><clipPath id="clip0_504_207"><path fill="#fff" d="M0 0h2880v1728H0z"/></clipPath><clipPath id="clip1_504_207"><path fill="#fff" d="M0 0h2880v1728H0z"/></clipPath></defs></svg>