<svg width="278" height="172" fill="none" xmlns="http://www.w3.org/2000/svg"><rect width="277.119" height="171.006" rx="10" fill="url(#paint0_linear_507_283)"/><ellipse cx="115" cy="84.5" rx="56" ry="59.5" fill="#E1DBF3" fill-opacity=".33"/><ellipse cx="170.5" cy="94.5" rx="46.5" ry="43.5" fill="#C5B9E9" fill-opacity=".4"/><path d="M131.284 33.056a.388.388 0 0 1-.288-.112.389.389 0 0 1-.112-.288V24.72c0-.107.037-.197.112-.272a.363.363 0 0 1 .288-.128h1.456c.117 0 .213.043.288.128a.373.373 0 0 1 .112.272v7.936a.393.393 0 0 1-.112.288.39.39 0 0 1-.288.112h-1.456zm3.6-2.864c-.096.021-.192-.01-.288-.096a.395.395 0 0 1-.128-.288v-1.344c0-.096.037-.187.112-.272a.638.638 0 0 1 .272-.208l.544-.224c.33-.139.634-.315.912-.528a2.17 2.17 0 0 0 .656-.864c.16-.363.24-.832.24-1.408 0-.512-.064-.923-.192-1.232-.118-.32-.32-.55-.608-.688-.288-.139-.683-.208-1.184-.208h-3.936a.425.425 0 0 1-.288-.112.369.369 0 0 1-.112-.272v-1.2c0-.107.037-.197.112-.272a.425.425 0 0 1 .288-.112h4.384c.96 0 1.722.15 2.288.448.576.299.986.752 1.232 1.36.256.597.384 1.35.384 2.256 0 .725-.112 1.37-.336 1.936a4.483 4.483 0 0 1-.896 1.472 5.716 5.716 0 0 1-1.296 1.024 7.12 7.12 0 0 1-1.504.624l-.656.208zm6.869-.192a.388.388 0 0 1-.288-.112.389.389 0 0 1-.112-.288v-8.336c0-.117.037-.213.112-.288a.388.388 0 0 1 .288-.112h1.6c.106 0 .197.037.272.112.074.075.112.17.112.288V29.6a.393.393 0 0 1-.112.288.372.372 0 0 1-.272.112h-1.6zm4.388-3.76a.39.39 0 0 1-.288-.112.393.393 0 0 1-.112-.288v-4.576c0-.117.038-.213.112-.288a.39.39 0 0 1 .288-.112h1.6c.107 0 .198.037.272.112.075.075.112.17.112.288v4.576a.389.389 0 0 1-.112.288.369.369 0 0 1-.272.112h-1.6zm7.721 3.76c-.235 0-.352-.117-.352-.352v-5.12c0-.661.069-1.173.208-1.536.149-.363.373-.544.672-.544h2.304c-.267 0-.485.219-.656.656-.16.427-.24.955-.24 1.584v4.96a.294.294 0 0 1-.144.256.467.467 0 0 1-.288.096h-1.504zm-3.888-7.248a.39.39 0 0 1-.288-.112.389.389 0 0 1-.112-.288v-1.088c0-.117.037-.213.112-.288a.39.39 0 0 1 .288-.112h7.056a.37.37 0 0 1 .272.112c.075.075.112.17.112.288v1.088a.424.424 0 0 1-.112.288.34.34 0 0 1-.272.112h-7.056z" fill="#000"/><path d="M113.667 137.667h54.166M124.5 116v21.667M157 116v21.667m-65-81.25A5.417 5.417 0 0 1 97.417 51h86.666a5.414 5.414 0 0 1 5.417 5.417v54.166a5.414 5.414 0 0 1-1.587 3.83 5.414 5.414 0 0 1-3.83 1.587H97.417A5.416 5.416 0 0 1 92 110.583V56.417z" stroke="#000" stroke-width="10" stroke-linecap="round" stroke-linejoin="round"/><path d="M119.082 94.333l16.25-16.25 10.833 10.833 16.25-16.25" stroke="#000" stroke-width="10" stroke-linecap="round" stroke-linejoin="round"/><defs><linearGradient id="paint0_linear_507_283" x1="26.091" x2="209.568" y2="235.927" gradientUnits="userSpaceOnUse"><stop stop-color="#D6C8FF"/><stop offset=".99" stop-color="#EFAE9F"/></linearGradient></defs></svg>