<svg width="1932" height="1192" fill="none" xmlns="http://www.w3.org/2000/svg"><rect y=".053" width="1931.21" height="1191.72" rx="10" fill="url(#paint0_linear_512_171)"/><ellipse cx="801.422" cy="588.924" rx="390.257" ry="414.649" fill="#E1DBF3" fill-opacity=".33"/><ellipse cx="1188.19" cy="658.611" rx="324.053" ry="303.146" fill="#C5B9E9" fill-opacity=".4"/><path d="M694.549 131.05c-1.1 0-2-.35-2.7-1.05-.7-.7-1.05-1.6-1.05-2.7v-10.2c0-1.1.35-2 1.05-2.7.7-.7 1.6-1.05 2.7-1.05h38.85c8.9 0 16.35 1.3 22.35 3.9 6 2.6 10.5 6.6 13.5 12s4.5 12.35 4.5 20.85v45.15c0 1.1-.35 2-1.05 2.7-.7.7-1.55 1.05-2.55 1.05h-14.25c-1.1 0-2-.35-2.7-1.05-.7-.7-1.05-1.55-1.05-2.55v-44.55c0-6.4-1.55-11.3-4.65-14.7-3.1-3.4-8.1-5.1-15-5.1h-37.95zm17.25-9.6h6c2.4 0 4.05.5 4.95 1.5 1 1 1.35 2.1 1.05 3.3-.9 3.4-1.65 6.65-2.25 9.75-.6 3-1 6.05-1.2 9.15-.2 3-.3 6.45-.3 10.35l.9 39.75c0 1.1-.35 2-1.05 2.7-.7.7-1.6 1.05-2.7 1.05l-28.5-.15c-1 0-1.85-.35-2.55-1.05-.7-.7-1.05-1.6-1.05-2.7v-9.45c0-1.1.35-2 1.05-2.7.7-.7 1.55-1.05 2.55-1.05l12 .15V155.8c0-3.5.05-6.8.15-9.9.2-3.1.55-6.25 1.05-9.45.6-3.2 1.45-6.6 2.55-10.2.5-1.3 1.25-2.4 2.25-3.3 1-1 2.7-1.5 5.1-1.5zM796.143 199c-1.1 0-2-.35-2.7-1.05-.7-.7-1.05-1.6-1.05-2.7V117.1c0-1.1.35-2 1.05-2.7.7-.7 1.6-1.05 2.7-1.05h15c1 0 1.85.35 2.55 1.05.7.7 1.05 1.6 1.05 2.7v78.15c0 1.1-.35 2-1.05 2.7-.7.7-1.55 1.05-2.55 1.05h-15zm37.994 0c-1 0-1.85-.35-2.55-1.05-.7-.7-1.05-1.6-1.05-2.7v-10.2c0-1.1.35-2 1.05-2.7.7-.7 1.55-1.05 2.55-1.05h46.65v14.4c0 1-.35 1.8-1.05 2.4-.7.6-1.55.9-2.55.9h-43.05zm30.75 0c-1.1 0-2-.35-2.7-1.05-.6-.7-.95-1.6-1.05-2.7l-2.25-46.2c-.2-4-.65-7.4-1.35-10.2-.6-2.8-1.8-4.95-3.6-6.45-1.7-1.5-4.35-2.25-7.95-2.25h-7.2c-1 0-1.85-.35-2.55-1.05-.7-.7-1.05-1.6-1.05-2.7v-10.2c0-1 .35-1.85 1.05-2.55.7-.7 1.55-1.05 2.55-1.05h7.65c6.3 0 11.6.75 15.9 2.25 4.4 1.5 7.9 3.8 10.5 6.9 2.7 3.1 4.7 6.95 6 11.55 1.3 4.5 2.1 9.8 2.4 15.9l2.25 46.05c.1 1.1-.25 2-1.05 2.7-.7.7-1.55 1.05-2.55 1.05h-15zm77.646-67.2h-41.85c-1.1 0-2-.35-2.7-1.05-.7-.7-1.05-1.55-1.05-2.55v-11.1c0-1.1.35-2 1.05-2.7.7-.7 1.6-1.05 2.7-1.05h44.85c6.6 0 12.45 1.35 17.55 4.05 5.2 2.6 9.25 6.65 12.15 12.15 3 5.4 4.5 12.2 4.5 20.4v45.3c0 1.1-.35 2-1.05 2.7-.7.7-1.6 1.05-2.7 1.05h-40.05c-1.1 0-2-.35-2.7-1.05-.7-.7-1.05-1.6-1.05-2.7v-10.2c0-1.1.35-2 1.05-2.7.7-.7 1.6-1.05 2.7-1.05h22.2v-30.15c0-4.1-.7-7.6-2.1-10.5-1.3-2.9-3.15-5.1-5.55-6.6-2.3-1.5-4.95-2.25-7.95-2.25zm-43.2 67.2c-1 0-1.85-.35-2.55-1.05-.7-.8-.95-1.7-.75-2.7l15-68.55c.2-1 .65-1.8 1.35-2.4.7-.7 1.55-1 2.55-.9l12 .15c1.1.1 2 .6 2.7 1.5.7.8.95 1.7.75 2.7l-13.2 67.5c-.1 1-.55 1.9-1.35 2.7-.7.7-1.55 1.05-2.55 1.05h-13.95zm102.017-35.25c-1.1 0-2-.35-2.7-1.05-.7-.7-1.05-1.6-1.05-2.7v-42.9c0-1.1.35-2 1.05-2.7.7-.7 1.6-1.05 2.7-1.05h15c1 0 1.85.35 2.55 1.05.7.7 1.05 1.6 1.05 2.7V160c0 1.1-.35 2-1.05 2.7-.7.7-1.55 1.05-2.55 1.05h-15zm96.53 35.25c-1 0-1.85-.35-2.55-1.05-.7-.7-1.05-1.55-1.05-2.55v-44.55c0-6.4-1.6-11.3-4.8-14.7-3.1-3.4-8.05-5.1-14.85-5.1h-32.25c-1.1 0-2-.35-2.7-1.05-.7-.7-1.05-1.6-1.05-2.7v-10.2c0-1.1.35-2 1.05-2.7.7-.7 1.6-1.05 2.7-1.05h33c13.3 0 23.35 3.05 30.15 9.15 6.9 6.1 10.35 15.5 10.35 28.2v44.55c0 1.1-.35 2-1.05 2.7-.7.7-1.6 1.05-2.7 1.05h-14.25zm-55.5 0c-1.1 0-2-.35-2.7-1.05-.7-.7-1.05-1.6-1.05-2.7V149.5c0-1 .35-1.85 1.05-2.55.7-.8 1.6-1.2 2.7-1.2h14.25c1 0 1.85.4 2.55 1.2.7.7 1.05 1.55 1.05 2.55v45.75c0 1.1-.35 2-1.05 2.7-.7.7-1.55 1.05-2.55 1.05h-14.25zm135.55-67.2h-41.85c-1.1 0-2-.35-2.7-1.05-.7-.7-1.05-1.55-1.05-2.55v-11.1c0-1.1.35-2 1.05-2.7.7-.7 1.6-1.05 2.7-1.05h44.85c6.6 0 12.45 1.35 17.55 4.05 5.2 2.6 9.25 6.65 12.15 12.15 3 5.4 4.5 12.2 4.5 20.4v45.3c0 1.1-.35 2-1.05 2.7-.7.7-1.6 1.05-2.7 1.05h-40.05c-1.1 0-2-.35-2.7-1.05-.7-.7-1.05-1.6-1.05-2.7v-10.2c0-1.1.35-2 1.05-2.7.7-.7 1.6-1.05 2.7-1.05h22.2v-30.15c0-4.1-.7-7.6-2.1-10.5-1.3-2.9-3.15-5.1-5.55-6.6-2.3-1.5-4.95-2.25-7.95-2.25zm-43.2 67.2c-1 0-1.85-.35-2.55-1.05-.7-.8-.95-1.7-.75-2.7l15-68.55c.2-1 .65-1.8 1.35-2.4.7-.7 1.55-1 2.55-.9l12 .15c1.1.1 2 .6 2.7 1.5.7.8.95 1.7.75 2.7l-13.2 67.5c-.1 1-.55 1.9-1.35 2.7-.7.7-1.55 1.05-2.55 1.05h-13.95z" fill="#000"/><path d="M954.523 278.826c11.438 0 22.7.742 33.177 2.487a179.173 179.173 0 0 1 30.43 6.717c9.95 3.009 19.68 6.76 29.42 11.471 9.47 4.493 19.21 9.988 28.94 15.964 16.46 10.468 32.65 18.93 49.16 25.69a329.173 329.173 0 0 0 101.75 22.899c17.72 1.265 35.93 2.007 54.87 2.007V540.53c0 33.149-4.23 64.553-12.7 94.475a391.852 391.852 0 0 1-34.44 84.748 449.874 449.874 0 0 1-51.86 75.24 658.858 658.858 0 0 1-65.13 66.821 766.954 766.954 0 0 1-74.35 57.793c-25.93 17.97-52.118 34.676-78.31 49.854l-10.477 6.238-10.476-6.238a1182.422 1182.422 0 0 1-78.839-49.854 679.996 679.996 0 0 1-74.342-57.793 658.008 658.008 0 0 1-65.087-66.821 477.53 477.53 0 0 1-52.123-75.24 425.264 425.264 0 0 1-34.442-84.748 344.14 344.14 0 0 1-12.485-94.475V366.061c18.989 0 37.193-.742 54.916-2.007a356.373 356.373 0 0 0 51.861-7.458c16.719-3.751 33.438-8.724 49.896-15.441a286.574 286.574 0 0 0 48.891-25.428c19.208-12.475 38.678-21.678 57.885-27.741a209.288 209.288 0 0 1 63.865-9.16zm283.837 130.111a417.82 417.82 0 0 1-97.52-16.444 347.531 347.531 0 0 1-89.32-41.131 186.226 186.226 0 0 0-46.31-21.94 169.786 169.786 0 0 0-50.468-7.24 174.346 174.346 0 0 0-50.857 7.24 172.323 172.323 0 0 0-46.185 21.94 346.14 346.14 0 0 1-89.534 41.305c-30.95 8.986-63.341 14.481-97.304 16.488v131.593c0 28.918 3.755 56.571 11.263 83.222a374.029 374.029 0 0 0 31.431 76.024 418.88 418.88 0 0 0 47.145 68.567c18.204 21.416 37.63 41.349 58.584 60.279 20.953 18.973 42.911 36.42 65.873 52.602 23.18 16.226 46.403 30.925 69.584 44.359a978.66 978.66 0 0 0 69.368-44.359 672.85 672.85 0 0 0 66.09-52.602c20.95-18.93 40.42-38.863 58.63-60.279a419.015 419.015 0 0 0 47.14-68.567 359.9 359.9 0 0 0 30.95-76.024 296.86 296.86 0 0 0 11.44-83.222V408.937z" fill="#000" stroke="#000" stroke-width="4"/><path d="M1148.96 469.626l-.01-.208-.16-.136-20.43-17.554-.16-.137-.21.018-18.86 1.626-.2.017-.13.158-202.064 238.578-68.591-97.922-.12-.171-.206-.035-18.576-3.158-.205-.035-.17.121-21.501 15.372-.167.119-.035.203-3.205 18.576-.035.203.119.169 88.653 126.595.067.095.101.056 10.078 5.572.098.055.113.007 21.223 1.3.12.008.11-.049 10.867-4.736.107-.047.075-.089 224.534-265.404.13-.156-.01-.203-1.35-18.808z" fill="#000" stroke="#000"/><defs><linearGradient id="paint0_linear_512_171" x1="181.828" y1=".053" x2="1460.45" y2="1644.2" gradientUnits="userSpaceOnUse"><stop stop-color="#D6C8FF"/><stop offset=".99" stop-color="#EFAE9F"/></linearGradient></defs></svg>