<svg width="2880" height="1728" fill="none" xmlns="http://www.w3.org/2000/svg"><g clip-path="url(#clip0_435_54)"><path fill="url(#paint0_linear_435_54)" d="M0 0h2880v1728H0z"/><path d="M-55 588.954v-69.176c0-108.381 606.231-143.461 909.347-147.453C938.809 308.853 2288.44 453.643 2935 602.843v134.135c0 6.841-6.24 11.869-12.85 10.109-200.52-53.39-1328.82-129.857-1928.318-227.309-332.781-54.095-770.203-6.854-1035.745 78.767-6.5 2.096-13.087-2.761-13.087-9.591z" fill="#EBF4FF"/><path d="M645.766 464.479L2880 621V0H0v508.599c250.33-76.194 507.346-62.328 645.766-44.12z" fill="url(#paint1_diamond_435_54)"/><g clip-path="url(#clip1_435_54)"><ellipse opacity=".6" cx="2579" cy="1422" rx="199" ry="210" fill="#AE9FE8"/><ellipse cx="2758.5" cy="1323.5" rx="105.5" ry="111.5" fill="#AE9CEC" fill-opacity=".8"/><ellipse cx="2773.5" cy="430" rx="72.5" ry="73" fill="#AE9CEC"/><ellipse cx="2683" cy="484" rx="79" ry="84" fill="#9F80BF" fill-opacity=".16"/><ellipse cx="2773.5" cy="515" rx="39.5" ry="42" fill="#AE9CEC" fill-opacity=".6"/><ellipse cx="142" cy="305.5" rx="92" ry="97.5" fill="#E4B9C4"/><ellipse cx="292" cy="253" rx="112" ry="119" fill="#F2CCD2" fill-opacity=".32"/></g></g><path opacity=".4" d="M549.14 1289.58a218.284 218.284 0 0 0-5.427 27.86c-1.206 9.4-2.05 19.05-2.533 28.94-30.874-3.62-60.301-10.85-88.281-21.71-27.98-10.85-53.909-24.72-77.789-41.61-23.879-16.88-45.588-36.42-65.125-58.61-19.538-22.19-36.181-46.31-49.93-72.36-13.749-26.05-24.362-53.55-31.839-82.5-7.477-28.94-11.216-58.97-11.216-90.09 0-34.011 4.342-66.815 13.025-98.414 8.684-31.599 21.106-61.147 37.266-88.645 16.161-27.498 35.458-52.463 57.89-74.896 22.432-22.433 47.517-41.73 75.256-57.891 27.738-16.161 57.166-28.583 88.281-37.267 31.116-8.683 64.04-13.146 98.774-13.387 34.01 0 66.693 4.342 98.05 13.025 31.357 8.684 60.904 21.227 88.643 37.629 27.739 16.403 52.703 35.7 74.894 57.891 22.191 22.191 41.608 47.277 58.251 75.258 16.644 27.98 29.066 57.408 37.267 88.283 8.201 30.875 12.663 63.68 13.387 98.414h-25.689a375.48 375.48 0 0 0-10.492-16.282c-3.618-5.306-7.839-10.372-12.664-15.196-1.447-20.985-5.185-41.368-11.216-61.147H454.708a757.092 757.092 0 0 0-4.342 45.951 970.329 970.329 0 0 0-1.809 46.674c0 15.679.483 31.12 1.448 46.31.964 15.2 2.532 30.64 4.703 46.31h132.784c0 7.72.603 15.44 1.809 23.16a262.876 262.876 0 0 0 4.703 23.16H462.668c2.894 13.75 6.754 28.82 11.578 45.22a350.919 350.919 0 0 0 18.09 48.13c7.236 15.67 15.558 30.39 24.965 44.14s20.02 24.96 31.839 33.65zm331.055-449.018c-9.407-19.538-20.503-37.87-33.287-54.996-12.783-17.126-27.256-32.804-43.417-47.036-16.16-14.231-33.286-26.895-51.376-37.99-18.091-11.096-37.628-20.142-58.613-27.137 8.683 12.061 16.402 24.845 23.155 38.353a494.975 494.975 0 0 1 18.453 41.609 396.273 396.273 0 0 1 14.11 43.418 760.99 760.99 0 0 1 10.131 43.779h120.844zm-292.703-185.25c-12.06 0-23.156 3.257-33.287 9.77-10.13 6.512-19.537 15.075-28.221 25.689-8.683 10.613-16.402 22.553-23.155 35.819a480.356 480.356 0 0 0-18.453 40.886c-5.547 13.99-10.01 27.256-13.387 39.799-3.376 12.543-6.15 23.639-8.321 33.287h249.648c-1.93-9.407-4.704-20.502-8.322-33.287-3.618-12.784-8.08-26.05-13.387-39.799a432.543 432.543 0 0 0-18.09-40.524c-6.754-13.266-14.473-25.327-23.156-36.181-8.683-10.855-18.211-19.418-28.583-25.689-10.372-6.272-21.467-9.528-33.286-9.77zm-105.648 17.73c-20.503 6.995-40.04 15.919-58.613 26.774a306.91 306.91 0 0 0-51.739 37.991 351.464 351.464 0 0 0-43.417 47.398c-13.025 17.126-24.12 35.578-33.286 55.357h120.844c2.653-13.266 5.909-27.377 9.769-42.332 3.859-14.955 8.683-29.91 14.472-44.865 5.789-14.955 12.06-29.307 18.814-43.056 6.754-13.749 14.472-26.172 23.156-37.267zM263.311 979.5c0 32.08 4.463 62.96 13.387 92.62h131.337a756.303 756.303 0 0 1-4.342-45.95c-.965-15.19-1.447-30.75-1.447-46.67 0-15.679.482-31.116 1.447-46.312a787.671 787.671 0 0 1 4.342-46.313H276.698c-8.924 29.669-13.387 60.544-13.387 92.625zm30.754 138.94c9.407 19.54 20.503 37.87 33.287 54.99 12.783 17.13 27.256 32.93 43.417 47.4 16.16 14.47 33.527 27.02 52.1 37.63 18.573 10.61 38.11 19.66 58.613 27.14-8.683-12.06-16.402-24.85-23.156-38.36a493.924 493.924 0 0 1-18.452-41.6 397.22 397.22 0 0 1-14.111-43.42 1047.778 1047.778 0 0 1-10.492-43.78H294.065zm560.441 65.49c15.679 7.96 29.91 17.73 42.694 29.3 12.784 11.58 23.638 24.61 32.563 39.08 8.924 14.47 15.919 29.91 20.984 46.31 5.066 16.4 7.478 33.53 7.237 51.38h-46.312c0-19.06-3.618-37.03-10.854-53.91-7.236-16.89-17.126-31.6-29.668-44.14-12.543-12.55-27.377-22.56-44.503-30.03-17.125-7.48-35.095-11.1-53.909-10.86-19.297 0-37.267 3.62-53.91 10.86-16.643 7.23-31.357 17.12-44.14 29.67-12.784 12.54-22.794 27.37-30.03 44.5-7.237 17.13-10.855 35.1-10.855 53.91h-46.311c0-17.61 2.412-34.61 7.236-51.02 4.824-16.4 11.698-31.96 20.623-46.67s19.779-27.74 32.563-39.08c12.784-11.33 27.015-21.1 42.693-29.3-18.09-13.03-32.08-29.31-41.97-48.85-9.889-19.54-14.834-40.52-14.834-62.96 0-19.05 3.618-37.02 10.855-53.91 7.236-16.88 17.125-31.594 29.668-44.137 12.542-12.543 27.256-22.553 44.14-30.031 16.885-7.478 34.975-11.096 54.272-10.854 19.055 0 37.025 3.618 53.909 10.854 16.885 7.236 31.598 17.126 44.141 29.669 12.542 12.543 22.552 27.379 30.03 44.499 7.477 17.13 11.095 35.1 10.854 53.91 0 22.2-4.945 43.06-14.834 62.6s-24 35.94-42.332 49.21zm-81.768-19.18c12.784 0 24.723-2.41 35.819-7.24 11.095-4.82 20.985-11.45 29.668-19.9 8.683-8.44 15.317-18.21 19.899-29.3 4.583-11.1 6.995-23.16 7.237-36.19 0-12.78-2.412-24.72-7.237-35.81-4.824-11.1-11.457-20.99-19.899-29.67-8.442-8.687-18.211-15.321-29.306-19.904-11.096-4.583-23.156-6.995-36.181-7.236-12.784 0-24.724 2.412-35.819 7.236-11.096 4.825-20.985 11.458-29.669 19.904-8.683 8.44-15.316 18.21-19.899 29.3-4.583 11.1-6.995 23.16-7.236 36.18 0 12.79 2.412 24.73 7.236 35.82 4.824 11.1 11.457 20.99 19.899 29.67 8.443 8.69 18.211 15.32 29.307 19.9 11.095 4.59 23.156 7 36.181 7.24z" fill="url(#paint2_linear_435_54)"/><defs><linearGradient id="paint0_linear_435_54" x1="322.5" y1="142" x2="1281" y2="1198" gradientUnits="userSpaceOnUse"><stop stop-color="#E8B2B5"/><stop offset="1" stop-color="#AFA5F2"/></linearGradient><radialGradient id="paint1_diamond_435_54" cx="0" cy="0" r="1" gradientUnits="userSpaceOnUse" gradientTransform="rotate(11.301 278.462 -355.492) scale(3152.61 5780.12)"><stop stop-color="#F3B2AB"/><stop offset="0" stop-color="#EBB3B0"/><stop offset="1" stop-color="#AAA4F6"/></radialGradient><linearGradient id="paint2_linear_435_54" x1="217" y1="1350" x2="872.148" y2="750.89" gradientUnits="userSpaceOnUse"><stop stop-color="#2D39D7"/><stop offset=".661" stop-color="#6648E2"/><stop offset="1" stop-color="#AD5BF0"/></linearGradient><clipPath id="clip0_435_54"><path fill="#fff" d="M0 0h2880v1728H0z"/></clipPath><clipPath id="clip1_435_54"><path fill="#fff" d="M0 0h2880v1728H0z"/></clipPath></defs></svg>