<svg width="278" height="172" fill="none" xmlns="http://www.w3.org/2000/svg"><rect width="277.119" height="171.006" rx="10" fill="url(#paint0_linear_507_242)"/><ellipse cx="115" cy="84.5" rx="56" ry="59.5" fill="#E1DBF3" fill-opacity=".33"/><ellipse cx="170.5" cy="94.5" rx="46.5" ry="43.5" fill="#C5B9E9" fill-opacity=".4"/><path d="M118.541 22.752a.39.39 0 0 1-.288-.112.389.389 0 0 1-.112-.288v-1.088c0-.117.037-.213.112-.288a.39.39 0 0 1 .288-.112h4.144c.949 0 1.744.139 2.384.416.64.277 1.12.704 1.44 1.28.32.576.48 1.317.48 2.224V29.6a.389.389 0 0 1-.112.288.37.37 0 0 1-.272.112h-1.52a.39.39 0 0 1-.288-.112.369.369 0 0 1-.112-.272v-4.752c0-.683-.165-1.205-.496-1.568-.331-.363-.864-.544-1.6-.544h-4.048zm1.84-1.024h.64c.256 0 .432.053.528.16.107.107.144.224.112.352-.096.363-.176.71-.24 1.04-.064.32-.107.645-.128.976-.021.32-.032.688-.032 1.104l.096 4.24a.389.389 0 0 1-.112.288.39.39 0 0 1-.288.112l-3.04-.016a.37.37 0 0 1-.272-.112.389.389 0 0 1-.112-.288v-1.008c0-.117.037-.213.112-.288a.37.37 0 0 1 .272-.112l1.28.016v-2.8c0-.373.005-.725.016-1.056.021-.33.059-.667.112-1.008.064-.341.155-.704.272-1.088a.894.894 0 0 1 .24-.352c.107-.107.288-.16.544-.16zM129.378 30a.388.388 0 0 1-.288-.112.389.389 0 0 1-.112-.288v-8.336c0-.117.037-.213.112-.288a.388.388 0 0 1 .288-.112h1.6c.106 0 .197.037.272.112.074.075.112.17.112.288V29.6a.393.393 0 0 1-.112.288.372.372 0 0 1-.272.112h-1.6zm4.388 0a.372.372 0 0 1-.272-.112.393.393 0 0 1-.112-.288v-1.184c0-.107.038-.197.112-.272a.372.372 0 0 1 .272-.112h2.32c.726 0 1.259-.181 1.6-.544.352-.373.544-.896.576-1.568a9.44 9.44 0 0 0 .016-.496 8.59 8.59 0 0 0-.016-.48c-.021-.683-.208-1.205-.56-1.568-.352-.363-.89-.544-1.616-.544h-2.32a.372.372 0 0 1-.272-.112.373.373 0 0 1-.112-.272v-1.184c0-.117.038-.213.112-.288a.372.372 0 0 1 .272-.112h2.4c1.003 0 1.814.165 2.432.496.619.33 1.078.8 1.376 1.408.31.608.48 1.328.512 2.16.011.192.016.357.016.496s-.005.31-.016.512c-.032.821-.202 1.541-.512 2.16a3.13 3.13 0 0 1-1.376 1.408c-.618.33-1.429.496-2.432.496h-2.4zm13.008-7.168h-4.464a.388.388 0 0 1-.288-.112.369.369 0 0 1-.112-.272v-1.184c0-.117.037-.213.112-.288a.388.388 0 0 1 .288-.112h4.784c.704 0 1.328.144 1.872.432.554.277.986.71 1.296 1.296.32.576.48 1.301.48 2.176V29.6a.393.393 0 0 1-.112.288.39.39 0 0 1-.288.112h-4.272a.388.388 0 0 1-.288-.112.389.389 0 0 1-.112-.288v-1.088c0-.117.037-.213.112-.288a.388.388 0 0 1 .288-.112h2.368v-3.216c0-.437-.075-.81-.224-1.12a1.553 1.553 0 0 0-.592-.704 1.519 1.519 0 0 0-.848-.24zM142.166 30a.369.369 0 0 1-.272-.112.319.319 0 0 1-.08-.288l1.6-7.312a.435.435 0 0 1 .144-.256.32.32 0 0 1 .272-.096l1.28.016c.117.01.213.064.288.16a.324.324 0 0 1 .08.288l-1.408 7.2a.47.47 0 0 1-.144.288.372.372 0 0 1-.272.112h-1.488zm14.69.16c-1.44 0-2.507-.352-3.2-1.056-.683-.715-1.024-1.701-1.024-2.96v-4.88c0-.117.037-.213.111-.288a.392.392 0 0 1 .289-.112h4c1.034 0 1.856.155 2.464.464.608.299 1.05.736 1.328 1.312.277.565.432 1.253.464 2.064.01.107.016.267.016.48v.624c0 .203-.006.357-.016.464-.032.81-.198 1.51-.496 2.096-.288.576-.752 1.019-1.392 1.328-.64.31-1.488.464-2.544.464zm-.016-1.968c.821 0 1.392-.16 1.712-.48.33-.32.506-.827.528-1.52.01-.107.016-.25.016-.432v-.544c0-.181-.006-.325-.016-.432-.022-.683-.208-1.19-.56-1.52-.342-.341-.864-.512-1.568-.512h-2.192v3.36c0 .693.176 1.216.528 1.568.362.341.88.512 1.552.512zM118.375 82.158c2.709 0 5.391-.545 7.893-1.605a20.603 20.603 0 0 0 6.691-4.569 21.112 21.112 0 0 0 4.471-6.838 21.472 21.472 0 0 0 1.57-8.067c0-2.768-.533-5.51-1.57-8.067a21.11 21.11 0 0 0-4.471-6.838 20.603 20.603 0 0 0-6.691-4.57A20.238 20.238 0 0 0 118.375 40c-5.47 0-10.716 2.22-14.584 6.174-3.868 3.953-6.041 9.315-6.041 14.905s2.173 10.952 6.041 14.905c3.868 3.953 9.114 6.174 14.584 6.174zm34.833 35.689c3.497 1.101 7.856 1.785 13.292 1.785 27.5 0 27.5-17.566 27.5-17.566 0-2.796-1.086-5.476-3.02-7.453a10.201 10.201 0 0 0-7.292-3.087h-30.507c2.664 2.833 4.149 6.611 4.143 10.54v2.6l-.014.388a26.394 26.394 0 0 1-.705 4.638 28.831 28.831 0 0 1-3.392 8.15l-.005.005zm29.334-52.084c0 2.153-.415 4.285-1.221 6.274a16.432 16.432 0 0 1-3.478 5.319 16.018 16.018 0 0 1-5.204 3.554 15.74 15.74 0 0 1-6.139 1.248 15.74 15.74 0 0 1-6.139-1.248 16.018 16.018 0 0 1-5.204-3.554 16.432 16.432 0 0 1-3.478-5.319 16.712 16.712 0 0 1-1.221-6.274c0-4.348 1.69-8.518 4.699-11.593 3.008-3.074 7.088-4.802 11.343-4.802s8.335 1.728 11.343 4.802c3.009 3.075 4.699 7.245 4.699 11.593zM84 102.066c0-2.796 1.087-5.476 3.02-7.453a10.2 10.2 0 0 1 7.293-3.087h48.125c2.735 0 5.358 1.11 7.292 3.087a10.658 10.658 0 0 1 3.02 7.453v2.342s0 24.592-34.375 24.592S84 104.408 84 104.408v-2.342z" fill="#000"/><defs><linearGradient id="paint0_linear_507_242" x1="26.091" x2="209.568" y2="235.927" gradientUnits="userSpaceOnUse"><stop stop-color="#D6C8FF"/><stop offset=".99" stop-color="#EFAE9F"/></linearGradient></defs></svg>