<svg width="2880" height="1728" fill="none" xmlns="http://www.w3.org/2000/svg"><g clip-path="url(#clip0_435_109)"><path fill="url(#paint0_linear_435_109)" d="M0 0h2880v1728H0z"/><path d="M-55 588.954v-69.176c0-108.381 606.231-143.461 909.347-147.453C938.809 308.853 2288.44 453.643 2935 602.843v134.135c0 6.841-6.24 11.869-12.85 10.109-200.52-53.39-1328.82-129.857-1928.318-227.309-332.781-54.095-770.203-6.854-1035.745 78.767-6.5 2.096-13.087-2.761-13.087-9.591z" fill="#EBF4FF"/><path d="M645.766 464.479L2880 621V0H0v508.599c250.33-76.194 507.346-62.328 645.766-44.12z" fill="url(#paint1_diamond_435_109)"/><g clip-path="url(#clip1_435_109)"><ellipse opacity=".6" cx="2488" cy="1174" rx="199" ry="210" fill="#AE9FE8"/><ellipse cx="2667.5" cy="1075.5" rx="105.5" ry="111.5" fill="#AE9CEC" fill-opacity=".8"/><ellipse cx="142" cy="305.5" rx="92" ry="97.5" fill="#E4B9C4"/><ellipse cx="292" cy="253" rx="112" ry="119" fill="#F2CCD2" fill-opacity=".32"/></g><g clip-path="url(#clip2_435_109)"><ellipse opacity=".6" cx="2488" cy="1174" rx="199" ry="210" fill="#AE9FE8"/><ellipse cx="2667.5" cy="1075.5" rx="105.5" ry="111.5" fill="#AE9CEC" fill-opacity=".8"/><ellipse cx="142" cy="305.5" rx="92" ry="97.5" fill="#E4B9C4"/><ellipse cx="292" cy="253" rx="112" ry="119" fill="#F2CCD2" fill-opacity=".32"/></g><path opacity=".4" d="M780.872 1128.91c-1.8 6.84-3.15 13.77-4.05 20.79-.9 7.02-1.53 14.22-1.89 21.6-23.041-2.7-45.002-8.1-65.883-16.2-20.881-8.1-40.232-18.45-58.053-31.05-17.821-12.6-34.022-27.19-48.603-43.75-14.58-16.56-27.001-34.56-37.261-54-10.261-19.44-18.181-39.964-23.762-61.565-5.58-21.602-8.37-44.013-8.37-67.235 0-25.382 3.24-49.864 9.72-73.445 6.481-23.582 15.751-45.634 27.812-66.155 12.06-20.522 26.461-39.153 43.202-55.894s35.462-31.142 56.163-43.203c20.701-12.061 42.662-21.332 65.883-27.812 23.221-6.481 47.793-9.811 73.714-9.991 25.381 0 49.772 3.24 73.174 9.721 23.401 6.48 45.452 15.841 66.153 28.082 20.701 12.241 39.332 26.642 55.889 43.203 16.56 16.561 31.06 35.282 43.48 56.164 12.42 20.881 21.69 42.843 27.81 65.885 6.12 23.041 9.45 47.523 9.99 73.445h-19.17c-2.52-4.14-5.13-8.191-7.83-12.151-2.7-3.96-5.85-7.74-9.45-11.341-1.08-15.661-3.87-30.872-8.37-45.633H710.399a565.262 565.262 0 0 0-3.24 34.292 722.67 722.67 0 0 0-1.35 34.833c0 11.701.36 23.222 1.08 34.562a468.448 468.448 0 0 0 3.51 34.563h99.095c0 5.76.45 11.521 1.35 17.281.9 5.761 2.07 11.521 3.51 17.284h-98.015c2.16 10.26 5.04 21.51 8.641 33.75 3.6 12.24 8.1 24.21 13.5 35.91 5.401 11.7 11.611 22.68 18.631 32.94 7.021 10.27 14.941 18.64 23.761 25.12zm247.058-335.098c-7.02-14.581-15.3-28.262-24.84-41.042-9.537-12.781-20.337-24.482-32.398-35.103-12.061-10.621-24.841-20.071-38.342-28.352-13.501-8.281-28.081-15.031-43.742-20.252a208.498 208.498 0 0 1 17.281 28.623 369.287 369.287 0 0 1 13.77 31.052 295.494 295.494 0 0 1 10.531 32.402 567.508 567.508 0 0 1 7.56 32.672h90.18zm-218.436-138.25c-9.001 0-17.281 2.431-24.841 7.291-7.561 4.86-14.581 11.251-21.061 19.171-6.481 7.921-12.241 16.832-17.281 26.732a358.226 358.226 0 0 0-13.771 30.513c-4.14 10.44-7.47 20.341-9.991 29.702-2.52 9.36-4.59 17.641-6.21 24.841h186.31c-1.441-7.02-3.511-15.301-6.211-24.841-2.7-9.541-6.03-19.442-9.99-29.702a322.944 322.944 0 0 0-13.501-30.243c-5.04-9.9-10.8-18.901-17.281-27.002-6.48-8.1-13.59-14.491-21.331-19.171-7.74-4.68-16.021-7.11-24.841-7.291zm-78.844 13.231a240.128 240.128 0 0 0-43.742 19.982 228.987 228.987 0 0 0-38.612 28.352 262.323 262.323 0 0 0-32.402 35.373c-9.72 12.78-18.001 26.551-24.841 41.312h90.184c1.981-9.9 4.411-20.431 7.291-31.592 2.88-11.161 6.48-22.321 10.8-33.482 4.321-11.161 9.001-21.872 14.041-32.133 5.04-10.26 10.801-19.531 17.281-27.812zM567.562 897.5c0 23.942 3.33 46.983 9.99 69.125h98.015a565.262 565.262 0 0 1-3.24-34.292 549.827 549.827 0 0 1-1.08-34.833c0-11.701.36-23.222 1.08-34.562.72-11.341 1.8-22.862 3.24-34.563h-98.015c-6.66 22.142-9.99 45.183-9.99 69.125zm22.951 103.69c7.02 14.58 15.301 28.26 24.841 41.04 9.541 12.78 20.341 24.57 32.402 35.37 12.06 10.8 25.021 20.16 38.882 28.09 13.86 7.92 28.441 14.67 43.742 20.25-6.48-9-12.241-18.54-17.281-28.63a369.722 369.722 0 0 1-13.771-31.05 295.67 295.67 0 0 1-10.53-32.4 780.275 780.275 0 0 1-7.831-32.67h-90.454zm418.247 48.87c11.7 5.94 22.32 13.23 31.87 21.87 9.54 8.64 17.64 18.36 24.3 29.16 6.66 10.81 11.88 22.33 15.66 34.57 3.78 12.24 5.58 25.02 5.4 38.34h-34.56c0-14.22-2.7-27.63-8.1-40.23-5.4-12.6-12.79-23.58-22.15-32.95-9.36-9.36-20.43-16.83-33.207-22.41-12.781-5.58-26.192-8.28-40.232-8.1-14.401 0-27.812 2.7-40.232 8.1-12.421 5.4-23.401 12.78-32.942 22.14-9.54 9.37-17.011 20.44-22.411 33.22-5.4 12.78-8.1 26.19-8.1 40.23h-34.562c0-13.14 1.8-25.83 5.4-38.07 3.6-12.24 8.731-23.85 15.391-34.84 6.66-10.98 14.761-20.7 24.301-29.16 9.541-8.46 20.161-15.75 31.862-21.87-13.501-9.72-23.941-21.87-31.322-36.45-7.38-14.583-11.07-30.244-11.07-46.985 0-14.221 2.7-27.632 8.1-40.233 5.4-12.601 12.781-23.582 22.141-32.942 9.361-9.361 20.341-16.832 32.942-22.412 12.6-5.58 26.101-8.281 40.502-8.1 14.221 0 27.631 2.7 40.232 8.1 12.597 5.4 23.577 12.781 32.937 22.142 9.36 9.36 16.84 20.431 22.42 33.212 5.58 12.781 8.28 26.192 8.1 40.233 0 16.561-3.69 32.132-11.07 46.715-7.38 14.58-17.92 26.82-31.6 36.72zm-61.019-14.31c9.54 0 18.451-1.8 26.731-5.4a73.606 73.606 0 0 0 22.141-14.85c6.477-6.3 11.427-13.59 14.847-21.873 3.42-8.281 5.22-17.281 5.4-27.002 0-9.541-1.8-18.451-5.4-26.732a73.67 73.67 0 0 0-14.847-22.142c-6.3-6.48-13.59-11.43-21.871-14.851-8.28-3.42-17.281-5.22-27.001-5.4-9.541 0-18.451 1.8-26.732 5.4a73.652 73.652 0 0 0-22.141 14.851c-6.48 6.301-11.43 13.591-14.85 21.872-3.421 8.281-5.221 17.281-5.401 27.002 0 9.541 1.8 18.451 5.401 26.732a73.59 73.59 0 0 0 14.85 22.143c6.301 6.48 13.591 11.43 21.871 14.85 8.281 3.42 17.281 5.22 27.002 5.4z" fill="url(#paint2_linear_435_109)"/></g><defs><linearGradient id="paint0_linear_435_109" x1="322.5" y1="142" x2="1281" y2="1198" gradientUnits="userSpaceOnUse"><stop stop-color="#E8B2B5"/><stop offset="1" stop-color="#AFA5F2"/></linearGradient><radialGradient id="paint1_diamond_435_109" cx="0" cy="0" r="1" gradientUnits="userSpaceOnUse" gradientTransform="rotate(11.301 278.462 -355.492) scale(3152.61 5780.12)"><stop stop-color="#F3B2AB"/><stop offset="0" stop-color="#EBB3B0"/><stop offset="1" stop-color="#AAA4F6"/></radialGradient><linearGradient id="paint2_linear_435_109" x1="533" y1="1174" x2="1021.93" y2="726.891" gradientUnits="userSpaceOnUse"><stop stop-color="#2D39D7"/><stop offset=".661" stop-color="#6648E2"/><stop offset="1" stop-color="#AD5BF0"/></linearGradient><clipPath id="clip0_435_109"><path fill="#fff" d="M0 0h2880v1728H0z"/></clipPath><clipPath id="clip1_435_109"><path fill="#fff" d="M0 0h2880v1728H0z"/></clipPath><clipPath id="clip2_435_109"><path fill="#fff" d="M0 0h2880v1728H0z"/></clipPath></defs></svg>