<svg width="1932" height="1192" fill="none" xmlns="http://www.w3.org/2000/svg"><rect x=".789" y=".146" width="1931.21" height="1191.72" rx="10" fill="url(#paint0_linear_512_158)"/><ellipse cx="802.211" cy="589.018" rx="390.257" ry="414.649" fill="#E1DBF3" fill-opacity=".33"/><ellipse cx="1188.98" cy="658.705" rx="324.053" ry="303.146" fill="#C5B9E9" fill-opacity=".4"/><path d="M913.535 265.65c-1.1 0-2-.35-2.7-1.05-.7-.7-1.05-1.6-1.05-2.7v-74.4c0-1 .35-1.85 1.05-2.55.7-.8 1.6-1.2 2.7-1.2h13.65c1.1 0 2 .4 2.7 1.2.7.7 1.05 1.55 1.05 2.55v74.4c0 1.1-.35 2-1.05 2.7-.7.7-1.6 1.05-2.7 1.05h-13.65zm33.75-26.85c-.9.2-1.8-.1-2.7-.9-.8-.8-1.2-1.7-1.2-2.7v-12.6c0-.9.35-1.75 1.05-2.55.7-.9 1.55-1.55 2.55-1.95l5.1-2.1c3.1-1.3 5.95-2.95 8.55-4.95 2.6-2 4.65-4.7 6.15-8.1 1.5-3.4 2.25-7.8 2.25-13.2 0-4.8-.6-8.65-1.8-11.55-1.1-3-3-5.15-5.7-6.45-2.7-1.3-6.4-1.95-11.1-1.95h-36.9c-1 0-1.9-.35-2.7-1.05-.7-.7-1.05-1.55-1.05-2.55v-11.25c0-1 .35-1.85 1.05-2.55.8-.7 1.7-1.05 2.7-1.05h41.1c9 0 16.15 1.4 21.45 4.2 5.4 2.8 9.25 7.05 11.55 12.75 2.4 5.6 3.6 12.65 3.6 21.15 0 6.8-1.05 12.85-3.15 18.15-2 5.3-4.8 9.9-8.4 13.8-3.6 3.8-7.65 7-12.15 9.6-4.5 2.5-9.2 4.45-14.1 5.85l-6.15 1.95zm64.395-1.8c-1.1 0-2-.35-2.7-1.05-.7-.7-1.05-1.6-1.05-2.7V155.1c0-1.1.35-2 1.05-2.7.7-.7 1.6-1.05 2.7-1.05h15c1 0 1.85.35 2.55 1.05.7.7 1.05 1.6 1.05 2.7v78.15c0 1.1-.35 2-1.05 2.7-.7.7-1.55 1.05-2.55 1.05h-15zm41.14-35.25c-1.1 0-2-.35-2.7-1.05-.7-.7-1.05-1.6-1.05-2.7v-42.9c0-1.1.35-2 1.05-2.7.7-.7 1.6-1.05 2.7-1.05h15c1 0 1.85.35 2.55 1.05.7.7 1.05 1.6 1.05 2.7V198c0 1.1-.35 2-1.05 2.7-.7.7-1.55 1.05-2.55 1.05h-15zm72.39 35.25c-2.2 0-3.3-1.1-3.3-3.3v-48c0-6.2.65-11 1.95-14.4 1.4-3.4 3.5-5.1 6.3-5.1h21.6c-2.5 0-4.55 2.05-6.15 6.15-1.5 4-2.25 8.95-2.25 14.85v46.5c0 1-.45 1.8-1.35 2.4-.8.6-1.7.9-2.7.9h-14.1zm-36.45-67.95c-1.1 0-2-.35-2.7-1.05-.7-.7-1.05-1.6-1.05-2.7v-10.2c0-1.1.35-2 1.05-2.7.7-.7 1.6-1.05 2.7-1.05h66.15c1 0 1.85.35 2.55 1.05.7.7 1.05 1.6 1.05 2.7v10.2c0 1-.35 1.9-1.05 2.7-.6.7-1.45 1.05-2.55 1.05h-66.15z" fill="#000"/><path d="M792.918 959.526H1170.4M868.414 808.534v150.992M1094.9 808.534v150.992M641.926 393.305a37.747 37.747 0 0 1 37.748-37.748h603.966c10.02 0 19.62 3.977 26.7 11.056a37.78 37.78 0 0 1 11.05 26.692v377.481a37.781 37.781 0 0 1-11.05 26.692 37.754 37.754 0 0 1-26.7 11.056H679.674a37.747 37.747 0 0 1-37.748-37.748V393.305z" stroke="#000" stroke-width="40" stroke-linecap="round" stroke-linejoin="round"/><path d="M830.672 657.537l113.244-113.244 75.494 75.496 113.25-113.244" stroke="#000" stroke-width="40" stroke-linecap="round" stroke-linejoin="round"/><defs><linearGradient id="paint0_linear_512_158" x1="182.617" y1=".147" x2="1461.24" y2="1644.29" gradientUnits="userSpaceOnUse"><stop stop-color="#D6C8FF"/><stop offset=".99" stop-color="#EFAE9F"/></linearGradient></defs></svg>