<svg width="278" height="172" fill="none" xmlns="http://www.w3.org/2000/svg"><rect width="277.119" height="171.006" rx="10" fill="url(#paint0_linear_507_255)"/><ellipse cx="115" cy="84.5" rx="56" ry="59.5" fill="#E1DBF3" fill-opacity=".33"/><ellipse cx="170.5" cy="94.5" rx="46.5" ry="43.5" fill="#C5B9E9" fill-opacity=".4"/><path d="M110.525 22.752a.39.39 0 0 1-.288-.112.393.393 0 0 1-.112-.288v-1.088c0-.117.038-.213.112-.288a.39.39 0 0 1 .288-.112h4.144c.95 0 1.744.139 2.384.416.64.277 1.12.704 1.44 1.28.32.576.48 1.317.48 2.224V29.6a.389.389 0 0 1-.112.288.369.369 0 0 1-.272.112h-1.52a.39.39 0 0 1-.288-.112.373.373 0 0 1-.112-.272v-4.752c0-.683-.165-1.205-.496-1.568-.33-.363-.864-.544-1.6-.544h-4.048zm1.84-1.024h.64c.256 0 .432.053.528.16.107.107.144.224.112.352-.096.363-.176.71-.24 1.04-.064.32-.106.645-.128.976-.021.32-.032.688-.032 1.104l.096 4.24a.389.389 0 0 1-.112.288.388.388 0 0 1-.288.112l-3.04-.016a.372.372 0 0 1-.272-.112.393.393 0 0 1-.112-.288v-1.008c0-.117.038-.213.112-.288a.372.372 0 0 1 .272-.112l1.28.016v-2.8c0-.373.006-.725.016-1.056.022-.33.059-.667.112-1.008.064-.341.155-.704.272-1.088a.915.915 0 0 1 .24-.352c.107-.107.288-.16.544-.16zM121.362 30a.39.39 0 0 1-.288-.112.389.389 0 0 1-.112-.288v-8.336c0-.117.037-.213.112-.288a.39.39 0 0 1 .288-.112h1.6a.37.37 0 0 1 .272.112c.075.075.112.17.112.288V29.6a.389.389 0 0 1-.112.288.37.37 0 0 1-.272.112h-1.6zm4.053 0a.369.369 0 0 1-.272-.112.389.389 0 0 1-.112-.288v-1.088c0-.117.037-.213.112-.288a.369.369 0 0 1 .272-.112h4.976v1.536a.322.322 0 0 1-.112.256.406.406 0 0 1-.272.096h-4.592zm3.28 0a.388.388 0 0 1-.288-.112.495.495 0 0 1-.112-.288l-.24-4.928a5.848 5.848 0 0 0-.144-1.088c-.064-.299-.192-.528-.384-.688-.182-.16-.464-.24-.848-.24h-.768a.369.369 0 0 1-.272-.112.389.389 0 0 1-.112-.288v-1.088c0-.107.037-.197.112-.272a.369.369 0 0 1 .272-.112h.816c.672 0 1.237.08 1.696.24.469.16.842.405 1.12.736.288.33.501.741.64 1.232.138.48.224 1.045.256 1.696l.24 4.912a.326.326 0 0 1-.112.288.372.372 0 0 1-.272.112h-1.6zm8.282-7.168h-4.464a.39.39 0 0 1-.288-.112.369.369 0 0 1-.112-.272v-1.184c0-.117.037-.213.112-.288a.39.39 0 0 1 .288-.112h4.784c.704 0 1.328.144 1.872.432.555.277.987.71 1.296 1.296.32.576.48 1.301.48 2.176V29.6a.389.389 0 0 1-.112.288.39.39 0 0 1-.288.112h-4.272a.39.39 0 0 1-.288-.112.389.389 0 0 1-.112-.288v-1.088c0-.117.037-.213.112-.288a.39.39 0 0 1 .288-.112h2.368v-3.216c0-.437-.075-.81-.224-1.12a1.553 1.553 0 0 0-.592-.704 1.517 1.517 0 0 0-.848-.24zM132.369 30a.37.37 0 0 1-.272-.112.322.322 0 0 1-.08-.288l1.6-7.312a.435.435 0 0 1 .144-.256.321.321 0 0 1 .272-.096l1.28.016c.117.01.213.064.288.16a.322.322 0 0 1 .08.288l-1.408 7.2a.47.47 0 0 1-.144.288.37.37 0 0 1-.272.112h-1.488zm10.882-3.76a.388.388 0 0 1-.288-.112.389.389 0 0 1-.112-.288v-4.576c0-.117.037-.213.112-.288a.388.388 0 0 1 .288-.112h1.6c.106 0 .197.037.272.112.074.075.112.17.112.288v4.576a.393.393 0 0 1-.112.288.372.372 0 0 1-.272.112h-1.6zM153.548 30a.369.369 0 0 1-.272-.112.369.369 0 0 1-.112-.272v-4.752c0-.683-.171-1.205-.512-1.568-.331-.363-.859-.544-1.584-.544h-3.44a.388.388 0 0 1-.288-.112.389.389 0 0 1-.112-.288v-1.088c0-.117.037-.213.112-.288a.388.388 0 0 1 .288-.112h3.52c1.418 0 2.49.325 3.216.976.736.65 1.104 1.653 1.104 3.008V29.6a.393.393 0 0 1-.112.288.39.39 0 0 1-.288.112h-1.52zm-5.92 0a.388.388 0 0 1-.288-.112.389.389 0 0 1-.112-.288v-4.88c0-.107.037-.197.112-.272a.363.363 0 0 1 .288-.128h1.52a.35.35 0 0 1 .272.128.373.373 0 0 1 .112.272v4.88a.393.393 0 0 1-.112.288.372.372 0 0 1-.272.112h-1.52zm14.458-7.168h-4.464a.39.39 0 0 1-.288-.112.373.373 0 0 1-.112-.272v-1.184c0-.117.038-.213.112-.288a.39.39 0 0 1 .288-.112h4.784c.704 0 1.328.144 1.872.432.555.277.987.71 1.296 1.296.32.576.48 1.301.48 2.176V29.6a.389.389 0 0 1-.112.288.388.388 0 0 1-.288.112h-4.272a.39.39 0 0 1-.288-.112.393.393 0 0 1-.112-.288v-1.088c0-.117.038-.213.112-.288a.39.39 0 0 1 .288-.112h2.368v-3.216c0-.437-.074-.81-.224-1.12a1.547 1.547 0 0 0-.592-.704 1.517 1.517 0 0 0-.848-.24zM157.478 30a.372.372 0 0 1-.272-.112.324.324 0 0 1-.08-.288l1.6-7.312a.446.446 0 0 1 .144-.256.322.322 0 0 1 .272-.096l1.28.016c.118.01.214.064.288.16a.319.319 0 0 1 .08.288l-1.408 7.2a.46.46 0 0 1-.144.288.369.369 0 0 1-.272.112h-1.488z" fill="#000"/><path d="M136.969 40.002c1.642 0 3.258.107 4.761.357 1.481.194 2.942.516 4.366.964a28.72 28.72 0 0 1 4.222 1.646c1.359.645 2.756 1.433 4.153 2.29 2.362 1.503 4.686 2.717 7.054 3.687a47.241 47.241 0 0 0 14.601 3.286c2.543.182 5.155.288 7.874.288v25.035c0 4.757-.608 9.263-1.823 13.557a56.274 56.274 0 0 1-4.942 12.161 64.603 64.603 0 0 1-7.442 10.797 94.432 94.432 0 0 1-9.346 9.588 109.9 109.9 0 0 1-10.668 8.293 164.963 164.963 0 0 1-11.237 7.154l-1.504.895-1.503-.895a169.711 169.711 0 0 1-11.313-7.154 97.727 97.727 0 0 1-10.668-8.293 94.467 94.467 0 0 1-9.339-9.588 68.494 68.494 0 0 1-7.48-10.797 61.011 61.011 0 0 1-4.942-12.16A49.387 49.387 0 0 1 90 77.554V52.52c2.725 0 5.337-.106 7.88-.288a51.162 51.162 0 0 0 7.442-1.07c2.399-.538 4.799-1.252 7.16-2.216 2.451-.988 4.8-2.21 7.016-3.649 2.756-1.79 5.55-3.11 8.306-3.98a30.025 30.025 0 0 1 9.164-1.315zm40.729 18.67a59.974 59.974 0 0 1-13.994-2.36 49.9 49.9 0 0 1-12.816-5.901 26.704 26.704 0 0 0-6.646-3.148 24.354 24.354 0 0 0-7.241-1.04 25.01 25.01 0 0 0-7.298 1.04 24.714 24.714 0 0 0-6.627 3.148 49.68 49.68 0 0 1-12.848 5.927c-4.441 1.29-9.089 2.078-13.962 2.366v18.883c0 4.15.538 8.117 1.616 11.942a53.683 53.683 0 0 0 4.51 10.909 60.098 60.098 0 0 0 6.765 9.839 91.354 91.354 0 0 0 8.406 8.649 99.03 99.03 0 0 0 9.453 7.549 138.383 138.383 0 0 0 9.985 6.365 140.416 140.416 0 0 0 9.953-6.365 96.354 96.354 0 0 0 9.484-7.549 91.306 91.306 0 0 0 8.413-8.649 60.118 60.118 0 0 0 6.765-9.839 51.614 51.614 0 0 0 4.441-10.91 42.603 42.603 0 0 0 1.641-11.941V58.672z" fill="#000" stroke="#000" stroke-width="4"/><path d="M165.298 67.35l-.015-.207-.158-.136-2.932-2.52-.16-.136-.209.018-2.706.233-.205.018-.133.157-28.636 33.811-9.524-13.596-.12-.171-.205-.035-2.666-.453-.205-.035-.17.12-3.085 2.207-.167.119-.035.202-.46 2.666-.035.203.118.169 12.722 18.166.066.094.101.056 1.446.8.099.055.113.006 3.045.187.12.007.111-.048 1.559-.679.107-.047.075-.089 32.22-38.084.131-.156-.014-.203-.193-2.699z" fill="#000" stroke="#000"/><defs><linearGradient id="paint0_linear_507_255" x1="26.091" x2="209.568" y2="235.927" gradientUnits="userSpaceOnUse"><stop stop-color="#D6C8FF"/><stop offset=".99" stop-color="#EFAE9F"/></linearGradient></defs></svg>