<svg width="1932" height="1192" fill="none" xmlns="http://www.w3.org/2000/svg"><rect y=".146" width="1931.21" height="1191.72" rx="10" fill="url(#paint0_linear_512_182)"/><ellipse cx="801.422" cy="589.018" rx="390.257" ry="414.649" fill="#E1DBF3" fill-opacity=".33"/><ellipse cx="1188.19" cy="658.705" rx="324.053" ry="303.146" fill="#C5B9E9" fill-opacity=".4"/><path d="M703.635 169.05c-1.1 0-2-.35-2.7-1.05-.7-.7-1.05-1.6-1.05-2.7v-10.2c0-1.1.35-2 1.05-2.7.7-.7 1.6-1.05 2.7-1.05h38.85c8.9 0 16.35 1.3 22.35 3.9 6 2.6 10.5 6.6 13.5 12s4.5 12.35 4.5 20.85v45.15c0 1.1-.35 2-1.05 2.7-.7.7-1.55 1.05-2.55 1.05h-14.25c-1.1 0-2-.35-2.7-1.05-.7-.7-1.05-1.55-1.05-2.55v-44.55c0-6.4-1.55-11.3-4.65-14.7-3.1-3.4-8.1-5.1-15-5.1h-37.95zm17.25-9.6h6c2.4 0 4.05.5 4.95 1.5 1 1 1.35 2.1 1.05 3.3-.9 3.4-1.65 6.65-2.25 9.75-.6 3-1 6.05-1.2 9.15-.2 3-.3 6.45-.3 10.35l.9 39.75c0 1.1-.35 2-1.05 2.7-.7.7-1.6 1.05-2.7 1.05l-28.5-.15c-1 0-1.85-.35-2.55-1.05-.7-.7-1.05-1.6-1.05-2.7v-9.45c0-1.1.35-2 1.05-2.7.7-.7 1.55-1.05 2.55-1.05l12 .15V193.8c0-3.5.05-6.8.15-9.9.2-3.1.55-6.25 1.05-9.45.6-3.2 1.45-6.6 2.55-10.2.5-1.3 1.25-2.4 2.25-3.3 1-1 2.7-1.5 5.1-1.5zM805.229 237c-1.1 0-2-.35-2.7-1.05-.7-.7-1.05-1.6-1.05-2.7V155.1c0-1.1.35-2 1.05-2.7.7-.7 1.6-1.05 2.7-1.05h15c1 0 1.85.35 2.55 1.05.7.7 1.05 1.6 1.05 2.7v78.15c0 1.1-.35 2-1.05 2.7-.7.7-1.55 1.05-2.55 1.05h-15zm41.144-35.25c-1.1 0-2-.35-2.7-1.05-.7-.7-1.05-1.6-1.05-2.7v-42.9c0-1.1.35-2 1.05-2.7.7-.7 1.6-1.05 2.7-1.05h15c1 0 1.85.35 2.55 1.05.7.7 1.05 1.6 1.05 2.7V198c0 1.1-.35 2-1.05 2.7-.7.7-1.55 1.05-2.55 1.05h-15zM883.506 237c-1 0-1.85-.35-2.55-1.05-.7-.7-1.05-1.6-1.05-2.7v-10.2c0-1.1.35-2 1.05-2.7.7-.7 1.55-1.05 2.55-1.05h46.65v14.4c0 1-.35 1.8-1.05 2.4-.7.6-1.55.9-2.55.9h-43.05zm30.75 0c-1.1 0-2-.35-2.7-1.05-.6-.7-.95-1.6-1.05-2.7l-2.25-46.2c-.2-4-.65-7.4-1.35-10.2-.6-2.8-1.8-4.95-3.6-6.45-1.7-1.5-4.35-2.25-7.95-2.25h-7.2c-1 0-1.85-.35-2.55-1.05-.7-.7-1.05-1.6-1.05-2.7v-10.2c0-1 .35-1.85 1.05-2.55.7-.7 1.55-1.05 2.55-1.05h7.65c6.3 0 11.6.75 15.9 2.25 4.4 1.5 7.9 3.8 10.5 6.9 2.7 3.1 4.7 6.95 6 11.55 1.3 4.5 2.1 9.8 2.4 15.9l2.25 46.05c.1 1.1-.25 2-1.05 2.7-.7.7-1.55 1.05-2.55 1.05h-15zm37.146 0c-1 0-1.85-.35-2.55-1.05-.7-.7-1.05-1.6-1.05-2.7v-11.1c0-1 .35-1.85 1.05-2.55.7-.7 1.55-1.05 2.55-1.05h21.75c6.8 0 11.8-1.7 15-5.1 3.3-3.5 5.1-8.4 5.4-14.7.1-1.9.15-3.45.15-4.65 0-1.2-.05-2.7-.15-4.5-.2-6.4-1.95-11.3-5.25-14.7-3.3-3.4-8.35-5.1-15.15-5.1h-21.75c-1 0-1.85-.35-2.55-1.05-.7-.7-1.05-1.55-1.05-2.55v-11.1c0-1.1.35-2 1.05-2.7.7-.7 1.55-1.05 2.55-1.05h22.5c9.4 0 17 1.55 22.8 4.65 5.798 3.1 10.098 7.5 12.898 13.2 2.9 5.7 4.5 12.45 4.8 20.25.1 1.8.15 3.35.15 4.65 0 1.3-.05 2.9-.15 4.8-.3 7.7-1.9 14.45-4.8 20.25-2.8 5.7-7.1 10.1-12.898 13.2-5.8 3.1-13.4 4.65-22.8 4.65h-22.5zm112.818 0c-2.2 0-3.3-1.1-3.3-3.3v-48c0-6.2.65-11 1.95-14.4 1.4-3.4 3.5-5.1 6.3-5.1h21.6c-2.5 0-4.55 2.05-6.15 6.15-1.5 4-2.25 8.95-2.25 14.85v46.5c0 1-.45 1.8-1.35 2.4-.8.6-1.7.9-2.7.9h-14.1zm-36.45-67.95c-1.1 0-2-.35-2.7-1.05-.7-.7-1.05-1.6-1.05-2.7v-10.2c0-1.1.35-2 1.05-2.7.7-.7 1.6-1.05 2.7-1.05h66.15c1 0 1.85.35 2.55 1.05.7.7 1.05 1.6 1.05 2.7v10.2c0 1-.35 1.9-1.05 2.7-.6.7-1.45 1.05-2.55 1.05h-66.15zm84.55 76.35c-1.1.2-2.1-.05-3-.75-.8-.6-1.2-1.4-1.2-2.4v-10.5c0-1 .25-1.85.75-2.55.6-.8 1.4-1.35 2.4-1.65l32.55-8.7c5.6-1.5 9.9-3.45 12.9-5.85 3-2.5 5.05-5.5 6.15-9 1.1-3.5 1.65-7.5 1.65-12v-37.05c0-1 .35-1.85 1.05-2.55.7-.7 1.55-1.05 2.55-1.05h14.25c1.1 0 2 .35 2.7 1.05.7.7 1.05 1.6 1.05 2.7v43.5c0 6.3-1.5 12.05-4.5 17.25-2.9 5.1-7.15 9.45-12.75 13.05-5.5 3.5-12.15 6.05-19.95 7.65l-36.6 8.85zm19.35-12l-21.15-76.05c-.2-.8-.4-1.4-.6-1.8-.1-.4-.15-.8-.15-1.2 0-.8.3-1.5.9-2.1.6-.6 1.3-.9 2.1-.9h15.75c1.9 0 3.05.75 3.45 2.25l19.2 76.35-19.5 3.45zM1296.21 565.892h-246.76l99.72-102.628c-99.36-98.262-260.224-101.901-359.584-3.64a250.191 250.191 0 0 0 0 356.288c99.36 98.625 260.224 98.625 359.584 0 49.5-48.766 74.25-105.904 74.25-177.962h72.79c0 72.058-32.03 165.589-96.08 228.912-127.75 126.648-335.205 126.648-462.953 0-127.385-126.283-128.477-331.54-.728-457.824 127.748-126.284 332.651-126.284 460.401 0l99.36-102.265v259.119zm-309.36-77.153v154.67l127.38 75.698-26.2 44.035-155.773-92.438V488.739h54.593z" fill="#000"/><defs><linearGradient id="paint0_linear_512_182" x1="181.828" y1=".147" x2="1460.45" y2="1644.29" gradientUnits="userSpaceOnUse"><stop stop-color="#D6C8FF"/><stop offset=".99" stop-color="#EFAE9F"/></linearGradient></defs></svg>