<svg width="278" height="172" fill="none" xmlns="http://www.w3.org/2000/svg"><rect width="277.119" height="171.006" rx="10" fill="url(#paint0_linear_507_282)"/><ellipse cx="115" cy="84.5" rx="56" ry="59.5" fill="#E1DBF3" fill-opacity=".33"/><ellipse cx="170.5" cy="94.5" rx="46.5" ry="43.5" fill="#C5B9E9" fill-opacity=".4"/><path d="M114.588 22.752a.388.388 0 0 1-.288-.112.389.389 0 0 1-.112-.288v-1.088c0-.117.037-.213.112-.288a.388.388 0 0 1 .288-.112h4.144c.949 0 1.744.139 2.384.416.64.277 1.12.704 1.44 1.28.32.576.48 1.317.48 2.224V29.6a.393.393 0 0 1-.112.288.372.372 0 0 1-.272.112h-1.52a.388.388 0 0 1-.288-.112.369.369 0 0 1-.112-.272v-4.752c0-.683-.166-1.205-.496-1.568-.331-.363-.864-.544-1.6-.544h-4.048zm1.84-1.024h.64c.256 0 .432.053.528.16.106.107.144.224.112.352-.096.363-.176.71-.24 1.04-.064.32-.107.645-.128.976-.022.32-.032.688-.032 1.104l.096 4.24a.393.393 0 0 1-.112.288.39.39 0 0 1-.288.112l-3.04-.016a.369.369 0 0 1-.272-.112.389.389 0 0 1-.112-.288v-1.008c0-.117.037-.213.112-.288a.369.369 0 0 1 .272-.112l1.28.016v-2.8c0-.373.005-.725.016-1.056.021-.33.058-.667.112-1.008a9.97 9.97 0 0 1 .272-1.088.894.894 0 0 1 .24-.352c.106-.107.288-.16.544-.16zM125.424 30a.39.39 0 0 1-.288-.112.393.393 0 0 1-.112-.288v-8.336c0-.117.038-.213.112-.288a.39.39 0 0 1 .288-.112h1.6c.107 0 .198.037.272.112.075.075.112.17.112.288V29.6a.389.389 0 0 1-.112.288.369.369 0 0 1-.272.112h-1.6zm4.389-3.76a.39.39 0 0 1-.288-.112.389.389 0 0 1-.112-.288v-4.576c0-.117.037-.213.112-.288a.39.39 0 0 1 .288-.112h1.6a.37.37 0 0 1 .272.112c.075.075.112.17.112.288v4.576a.389.389 0 0 1-.112.288.37.37 0 0 1-.272.112h-1.6zm3.961 3.76a.37.37 0 0 1-.272-.112.389.389 0 0 1-.112-.288v-1.088c0-.117.037-.213.112-.288a.37.37 0 0 1 .272-.112h4.976v1.536a.32.32 0 0 1-.112.256.404.404 0 0 1-.272.096h-4.592zm3.28 0a.39.39 0 0 1-.288-.112.502.502 0 0 1-.112-.288l-.24-4.928a5.684 5.684 0 0 0-.144-1.088c-.064-.299-.192-.528-.384-.688-.181-.16-.464-.24-.848-.24h-.768a.37.37 0 0 1-.272-.112.389.389 0 0 1-.112-.288v-1.088c0-.107.037-.197.112-.272a.37.37 0 0 1 .272-.112h.816c.672 0 1.237.08 1.696.24.469.16.843.405 1.12.736.288.33.501.741.64 1.232.139.48.224 1.045.256 1.696l.24 4.912a.323.323 0 0 1-.112.288.37.37 0 0 1-.272.112h-1.6zm3.962 0a.372.372 0 0 1-.272-.112.393.393 0 0 1-.112-.288v-1.184c0-.107.038-.197.112-.272a.372.372 0 0 1 .272-.112h2.32c.726 0 1.259-.181 1.6-.544.352-.373.544-.896.576-1.568a9.44 9.44 0 0 0 .016-.496 8.59 8.59 0 0 0-.016-.48c-.021-.683-.208-1.205-.56-1.568-.352-.363-.89-.544-1.616-.544h-2.32a.372.372 0 0 1-.272-.112.373.373 0 0 1-.112-.272v-1.184c0-.117.038-.213.112-.288a.372.372 0 0 1 .272-.112h2.4c1.003 0 1.814.165 2.432.496.619.33 1.078.8 1.376 1.408.31.608.48 1.328.512 2.16.011.192.016.357.016.496s-.005.31-.016.512c-.032.821-.202 1.541-.512 2.16a3.13 3.13 0 0 1-1.376 1.408c-.618.33-1.429.496-2.432.496h-2.4zm12.034 0c-.235 0-.352-.117-.352-.352v-5.12c0-.661.069-1.173.208-1.536.149-.363.373-.544.672-.544h2.304c-.267 0-.486.219-.656.656-.16.427-.24.955-.24 1.584v4.96a.294.294 0 0 1-.144.256.47.47 0 0 1-.288.096h-1.504zm-3.888-7.248a.388.388 0 0 1-.288-.112.389.389 0 0 1-.112-.288v-1.088c0-.117.037-.213.112-.288a.388.388 0 0 1 .288-.112h7.056c.106 0 .197.037.272.112.074.075.112.17.112.288v1.088a.43.43 0 0 1-.112.288.34.34 0 0 1-.272.112h-7.056zm9.019 8.144a.388.388 0 0 1-.32-.08.305.305 0 0 1-.128-.256v-1.12c0-.107.027-.197.08-.272a.484.484 0 0 1 .256-.176l3.472-.928c.597-.16 1.056-.368 1.376-.624a2.02 2.02 0 0 0 .656-.96c.117-.373.176-.8.176-1.28v-3.952c0-.107.037-.197.112-.272a.37.37 0 0 1 .272-.112h1.52a.39.39 0 0 1 .288.112c.075.075.112.17.112.288v4.64c0 .672-.16 1.285-.48 1.84-.309.544-.763 1.008-1.36 1.392-.587.373-1.296.645-2.128.816l-3.904.944zm2.064-1.28l-2.256-8.112a.993.993 0 0 0-.064-.192.51.51 0 0 1-.016-.128c0-.085.032-.16.096-.224a.308.308 0 0 1 .224-.096h1.68c.203 0 .325.08.368.24l2.048 8.144-2.08.368zM186 81.182h-35.409l14.31-14.726c-14.258-14.1-37.342-14.623-51.599-.523a35.901 35.901 0 0 0 0 51.126c14.257 14.152 37.341 14.152 51.599 0 7.102-6.998 10.654-15.197 10.654-25.537H186c0 10.34-4.596 23.761-13.788 32.848-18.331 18.173-48.1 18.173-66.431 0-18.279-18.121-18.435-47.574-.104-65.696 18.331-18.12 47.734-18.12 66.065 0L186 44v37.182zm-44.392-11.07v22.194l18.279 10.862-3.76 6.319-22.353-13.265v-26.11h7.834z" fill="#000"/><defs><linearGradient id="paint0_linear_507_282" x1="26.091" x2="209.568" y2="235.927" gradientUnits="userSpaceOnUse"><stop stop-color="#D6C8FF"/><stop offset=".99" stop-color="#EFAE9F"/></linearGradient></defs></svg>