<svg width="1932" height="1192" fill="none" xmlns="http://www.w3.org/2000/svg"><rect x=".789" y=".055" width="1931.21" height="1191.72" rx="10" fill="url(#paint0_linear_512_150)"/><ellipse cx="802.211" cy="588.926" rx="390.257" ry="414.649" fill="#E1DBF3" fill-opacity=".33"/><ellipse cx="1188.98" cy="658.613" rx="324.053" ry="303.146" fill="#C5B9E9" fill-opacity=".4"/><path d="M773.571 131.05c-1.1 0-2-.35-2.7-1.05-.7-.7-1.05-1.6-1.05-2.7v-10.2c0-1.1.35-2 1.05-2.7.7-.7 1.6-1.05 2.7-1.05h38.85c8.9 0 16.35 1.3 22.35 3.9 6 2.6 10.5 6.6 13.5 12s4.5 12.35 4.5 20.85v45.15c0 1.1-.35 2-1.05 2.7-.7.7-1.55 1.05-2.55 1.05h-14.25c-1.1 0-2-.35-2.7-1.05-.7-.7-1.05-1.55-1.05-2.55v-44.55c0-6.4-1.55-11.3-4.65-14.7-3.1-3.4-8.1-5.1-15-5.1h-37.95zm17.25-9.6h6c2.4 0 4.05.5 4.95 1.5 1 1 1.35 2.1 1.05 3.3-.9 3.4-1.65 6.65-2.25 9.75-.6 3-1 6.05-1.2 9.15-.2 3-.3 6.45-.3 10.35l.9 39.75c0 1.1-.35 2-1.05 2.7-.7.7-1.6 1.05-2.7 1.05l-28.5-.15c-1 0-1.85-.35-2.55-1.05-.7-.7-1.05-1.6-1.05-2.7v-9.45c0-1.1.35-2 1.05-2.7.7-.7 1.55-1.05 2.55-1.05l12 .15V155.8c0-3.5.05-6.8.15-9.9.2-3.1.55-6.25 1.05-9.45.6-3.2 1.45-6.6 2.55-10.2.5-1.3 1.25-2.4 2.25-3.3 1-1 2.7-1.5 5.1-1.5zM875.164 199c-1.1 0-2-.35-2.7-1.05-.7-.7-1.05-1.6-1.05-2.7V117.1c0-1.1.35-2 1.05-2.7.7-.7 1.6-1.05 2.7-1.05h15c1 0 1.85.35 2.55 1.05.7.7 1.05 1.6 1.05 2.7v78.15c0 1.1-.35 2-1.05 2.7-.7.7-1.55 1.05-2.55 1.05h-15zm41.145 0c-1 0-1.85-.35-2.55-1.05-.7-.7-1.05-1.6-1.05-2.7v-11.1c0-1 .35-1.85 1.05-2.55.7-.7 1.55-1.05 2.55-1.05h21.75c6.8 0 11.8-1.7 15-5.1 3.3-3.5 5.1-8.4 5.4-14.7.1-1.9.15-3.45.15-4.65 0-1.2-.05-2.7-.15-4.5-.2-6.4-1.95-11.3-5.25-14.7-3.3-3.4-8.35-5.1-15.15-5.1h-21.75c-1 0-1.85-.35-2.55-1.05-.7-.7-1.05-1.55-1.05-2.55v-11.1c0-1.1.35-2 1.05-2.7.7-.7 1.55-1.05 2.55-1.05h22.5c9.4 0 17 1.55 22.8 4.65 5.8 3.1 10.1 7.5 12.9 13.2 2.9 5.7 4.5 12.45 4.8 20.25.1 1.8.15 3.35.15 4.65 0 1.3-.05 2.9-.15 4.8-.3 7.7-1.9 14.45-4.8 20.25-2.8 5.7-7.1 10.1-12.9 13.2-5.8 3.1-13.4 4.65-22.8 4.65h-22.5zm121.941-67.2h-41.846c-1.1 0-2-.35-2.7-1.05-.7-.7-1.05-1.55-1.05-2.55v-11.1c0-1.1.35-2 1.05-2.7.7-.7 1.6-1.05 2.7-1.05h44.846c6.6 0 12.45 1.35 17.55 4.05 5.2 2.6 9.25 6.65 12.15 12.15 3 5.4 4.5 12.2 4.5 20.4v45.3c0 1.1-.35 2-1.05 2.7-.7.7-1.6 1.05-2.7 1.05h-40.05c-1.1 0-2-.35-2.7-1.05-.7-.7-1.05-1.6-1.05-2.7v-10.2c0-1.1.35-2 1.05-2.7.7-.7 1.6-1.05 2.7-1.05h22.2v-30.15c0-4.1-.7-7.6-2.1-10.5-1.3-2.9-3.15-5.1-5.55-6.6-2.3-1.5-4.95-2.25-7.95-2.25zM995.054 199c-1 0-1.85-.35-2.55-1.05-.7-.8-.95-1.7-.75-2.7l14.996-68.55c.2-1 .65-1.8 1.35-2.4.7-.7 1.55-1 2.55-.9l12 .15c1.1.1 2 .6 2.7 1.5.7.8.95 1.7.75 2.7l-13.2 67.5c-.1 1-.55 1.9-1.35 2.7-.7.7-1.55 1.05-2.55 1.05h-13.946zm137.716 1.5c-13.5 0-23.5-3.3-30-9.9-6.4-6.7-9.6-15.95-9.6-27.75V117.1c0-1.1.35-2 1.05-2.7.7-.7 1.6-1.05 2.7-1.05h37.5c9.7 0 17.4 1.45 23.1 4.35 5.7 2.8 9.85 6.9 12.45 12.3 2.6 5.3 4.05 11.75 4.35 19.35.1 1 .15 2.5.15 4.5v5.85c0 1.9-.05 3.35-.15 4.35-.3 7.6-1.85 14.15-4.65 19.65-2.7 5.4-7.05 9.55-13.05 12.45-6 2.9-13.95 4.35-23.85 4.35zm-.15-18.45c7.7 0 13.05-1.5 16.05-4.5 3.1-3 4.75-7.75 4.95-14.25.1-1 .15-2.35.15-4.05v-5.1c0-1.7-.05-3.05-.15-4.05-.2-6.4-1.95-11.15-5.25-14.25-3.2-3.2-8.1-4.8-14.7-4.8h-20.55v31.5c0 6.5 1.65 11.4 4.95 14.7 3.4 3.2 8.25 4.8 14.55 4.8zM825.731 572.604c18.875 0 37.566-3.8 55.004-11.182 17.439-7.382 33.284-18.202 46.631-31.843 13.347-13.641 23.934-29.834 31.157-47.657a149.692 149.692 0 0 0 10.941-56.215c0-19.291-3.717-38.392-10.941-56.215-7.223-17.822-17.81-34.016-31.157-47.656-13.347-13.641-29.192-24.461-46.631-31.844a141.052 141.052 0 0 0-55.004-11.181c-38.12 0-74.679 15.476-101.635 43.025-26.955 27.548-42.098 64.912-42.098 103.871 0 38.96 15.143 76.323 42.098 103.872 26.956 27.548 63.515 43.025 101.635 43.025zm242.749 248.712c24.37 7.672 54.75 12.438 92.63 12.438 191.64 0 191.64-122.414 191.64-122.414 0-19.48-7.57-38.162-21.05-51.936-13.47-13.774-31.75-21.513-50.81-21.513h-212.6c18.56 19.741 28.91 46.069 28.87 73.449v18.117l-.09 2.709a184.537 184.537 0 0 1-4.92 32.318 200.749 200.749 0 0 1-23.64 56.8l-.03.032zm204.42-362.965c0 15.004-2.89 29.861-8.51 43.723-5.62 13.861-13.85 26.457-24.23 37.066-10.38 10.609-22.71 19.025-36.27 24.767a109.687 109.687 0 0 1-42.78 8.697c-14.68 0-29.22-2.955-42.78-8.697-13.57-5.742-25.89-14.158-36.27-24.767a114.329 114.329 0 0 1-24.23-37.066 116.404 116.404 0 0 1-8.51-43.723c0-30.302 11.77-59.363 32.74-80.789 20.96-21.427 49.4-33.464 79.05-33.464s58.08 12.037 79.05 33.464c20.96 21.426 32.74 50.487 32.74 80.789zM586.176 711.34c0-19.48 7.571-38.162 21.049-51.936 13.478-13.774 31.757-21.513 50.817-21.513H993.42c19.06 0 37.34 7.739 50.82 21.513 13.47 13.774 21.05 32.456 21.05 51.936v16.322s0 171.379-239.559 171.379c-239.555 0-239.555-171.379-239.555-171.379V711.34z" fill="#000"/><defs><linearGradient id="paint0_linear_512_150" x1="182.617" y1=".055" x2="1461.24" y2="1644.2" gradientUnits="userSpaceOnUse"><stop stop-color="#D6C8FF"/><stop offset=".99" stop-color="#EFAE9F"/></linearGradient></defs></svg>