<svg width="279" height="172" fill="none" xmlns="http://www.w3.org/2000/svg"><rect x=".888" y=".845" width="277.119" height="171.006" rx="10" fill="url(#paint0_linear_505_213)"/><ellipse cx="118" cy="83.5" rx="56" ry="59.5" fill="#E1DBF3" fill-opacity=".33"/><ellipse cx="173.5" cy="93.5" rx="46.5" ry="43.5" fill="#C5B9E9" fill-opacity=".4"/><path d="M188.774 122.973l-4.02-15.542-16.035-62.216c-.477-1.803-1.62-3.337-3.18-4.27a6.611 6.611 0 0 0-5.153-.71l-14.969 4.175c-.374.098-.733.25-1.066.453a6.905 6.905 0 0 0-2.473-2.505 6.587 6.587 0 0 0-3.34-.915h-15.502a6.515 6.515 0 0 0-3.876 1.257 6.515 6.515 0 0 0-3.876-1.257H99.782a6.658 6.658 0 0 0-4.795 2.062A7.18 7.18 0 0 0 93 48.485v80.473c0 1.868.715 3.659 1.987 4.979A6.657 6.657 0 0 0 99.782 136h15.502a6.511 6.511 0 0 0 3.876-1.258 6.511 6.511 0 0 0 3.876 1.258h15.502a6.655 6.655 0 0 0 4.795-2.063 7.178 7.178 0 0 0 1.987-4.979v-57.74l15.357 59.551a7.109 7.109 0 0 0 2.442 3.773 6.67 6.67 0 0 0 4.146 1.458 6.959 6.959 0 0 0 1.744-.252l14.97-4.174c1.732-.484 3.209-1.66 4.108-3.272a7.276 7.276 0 0 0 .687-5.329zm-37.786-53.012l16.859-4.678 10.56 40.79-16.858 4.678-10.561-40.79zm-4.651-19.214a1.03 1.03 0 0 1 .582-.503l14.969-4.174h.242c.211.005.415.074.587.2.173.125.305.3.382.504l3.246 12.675-16.859 4.677-3.246-12.624a1.095 1.095 0 0 1 .097-.755zm-23.301-3.269h15.502c.257 0 .503.106.685.295.182.188.284.444.284.711v61.362h-17.44V48.484c0-.267.102-.523.283-.711a.953.953 0 0 1 .686-.295zm-23.254 0h15.502c.257 0 .504.106.686.295.181.188.283.444.283.711v13.077h-17.44V48.484c0-.267.102-.523.284-.711a.95.95 0 0 1 .685-.295zm15.502 82.486H99.782a.953.953 0 0 1-.685-.294 1.028 1.028 0 0 1-.284-.712V67.597h17.44v61.361c0 .267-.102.523-.283.712a.956.956 0 0 1-.686.294zm23.254 0h-15.502a.956.956 0 0 1-.686-.294 1.03 1.03 0 0 1-.283-.712v-13.077h17.44v13.077c0 .267-.102.523-.284.712a.953.953 0 0 1-.685.294zm43.939-4.225l-14.97 4.175a.933.933 0 0 1-.748-.087.98.98 0 0 1-.292-.26 1.035 1.035 0 0 1-.171-.357l-3.245-12.625 16.858-4.677 3.246 12.624a.994.994 0 0 1-.086.757.944.944 0 0 1-.251.289.9.9 0 0 1-.341.161z" fill="#000"/><defs><linearGradient id="paint0_linear_505_213" x1="26.98" y1=".845" x2="210.456" y2="236.772" gradientUnits="userSpaceOnUse"><stop stop-color="#D6C8FF"/><stop offset=".99" stop-color="#EFAE9F"/></linearGradient></defs></svg>