<svg width="279" height="172" fill="none" xmlns="http://www.w3.org/2000/svg"><rect x=".888" y=".845" width="277.119" height="171.006" rx="10" fill="url(#paint0_linear_505_212)"/><ellipse cx="115" cy="84.5" rx="56" ry="59.5" fill="#E1DBF3" fill-opacity=".33"/><ellipse cx="170.5" cy="94.5" rx="46.5" ry="43.5" fill="#C5B9E9" fill-opacity=".4"/><path d="M175 65.662V133H97V41h52.266L175 65.662zM151 64h13.734L151 50.838V64zm18 5.75h-24v-23h-42v80.5h66v-57.5zm-30 0h-30V64h30v5.75zm-30 5.75h54v5.75h-54V75.5zm0 11.5h54v5.75h-54V87zm0 11.5h54v5.75h-54V98.5zm0 11.5h54v5.75h-54V110z" fill="#000"/><defs><linearGradient id="paint0_linear_505_212" x1="26.98" y1=".845" x2="210.456" y2="236.772" gradientUnits="userSpaceOnUse"><stop stop-color="#D6C8FF"/><stop offset=".99" stop-color="#EFAE9F"/></linearGradient></defs></svg>