<svg width="2880" height="1728" fill="none" xmlns="http://www.w3.org/2000/svg"><g clip-path="url(#clip0_440_174)"><path fill="url(#paint0_linear_440_174)" d="M0 0h2880v1728H0z"/><path d="M-55 588.954v-69.176c0-108.381 606.231-143.461 909.347-147.453C938.809 308.853 2288.44 453.643 2935 602.843v134.135c0 6.841-6.24 11.869-12.85 10.109-200.52-53.39-1328.82-129.857-1928.318-227.309-332.781-54.095-770.203-6.854-1035.745 78.767-6.5 2.096-13.087-2.761-13.087-9.591z" fill="#EBF4FF"/><path d="M645.766 464.479L2880 621V0H0v508.599c250.33-76.194 507.346-62.328 645.766-44.12z" fill="url(#paint1_diamond_440_174)"/><g clip-path="url(#clip1_440_174)"><ellipse opacity=".6" cx="2488" cy="1174" rx="199" ry="210" fill="#AE9FE8"/><ellipse cx="2667.5" cy="1075.5" rx="105.5" ry="111.5" fill="#AE9CEC" fill-opacity=".8"/><ellipse cx="142" cy="305.5" rx="92" ry="97.5" fill="#E4B9C4"/><ellipse cx="292" cy="253" rx="112" ry="119" fill="#F2CCD2" fill-opacity=".32"/></g><g clip-path="url(#clip2_440_174)"><ellipse opacity=".6" cx="2488" cy="1174" rx="199" ry="210" fill="#AE9FE8"/><ellipse cx="2667.5" cy="1075.5" rx="105.5" ry="111.5" fill="#AE9CEC" fill-opacity=".8"/><ellipse cx="142" cy="305.5" rx="92" ry="97.5" fill="#E4B9C4"/><ellipse cx="292" cy="253" rx="112" ry="119" fill="#F2CCD2" fill-opacity=".32"/><g opacity=".4"><path d="M1124.96 980.361l-61.82-61.822a20.592 20.592 0 0 0-14.57-6.033c-5.46 0-10.7 2.17-14.57 6.033L842.499 1110.04V1201h90.96l191.501-191.5c3.87-3.86 6.04-9.11 6.04-14.57 0-5.464-2.17-10.705-6.04-14.569zM916.397 1159.79h-32.684v-32.68l103.037-103.04 32.68 32.68-103.033 103.04zm132.173-132.18l-32.68-32.68 32.68-32.683 32.68 32.683-32.68 32.68zM677.641 912.501h206.072v41.215H677.641v-41.215zm0-123.644h247.287v41.215H677.641v-41.215z" fill="url(#paint2_linear_440_174)"/><path d="M1048.57 665.215A41.255 41.255 0 0 0 1007.36 624H595.215A41.255 41.255 0 0 0 554 665.215v267.894a226.274 226.274 0 0 0 32.246 116.671 226.22 226.22 0 0 0 87.771 83.36l106.663 56.88v-46.72l-87.251-46.53a185.178 185.178 0 0 1-98.214-163.661V665.215h412.145V850.68h41.21V665.215z" fill="url(#paint3_linear_440_174)"/></g></g></g><defs><linearGradient id="paint0_linear_440_174" x1="322.5" y1="142" x2="1281" y2="1198" gradientUnits="userSpaceOnUse"><stop stop-color="#E8B2B5"/><stop offset="1" stop-color="#AFA5F2"/></linearGradient><radialGradient id="paint1_diamond_440_174" cx="0" cy="0" r="1" gradientUnits="userSpaceOnUse" gradientTransform="rotate(11.301 278.462 -355.492) scale(3152.61 5780.12)"><stop stop-color="#F3B2AB"/><stop offset="0" stop-color="#EBB3B0"/><stop offset="1" stop-color="#AAA4F6"/></radialGradient><linearGradient id="paint2_linear_440_174" x1="677.641" y1="1201" x2="1043.49" y2="832.998" gradientUnits="userSpaceOnUse"><stop stop-color="#2D39D7"/><stop offset=".661" stop-color="#6648E2"/><stop offset="1" stop-color="#AD5BF0"/></linearGradient><linearGradient id="paint3_linear_440_174" x1="554" y1="1190.02" x2="1044.06" y2="798.445" gradientUnits="userSpaceOnUse"><stop stop-color="#2D39D7"/><stop offset=".661" stop-color="#6648E2"/><stop offset="1" stop-color="#AD5BF0"/></linearGradient><clipPath id="clip0_440_174"><path fill="#fff" d="M0 0h2880v1728H0z"/></clipPath><clipPath id="clip1_440_174"><path fill="#fff" d="M0 0h2880v1728H0z"/></clipPath><clipPath id="clip2_440_174"><path fill="#fff" d="M0 0h2880v1728H0z"/></clipPath></defs></svg>