<svg width="2880" height="1728" fill="none" xmlns="http://www.w3.org/2000/svg"><g clip-path="url(#clip0_440_173)"><path fill="url(#paint0_linear_440_173)" d="M0 0h2880v1728H0z"/><path d="M-55 588.954v-69.176c0-108.381 606.231-143.461 909.347-147.453C938.809 308.853 2288.44 453.643 2935 602.843v134.135c0 6.841-6.24 11.869-12.85 10.109-200.52-53.39-1328.82-129.857-1928.318-227.309-332.781-54.095-770.203-6.854-1035.745 78.767-6.5 2.096-13.087-2.761-13.087-9.591z" fill="#EBF4FF"/><path d="M645.766 464.479L2880 621V0H0v508.599c250.33-76.194 507.346-62.328 645.766-44.12z" fill="url(#paint1_diamond_440_173)"/><g clip-path="url(#clip1_440_173)"><ellipse opacity=".6" cx="2579" cy="1422" rx="199" ry="210" fill="#AE9FE8"/><ellipse cx="2758.5" cy="1323.5" rx="105.5" ry="111.5" fill="#AE9CEC" fill-opacity=".8"/><ellipse cx="2773.5" cy="430" rx="72.5" ry="73" fill="#AE9CEC"/><ellipse cx="2683" cy="484" rx="79" ry="84" fill="#9F80BF" fill-opacity=".16"/><ellipse cx="2773.5" cy="515" rx="39.5" ry="42" fill="#AE9CEC" fill-opacity=".6"/><ellipse cx="142" cy="305.5" rx="92" ry="97.5" fill="#E4B9C4"/><ellipse cx="292" cy="253" rx="112" ry="119" fill="#F2CCD2" fill-opacity=".32"/></g></g><path opacity=".4" d="M988.842 1130.81l-83.592-83.55a27.87 27.87 0 0 0-19.7-8.15 27.87 27.87 0 0 0-19.699 8.15l-258.94 258.81V1429h122.992l258.939-258.81A27.845 27.845 0 0 0 997 1150.5c0-7.38-2.934-14.47-8.158-19.69zM706.831 1373.3h-44.192v-44.17l139.32-139.25 44.192 44.17-139.32 139.25zm178.719-178.63l-44.192-44.17 44.192-44.17 44.192 44.17-44.192 44.17zM384 1039.1h278.639v55.7H384v-55.7zm0-167.1h334.367v55.7H384V872z" fill="url(#paint2_linear_440_173)"/><path opacity=".4" d="M886 704.703a55.738 55.738 0 0 0-16.345-39.372A55.832 55.832 0 0 0 830.25 649h-557.5a55.832 55.832 0 0 0-39.405 16.331A55.738 55.738 0 0 0 217 704.703v362.067a305.635 305.635 0 0 0 43.618 157.69 305.97 305.97 0 0 0 118.726 112.67L523.625 1414v-63.14l-118.023-62.89a250.379 250.379 0 0 1-97.147-92.18 250.12 250.12 0 0 1-35.705-129.02V704.703h557.5v250.665H886V704.703z" fill="url(#paint3_linear_440_173)"/><defs><linearGradient id="paint0_linear_440_173" x1="322.5" y1="142" x2="1281" y2="1198" gradientUnits="userSpaceOnUse"><stop stop-color="#E8B2B5"/><stop offset="1" stop-color="#AFA5F2"/></linearGradient><radialGradient id="paint1_diamond_440_173" cx="0" cy="0" r="1" gradientUnits="userSpaceOnUse" gradientTransform="rotate(11.301 278.462 -355.492) scale(3152.61 5780.12)"><stop stop-color="#F3B2AB"/><stop offset="0" stop-color="#EBB3B0"/><stop offset="1" stop-color="#AAA4F6"/></radialGradient><linearGradient id="paint2_linear_440_173" x1="384" y1="1429" x2="878.426" y2="931.408" gradientUnits="userSpaceOnUse"><stop stop-color="#2D39D7"/><stop offset=".661" stop-color="#6648E2"/><stop offset="1" stop-color="#AD5BF0"/></linearGradient><linearGradient id="paint3_linear_440_173" x1="217" y1="1414" x2="879.457" y2="884.227" gradientUnits="userSpaceOnUse"><stop stop-color="#2D39D7"/><stop offset=".661" stop-color="#6648E2"/><stop offset="1" stop-color="#AD5BF0"/></linearGradient><clipPath id="clip0_440_173"><path fill="#fff" d="M0 0h2880v1728H0z"/></clipPath><clipPath id="clip1_440_173"><path fill="#fff" d="M0 0h2880v1728H0z"/></clipPath></defs></svg>