<svg width="1932" height="1192" fill="none" xmlns="http://www.w3.org/2000/svg"><rect width="1931.21" height="1191.72" rx="10" fill="url(#paint0_linear_549_59)"/><ellipse cx="801.422" cy="664.871" rx="390.257" ry="414.649" fill="#E1DBF3" fill-opacity=".33"/><ellipse cx="1188.19" cy="734.558" rx="324.053" ry="303.146" fill="#C5B9E9" fill-opacity=".4"/><path d="M522.118 249c-.77 0-1.4-.245-1.89-.735s-.735-1.12-.735-1.89V191.67c0-.77.245-1.4.735-1.89s1.12-.735 1.89-.735h22.575c6.16 0 11.27.875 15.33 2.625 4.13 1.75 7.21 4.515 9.24 8.295 2.1 3.78 3.15 8.715 3.15 14.805v31.605c0 .7-.245 1.33-.735 1.89-.49.49-1.12.735-1.89.735h-47.67zm11.025-12.39h24.78v-21.315c0-4.48-1.12-7.91-3.36-10.29-2.17-2.38-5.635-3.57-10.395-3.57h-11.025v35.175zm54.485-12.285c-.77 0-1.4-.245-1.89-.735s-.735-1.12-.735-1.89v-30.03c0-.77.245-1.4.735-1.89s1.12-.735 1.89-.735h10.5c.7 0 1.295.245 1.785.735s.735 1.12.735 1.89v30.03c0 .77-.245 1.4-.735 1.89a2.43 2.43 0 0 1-1.785.735h-10.5zm56.548-22.365h-29.295c-.77 0-1.4-.245-1.89-.735a2.43 2.43 0 0 1-.735-1.785v-7.77c0-.77.245-1.4.735-1.89s1.12-.735 1.89-.735h31.395c4.62 0 8.715.945 12.285 2.835 3.64 1.82 6.475 4.655 8.505 8.505 2.1 3.78 3.15 8.54 3.15 14.28v31.71c0 .77-.245 1.4-.735 1.89s-1.12.735-1.89.735h-28.035c-.77 0-1.4-.245-1.89-.735s-.735-1.12-.735-1.89v-7.14c0-.77.245-1.4.735-1.89s1.12-.735 1.89-.735h15.54v-21.105c0-2.87-.49-5.32-1.47-7.35-.91-2.03-2.205-3.57-3.885-4.62-1.61-1.05-3.465-1.575-5.565-1.575zM613.936 249a2.43 2.43 0 0 1-1.785-.735c-.49-.56-.665-1.19-.525-1.89l10.5-47.985c.14-.7.455-1.26.945-1.68.49-.49 1.085-.7 1.785-.63l8.4.105c.77.07 1.4.42 1.89 1.05.49.56.665 1.19.525 1.89l-9.24 47.25c-.07.7-.385 1.33-.945 1.89a2.43 2.43 0 0 1-1.785.735h-9.765zm71.937 0c-.77 0-1.4-.245-1.89-.735s-.735-1.12-.735-1.89V191.67c0-.77.245-1.4.735-1.89s1.12-.735 1.89-.735h10.5c.7 0 1.295.245 1.785.735s.735 1.12.735 1.89v54.705c0 .77-.245 1.4-.735 1.89a2.43 2.43 0 0 1-1.785.735h-10.5zm51.271 0c-1.54 0-2.31-.77-2.31-2.31v-33.6c0-4.34.455-7.7 1.365-10.08.98-2.38 2.45-3.57 4.41-3.57h15.12c-1.75 0-3.185 1.435-4.305 4.305-1.05 2.8-1.575 6.265-1.575 10.395v32.55c0 .7-.315 1.26-.945 1.68-.56.42-1.19.63-1.89.63h-9.87zm-25.515-47.565c-.77 0-1.4-.245-1.89-.735s-.735-1.12-.735-1.89v-7.14c0-.77.245-1.4.735-1.89s1.12-.735 1.89-.735h46.305c.7 0 1.295.245 1.785.735s.735 1.12.735 1.89v7.14c0 .7-.245 1.33-.735 1.89-.42.49-1.015.735-1.785.735h-46.305zm81.543 53.445c-.77.14-1.47-.035-2.1-.525-.56-.42-.84-.98-.84-1.68v-7.35c0-.7.175-1.295.525-1.785.42-.56.98-.945 1.68-1.155l22.785-6.09c3.92-1.05 6.93-2.415 9.03-4.095 2.1-1.75 3.535-3.85 4.305-6.3.77-2.45 1.155-5.25 1.155-8.4v-25.935c0-.7.245-1.295.735-1.785a2.43 2.43 0 0 1 1.785-.735h9.975c.77 0 1.4.245 1.89.735s.735 1.12.735 1.89v30.45c0 4.41-1.05 8.435-3.15 12.075-2.03 3.57-5.005 6.615-8.925 9.135-3.85 2.45-8.505 4.235-13.965 5.355l-25.62 6.195zm13.545-8.4l-14.805-53.235c-.14-.56-.28-.98-.42-1.26-.07-.28-.105-.56-.105-.84 0-.56.21-1.05.63-1.47.42-.42.91-.63 1.47-.63h11.025c1.33 0 2.135.525 2.415 1.575l13.44 53.445-13.65 2.415zm75.725 2.52c-1.54 0-2.31-.77-2.31-2.31v-33.6c0-4.34.455-7.7 1.365-10.08.98-2.38 2.45-3.57 4.41-3.57h15.12c-1.75 0-3.185 1.435-4.305 4.305-1.05 2.8-1.575 6.265-1.575 10.395v32.55c0 .7-.315 1.26-.945 1.68-.56.42-1.19.63-1.89.63h-9.87zm-25.515-47.565c-.77 0-1.4-.245-1.89-.735s-.735-1.12-.735-1.89v-7.14c0-.77.245-1.4.735-1.89s1.12-.735 1.89-.735h46.305c.7 0 1.295.245 1.785.735s.735 1.12.735 1.89v7.14c0 .7-.245 1.33-.735 1.89-.42.49-1.015.735-1.785.735h-46.305zm61.595 22.89c-.77 0-1.4-.245-1.89-.735s-.735-1.12-.735-1.89v-30.03c0-.77.245-1.4.735-1.89s1.12-.735 1.89-.735h10.5c.7 0 1.295.245 1.785.735s.735 1.12.735 1.89v30.03c0 .77-.245 1.4-.735 1.89a2.43 2.43 0 0 1-1.785.735h-10.5zm56.548-22.365h-29.295c-.77 0-1.4-.245-1.89-.735a2.43 2.43 0 0 1-.735-1.785v-7.77c0-.77.245-1.4.735-1.89s1.12-.735 1.89-.735h31.395c4.62 0 8.715.945 12.285 2.835 3.64 1.82 6.475 4.655 8.505 8.505 2.1 3.78 3.15 8.54 3.15 14.28v31.71c0 .77-.25 1.4-.74 1.89-.485.49-1.115.735-1.885.735H970.45c-.77 0-1.4-.245-1.89-.735s-.735-1.12-.735-1.89v-7.14c0-.77.245-1.4.735-1.89s1.12-.735 1.89-.735h15.54v-21.105c0-2.87-.49-5.32-1.47-7.35-.91-2.03-2.205-3.57-3.885-4.62-1.61-1.05-3.465-1.575-5.565-1.575zM944.83 249a2.43 2.43 0 0 1-1.785-.735c-.49-.56-.665-1.19-.525-1.89l10.5-47.985c.14-.7.455-1.26.945-1.68.49-.49 1.085-.7 1.785-.63l8.4.105c.77.07 1.4.42 1.89 1.05.49.56.665 1.19.525 1.89l-9.24 47.25c-.07.7-.385 1.33-.945 1.89a2.43 2.43 0 0 1-1.785.735h-9.765zm97.11-47.565c-.77 0-1.4-.245-1.89-.735s-.74-1.12-.74-1.89v-7.14c0-.77.25-1.4.74-1.89s1.12-.735 1.89-.735h27.19c6.23 0 11.45.91 15.65 2.73 4.2 1.82 7.35 4.62 9.45 8.4 2.1 3.78 3.15 8.645 3.15 14.595v31.605c0 .77-.25 1.4-.74 1.89s-1.08.735-1.78.735h-9.98c-.77 0-1.4-.245-1.89-.735s-.73-1.085-.73-1.785v-31.185c0-4.48-1.09-7.91-3.26-10.29-2.17-2.38-5.67-3.57-10.5-3.57h-26.56zm12.07-6.72h4.2c1.68 0 2.84.35 3.47 1.05.7.7.94 1.47.73 2.31-.63 2.38-1.15 4.655-1.57 6.825-.42 2.1-.7 4.235-.84 6.405-.14 2.1-.21 4.515-.21 7.245l.63 27.825c0 .77-.25 1.4-.74 1.89s-1.12.735-1.89.735l-19.95-.105c-.7 0-1.29-.245-1.78-.735s-.74-1.12-.74-1.89v-6.615c0-.77.25-1.4.74-1.89s1.08-.735 1.78-.735l8.4.105V218.76c0-2.45.04-4.76.11-6.93.14-2.17.38-4.375.73-6.615.42-2.24 1.02-4.62 1.79-7.14.35-.91.87-1.68 1.57-2.31.7-.7 1.89-1.05 3.57-1.05zM1113.05 249c-.77 0-1.4-.245-1.89-.735s-.73-1.12-.73-1.89V191.67c0-.77.24-1.4.73-1.89s1.12-.735 1.89-.735h10.5c.7 0 1.3.245 1.79.735s.73 1.12.73 1.89v54.705c0 .77-.24 1.4-.73 1.89s-1.09.735-1.79.735h-10.5zm58.73 0c-.77 0-1.4-.245-1.89-.735a2.435 2.435 0 0 1-.74-1.785v-31.185c0-4.48-1.12-7.91-3.36-10.29-2.17-2.38-5.63-3.57-10.39-3.57h-15.23c-.7 0-1.29-.245-1.78-.735s-.74-1.12-.74-1.89v-7.14c0-.77.25-1.4.74-1.89s1.08-.735 1.78-.735h15.86c6.23 0 11.44.875 15.64 2.625 4.2 1.75 7.35 4.515 9.45 8.295 2.1 3.71 3.15 8.61 3.15 14.7v31.71c0 .77-.24 1.4-.73 1.89s-1.09.735-1.79.735h-9.97zm28.12 0c-.77 0-1.4-.245-1.89-.735s-.73-1.12-.73-1.89V191.67c0-.77.24-1.4.73-1.89s1.12-.735 1.89-.735h10.5c.7 0 1.3.245 1.79.735s.73 1.12.73 1.89v54.705c0 .77-.24 1.4-.73 1.89s-1.09.735-1.79.735h-10.5zm29.33 20.055c-.77 0-1.4-.245-1.89-.735s-.74-1.12-.74-1.89v-52.08c0-.7.25-1.295.74-1.785.49-.56 1.12-.84 1.89-.84h9.55c.77 0 1.4.28 1.89.84.49.49.74 1.085.74 1.785v52.08c0 .77-.25 1.4-.74 1.89s-1.12.735-1.89.735h-9.55zm23.62-18.795c-.63.14-1.26-.07-1.89-.63-.56-.56-.84-1.19-.84-1.89v-8.82c0-.63.25-1.225.74-1.785.49-.63 1.08-1.085 1.78-1.365l3.57-1.47c2.17-.91 4.17-2.065 5.99-3.465 1.82-1.4 3.25-3.29 4.3-5.67 1.05-2.38 1.58-5.46 1.58-9.24 0-3.36-.42-6.055-1.26-8.085-.77-2.1-2.1-3.605-3.99-4.515-1.89-.91-4.48-1.365-7.77-1.365h-25.83c-.7 0-1.33-.245-1.89-.735a2.435 2.435 0 0 1-.74-1.785v-7.875c0-.7.25-1.295.74-1.785.56-.49 1.19-.735 1.89-.735H1258c6.3 0 11.3.98 15.01 2.94 3.78 1.96 6.48 4.935 8.09 8.925 1.68 3.92 2.52 8.855 2.52 14.805 0 4.76-.74 8.995-2.21 12.705-1.4 3.71-3.36 6.93-5.88 9.66-2.52 2.66-5.35 4.9-8.5 6.72a46.654 46.654 0 0 1-9.87 4.095l-4.31 1.365zm72.9-48.3h-29.29c-.77 0-1.4-.245-1.89-.735a2.435 2.435 0 0 1-.74-1.785v-7.77c0-.77.25-1.4.74-1.89s1.12-.735 1.89-.735h31.39c4.62 0 8.72.945 12.29 2.835 3.64 1.82 6.47 4.655 8.5 8.505 2.1 3.78 3.15 8.54 3.15 14.28v31.71c0 .77-.24 1.4-.73 1.89s-1.12.735-1.89.735h-28.04c-.77 0-1.4-.245-1.89-.735s-.73-1.12-.73-1.89v-7.14c0-.77.24-1.4.73-1.89s1.12-.735 1.89-.735h15.54v-21.105c0-2.87-.49-5.32-1.47-7.35-.91-2.03-2.2-3.57-3.88-4.62-1.61-1.05-3.47-1.575-5.57-1.575zM1295.51 249c-.7 0-1.29-.245-1.78-.735-.49-.56-.67-1.19-.53-1.89l10.5-47.985c.14-.7.46-1.26.95-1.68.49-.49 1.08-.7 1.78-.63l8.4.105c.77.07 1.4.42 1.89 1.05.49.56.67 1.19.53 1.89l-9.24 47.25c-.07.7-.39 1.33-.95 1.89-.49.49-1.08.735-1.78.735h-9.77z" fill="#000"/><path d="M1018.33 544.442h66.22m-66.22 132.442h66.22M918.995 809.327H753.442m463.548-132.443V478.221a66.22 66.22 0 0 0-19.4-46.825A66.198 66.198 0 0 0 1150.77 412H687.221A66.22 66.22 0 0 0 621 478.221v397.327a66.22 66.22 0 0 0 66.221 66.221h231.774M753.442 544.442v132.442h132.442V544.442H753.442z" stroke="#000" stroke-width="50" stroke-linecap="round" stroke-linejoin="round"/><path d="M1159.65 917.544a82.752 82.752 0 0 0 24.25-58.54 82.748 82.748 0 0 0-24.25-58.539 82.64 82.64 0 0 0-26.86-17.946 82.724 82.724 0 0 0-31.68-6.302 82.799 82.799 0 0 0-58.54 24.248 82.802 82.802 0 0 0 0 117.079 82.81 82.81 0 0 0 58.54 24.247c21.96 0 43.02-8.722 58.54-24.247zm0 0l57.35 57.347" stroke="#000" stroke-width="50" stroke-linecap="round" stroke-linejoin="round"/><defs><linearGradient id="paint0_linear_549_59" x1="181.828" x2="1460.45" y2="1644.15" gradientUnits="userSpaceOnUse"><stop stop-color="#D6C8FF"/><stop offset=".99" stop-color="#EFAE9F"/></linearGradient></defs></svg>